<svg width="150" height="20" viewBox="0 0 150 20" fill="none" xmlns="http://www.w3.org/2000/svg">
<path d="M8.84 0.19995L9.08 0.67995C5.64 4.09995 3.72 8.83995 3.72 14.2H1.82C1.9 10.04 3.94 5.83995 7.86 1.67995H3.12C1.14 1.67995 0.540004 2.11995 0.260004 2.77995L4.27663e-06 2.67995L0.940004 0.19995H8.84ZM11.2588 7.17995C11.2588 11.92 12.5188 14.04 14.9188 14.04C17.4188 14.04 18.7588 11.92 18.7588 7.17995C18.7588 2.43995 17.2988 0.359951 14.9188 0.359951C12.5788 0.359951 11.2588 2.43995 11.2588 7.17995ZM9.49875 7.17995C9.49875 2.83995 11.9388 -4.95911e-05 14.9188 -4.95911e-05C17.9188 -4.95911e-05 20.5188 2.83995 20.5188 7.17995C20.5188 11.52 18.1788 14.4 14.9188 14.4C11.7188 14.4 9.49875 11.52 9.49875 7.17995ZM25.9191 10.6V7.31995H22.2791V6.83995H25.9191V3.53995H26.4791V6.83995H30.0391V7.31995H26.4791V10.6H25.9191ZM35.1583 0.439951V0.19995H37.8783L41.6783 6.95995V6.97995L43.7383 3.65995C44.4383 2.63995 44.7183 1.87995 44.7183 1.33995C44.7183 0.799951 44.4183 0.49995 43.8183 0.419951V0.19995H47.3583V0.419951C46.2183 0.419951 45.4983 1.67995 44.0983 3.83995L41.9183 7.33995V14.2H40.2983V7.61995L37.3383 2.43995C36.6183 1.17995 35.9783 0.439951 35.1583 0.439951ZM47.6875 10.8L47.6275 10.82C48.2075 12.44 49.4875 13.5 51.0875 13.5C52.2075 13.5 53.5475 13 54.2875 11.98L54.4875 12.06C53.8475 13.44 52.0475 14.44 50.1875 14.44C47.5275 14.44 45.6675 12.5 45.6675 9.79995C45.6675 7.05995 47.6275 4.99995 50.3875 4.99995C52.1475 4.99995 53.2275 5.83995 53.2275 7.21995C53.2275 8.93995 51.5075 9.95995 47.6875 10.8ZM47.3075 8.79995C47.3075 9.43995 47.3875 10.02 47.5475 10.56L47.6275 10.54C50.3675 9.91995 51.7075 8.79995 51.7075 7.21995C51.7075 6.09995 50.9875 5.35995 49.8675 5.35995C48.2675 5.35995 47.3075 6.69995 47.3075 8.79995ZM62.6875 4.99995L63.6675 10.5C64.3075 13.86 64.4675 13.96 65.7475 13.96V14.2H62.6875L61.1675 5.51995C60.6875 5.65995 60.2275 5.77995 59.8475 5.99995C58.0875 6.95995 57.0475 8.83995 57.0475 10.94C57.0475 12.62 57.7075 13.42 58.8475 13.42C59.6275 13.42 60.2875 12.88 60.8075 11.82L61.0475 11.9C60.5675 13.34 59.3675 14.4 57.8275 14.4C56.3075 14.4 55.2275 13.44 55.2275 11.62C55.2275 8.29995 58.7475 5.15995 62.6875 4.99995ZM68.5338 7.57995L68.5538 9.73995C68.9338 7.65995 69.7938 4.99995 71.8938 4.99995C72.6738 4.99995 73.3738 5.33995 73.5938 5.87995L72.8138 7.65995L72.6138 7.57995C72.6938 6.75995 72.3138 6.19995 71.4138 6.19995C69.7738 6.19995 68.6338 8.67995 68.5738 12.1L68.5938 14.2H66.9738V7.85995C66.9738 6.25995 66.5538 5.43995 65.4338 5.43995V5.21995H65.8738C67.7738 5.21995 68.5338 5.65995 68.5338 7.57995ZM78.2555 14.06C79.5155 14.06 80.6555 13.42 80.6555 12.24C80.6555 9.57995 74.7355 10.32 74.7355 7.19995C74.7355 5.77995 75.8755 4.99995 77.9555 4.99995C79.1555 4.99995 80.2555 5.25995 80.7555 5.71995L79.9955 7.53995L79.7555 7.47995C79.9155 6.05995 79.0155 5.31995 77.6355 5.31995C76.5355 5.31995 75.7955 5.73995 75.7955 6.53995C75.7955 8.77995 81.8555 8.25995 81.8555 11.42C81.8555 13.08 80.1355 14.4 77.7355 14.4C75.8155 14.4 73.8955 13.62 73.8955 12.8L74.4555 10.98C74.5355 10.98 74.6155 11 74.6955 11C74.7555 12.7 76.1555 14.06 78.2555 14.06ZM90.9063 0.19995V12.3C91.0063 13.36 91.2663 13.88 92.3863 13.88C95.6863 13.88 96.6863 13.04 97.4863 10.18L97.7863 10.22L97.2463 14.2H89.2863V2.81995C89.2863 0.519951 88.3263 0.419951 87.6863 0.419951V0.19995H90.9063ZM100.873 10.8L100.813 10.82C101.393 12.44 102.673 13.5 104.273 13.5C105.393 13.5 106.733 13 107.473 11.98L107.673 12.06C107.033 13.44 105.233 14.44 103.373 14.44C100.713 14.44 98.8534 12.5 98.8534 9.79995C98.8534 7.05995 100.813 4.99995 103.573 4.99995C105.333 4.99995 106.413 5.83995 106.413 7.21995C106.413 8.93995 104.693 9.95995 100.873 10.8ZM100.493 8.79995C100.493 9.43995 100.573 10.02 100.733 10.56L100.813 10.54C103.553 9.91995 104.893 8.79995 104.893 7.21995C104.893 6.09995 104.173 5.35995 103.053 5.35995C101.453 5.35995 100.493 6.69995 100.493 8.79995ZM115.873 4.99995L116.373 8.07995C117.013 11.96 118.433 13.54 118.433 15.26C118.433 17.74 115.533 19.78 112.013 19.78C109.873 19.78 108.473 19.06 108.473 18C108.473 16.98 109.553 16.08 111.473 15.54L111.553 15.7C110.613 16.1 110.113 16.78 110.113 17.52C110.113 18.56 111.333 19.32 113.093 19.32C115.193 19.32 116.953 18.14 116.953 15.96C116.953 14.04 115.473 12.96 114.753 8.39995L114.293 5.51995C113.833 5.63995 113.413 5.79995 113.033 5.99995C111.273 6.95995 110.233 8.83995 110.233 10.94C110.233 12.62 110.893 13.42 112.033 13.42C112.813 13.42 113.473 12.88 113.993 11.82L114.233 11.9C113.753 13.34 112.553 14.4 111.013 14.4C109.493 14.4 108.413 13.44 108.413 11.62C108.413 8.29995 111.933 5.15995 115.873 4.99995ZM126.782 4.99995L127.762 10.5C128.402 13.86 128.562 13.96 129.842 13.96V14.2H126.782L125.262 5.51995C124.782 5.65995 124.322 5.77995 123.942 5.99995C122.182 6.95995 121.142 8.83995 121.142 10.94C121.142 12.62 121.802 13.42 122.942 13.42C123.722 13.42 124.382 12.88 124.902 11.82L125.142 11.9C124.662 13.34 123.462 14.4 121.922 14.4C120.402 14.4 119.322 13.44 119.322 11.62C119.322 8.29995 122.842 5.15995 126.782 4.99995ZM135.308 4.99995C136.648 4.99995 137.628 5.43995 138.168 6.17995L137.028 8.51995L136.828 8.43995C136.968 6.53995 136.148 5.39995 134.768 5.39995C133.168 5.39995 132.028 6.73995 132.028 8.89995C132.028 11.48 133.688 13.46 135.868 13.46C137.068 13.46 138.408 12.86 139.128 11.66L139.328 11.74C138.628 13.34 136.948 14.4 134.988 14.4C132.328 14.4 130.368 12.56 130.368 9.89995C130.368 7.15995 132.508 4.99995 135.308 4.99995ZM143.252 5.21995V5.43995C142.752 5.47995 142.512 5.75995 142.512 6.29995C142.512 6.71995 142.632 7.21995 142.892 7.81995L144.872 12.52L146.852 8.25995C147.252 7.37995 147.452 6.71995 147.452 6.27995C147.452 5.77995 147.192 5.49995 146.692 5.43995V5.21995H149.332V5.43995C148.672 5.49995 148.332 6.01995 147.212 8.35995L144.372 14.4L144.012 15.22C142.472 18.58 141.312 19.78 139.412 19.78C138.972 19.78 138.572 19.7 138.232 19.52L139.332 17.22L139.492 17.3C139.392 18 139.872 18.52 140.572 18.52C141.512 18.52 142.632 17.46 143.672 15.16L144.052 14.3L141.392 8.17995C140.432 5.89995 140.072 5.43995 139.332 5.43995V5.21995H143.252Z" fill="black"/>
</svg>
