<svg width="163" height="21" viewBox="0 0 163 21" fill="none" xmlns="http://www.w3.org/2000/svg">
<path d="M7.89997 3.76L11.12 12.6C11.7 14.2 12.3 14.76 13.44 14.76V15H10.24L8.35997 9.78H3.95997L3.55997 10.86C3.05997 12.22 2.79997 13.1 2.79997 13.72C2.79997 14.54 3.29997 14.76 4.33997 14.78V15H-3.01972e-05V14.78C1.11997 14.78 1.83997 14.04 3.11997 10.76L5.97997 3.22C5.35997 1.76 4.81997 1.22 3.85997 1.22V0.999999H4.41997C6.65997 0.999999 6.97997 1.34 7.89997 3.76ZM6.29997 4.04L6.17997 3.72L4.07997 9.42H8.21997L6.29997 4.04ZM14.557 11.94V8.68C14.557 6.92 14.037 6.24 13.017 6.24V6.02H13.477C15.557 6.02 16.117 6.38 16.117 8.54V11.9C16.117 13.56 16.717 14.42 17.737 14.42C19.277 14.42 20.457 12.26 20.617 8.98V8.54C20.617 6.86 20.097 6.24 19.077 6.24V6.02H19.537C21.617 6.02 22.177 6.46 22.177 8.5V12.38C22.177 14.68 22.957 14.76 24.257 14.76V15H20.617V11.36C20.117 13.78 18.937 15.2 17.157 15.2C15.497 15.2 14.557 14.02 14.557 11.94ZM25.6218 12.74V6.3H24.0618V6.02H24.9818C26.3418 6.02 26.8418 5.04 26.9818 2.86H27.2018V6.02H30.1418V6.3H27.2018V12.8C27.2018 13.94 27.6818 14.5 28.6618 14.5C29.2818 14.5 29.7818 14.14 30.1618 13.42L30.3818 13.5C29.9818 14.62 29.0018 15.28 27.8818 15.28C26.3818 15.28 25.6218 14.34 25.6218 12.74ZM33.3592 2.36V9.74C33.8992 7.48 35.1192 5.8 36.8592 5.8C38.0192 5.8 38.7992 6.6 39.3992 9.88L39.7592 11.86C40.2392 14.6 40.5392 14.76 41.7792 14.76V15H38.6592L37.8392 10.1C37.4592 7.76 37.0192 6.7 36.0792 6.7C34.8392 6.7 33.6192 8.58 33.3592 11.52V15H31.7992V2.64C31.7992 0.96 31.2792 0.22 30.2592 0.22V-1.19209e-06H30.6992C32.7992 -1.19209e-06 33.3592 0.599999 33.3592 2.36ZM44.2436 11.6L44.1836 11.62C44.7636 13.24 46.0436 14.3 47.6436 14.3C48.7636 14.3 50.1036 13.8 50.8436 12.78L51.0436 12.86C50.4036 14.24 48.6036 15.24 46.7436 15.24C44.0836 15.24 42.2236 13.3 42.2236 10.6C42.2236 7.86 44.1836 5.8 46.9436 5.8C48.7036 5.8 49.7836 6.64 49.7836 8.02C49.7836 9.74 48.0636 10.76 44.2436 11.6ZM43.8636 9.6C43.8636 10.24 43.9436 10.82 44.1036 11.36L44.1836 11.34C46.9236 10.72 48.2636 9.6 48.2636 8.02C48.2636 6.9 47.5436 6.16 46.4236 6.16C44.8236 6.16 43.8636 7.5 43.8636 9.6ZM54.3836 8.38V10.06C54.9236 7.66 56.1436 5.8 57.9836 5.8C59.1236 5.8 59.9036 6.6 60.5036 9.88L60.8636 11.86C61.3436 14.6 61.6236 14.76 62.9036 14.76V15H59.7636L58.9436 10.1C58.5436 7.76 58.1236 6.7 57.1636 6.7C55.8236 6.7 54.4636 9 54.4036 12.44L54.4236 15H52.8036V8.66C52.8036 7.06 52.4036 6.24 51.2836 6.24V6.02H51.7236C53.6236 6.02 54.3836 6.46 54.3836 8.38ZM64.1781 12.74V6.3H62.6181V6.02H63.5381C64.8981 6.02 65.3981 5.04 65.5381 2.86H65.7581V6.02H68.6981V6.3H65.7581V12.8C65.7581 13.94 66.2381 14.5 67.2181 14.5C67.8381 14.5 68.3381 14.14 68.7181 13.42L68.9381 13.5C68.5381 14.62 67.5581 15.28 66.4381 15.28C64.9381 15.28 64.1781 14.34 64.1781 12.74ZM72.2554 8.38L72.2954 15H70.6754V8.66C70.6754 7.06 70.2754 6.24 69.1554 6.24V6.02H69.5954C71.4954 6.02 72.2554 6.46 72.2554 8.38ZM72.4154 2.8C72.4154 3.36 71.9954 3.72 71.4554 3.72C70.9154 3.72 70.4754 3.36 70.4754 2.8C70.4754 2.26 70.9154 1.88 71.4554 1.88C71.9954 1.88 72.4154 2.26 72.4154 2.8ZM79.294 5.8C80.634 5.8 81.614 6.24 82.154 6.98L81.014 9.32L80.814 9.24C80.954 7.34 80.134 6.2 78.754 6.2C77.154 6.2 76.014 7.54 76.014 9.7C76.014 12.28 77.674 14.26 79.854 14.26C81.054 14.26 82.394 13.66 83.114 12.46L83.314 12.54C82.614 14.14 80.934 15.2 78.974 15.2C76.314 15.2 74.354 13.36 74.354 10.7C74.354 7.96 76.494 5.8 79.294 5.8ZM91.867 8V15H90.247V3.62C90.247 1.32 89.287 1.22 88.647 1.22V0.999999H91.867V7.64H98.607V0.999999H101.827V1.22C101.207 1.22 100.207 1.3 100.207 3.6V15H98.607V8H91.867ZM104.862 11.6L104.802 11.62C105.382 13.24 106.662 14.3 108.262 14.3C109.382 14.3 110.722 13.8 111.462 12.78L111.662 12.86C111.022 14.24 109.222 15.24 107.362 15.24C104.702 15.24 102.842 13.3 102.842 10.6C102.842 7.86 104.802 5.8 107.562 5.8C109.322 5.8 110.402 6.64 110.402 8.02C110.402 9.74 108.682 10.76 104.862 11.6ZM104.482 9.6C104.482 10.24 104.562 10.82 104.722 11.36L104.802 11.34C107.542 10.72 108.882 9.6 108.882 8.02C108.882 6.9 108.162 6.16 107.042 6.16C105.442 6.16 104.482 7.5 104.482 9.6ZM114.702 8.38L114.722 10.54C115.102 8.46 115.962 5.8 118.062 5.8C118.842 5.8 119.542 6.14 119.762 6.68L118.982 8.46L118.782 8.38C118.862 7.56 118.482 7 117.582 7C115.942 7 114.802 9.48 114.742 12.9L114.762 15H113.142V8.66C113.142 7.06 112.722 6.24 111.602 6.24V6.02H112.042C113.942 6.02 114.702 6.46 114.702 8.38ZM123.449 8.38L123.489 15H121.869V8.66C121.869 7.06 121.469 6.24 120.349 6.24V6.02H120.789C122.689 6.02 123.449 6.46 123.449 8.38ZM123.609 2.8C123.609 3.36 123.189 3.72 122.649 3.72C122.109 3.72 121.669 3.36 121.669 2.8C121.669 2.26 122.109 1.88 122.649 1.88C123.189 1.88 123.609 2.26 123.609 2.8ZM126.408 12.74V6.3H124.848V6.02H125.768C127.128 6.02 127.628 5.04 127.768 2.86H127.988V6.02H130.928V6.3H127.988V12.8C127.988 13.94 128.468 14.5 129.448 14.5C130.068 14.5 130.568 14.14 130.948 13.42L131.168 13.5C130.768 14.62 129.788 15.28 128.668 15.28C127.168 15.28 126.408 14.34 126.408 12.74ZM139.345 5.8L140.325 11.3C140.965 14.66 141.125 14.76 142.405 14.76V15H139.345L137.825 6.32C137.345 6.46 136.885 6.58 136.505 6.8C134.745 7.76 133.705 9.64 133.705 11.74C133.705 13.42 134.365 14.22 135.505 14.22C136.285 14.22 136.945 13.68 137.465 12.62L137.705 12.7C137.225 14.14 136.025 15.2 134.485 15.2C132.965 15.2 131.885 14.24 131.885 12.42C131.885 9.1 135.405 5.96 139.345 5.8ZM150.351 5.8L150.851 8.88C151.491 12.76 152.911 14.34 152.911 16.06C152.911 18.54 150.011 20.58 146.491 20.58C144.351 20.58 142.951 19.86 142.951 18.8C142.951 17.78 144.031 16.88 145.951 16.34L146.031 16.5C145.091 16.9 144.591 17.58 144.591 18.32C144.591 19.36 145.811 20.12 147.571 20.12C149.671 20.12 151.431 18.94 151.431 16.76C151.431 14.84 149.951 13.76 149.231 9.2L148.771 6.32C148.311 6.44 147.891 6.6 147.511 6.8C145.751 7.76 144.711 9.64 144.711 11.74C144.711 13.42 145.371 14.22 146.511 14.22C147.291 14.22 147.951 13.68 148.471 12.62L148.711 12.7C148.231 14.14 147.031 15.2 145.491 15.2C143.971 15.2 142.891 14.24 142.891 12.42C142.891 9.1 146.411 5.96 150.351 5.8ZM155.86 11.6L155.8 11.62C156.38 13.24 157.66 14.3 159.26 14.3C160.38 14.3 161.72 13.8 162.46 12.78L162.66 12.86C162.02 14.24 160.22 15.24 158.36 15.24C155.7 15.24 153.84 13.3 153.84 10.6C153.84 7.86 155.8 5.8 158.56 5.8C160.32 5.8 161.4 6.64 161.4 8.02C161.4 9.74 159.68 10.76 155.86 11.6ZM155.48 9.6C155.48 10.24 155.56 10.82 155.72 11.36L155.8 11.34C158.54 10.72 159.88 9.6 159.88 8.02C159.88 6.9 159.16 6.16 158.04 6.16C156.44 6.16 155.48 7.5 155.48 9.6Z" fill="black"/>
</svg>
