<svg width="581" height="73" viewBox="0 0 581 73" fill="none" xmlns="http://www.w3.org/2000/svg">
<path d="M14 14.77V15.82C15.33 7.07 18.55 2.8 25.06 2.8C31.5 2.8 36.05 7.07 36.05 13.79C36.05 21.7 30.03 26.95 22.12 27.72V27.86C33.95 28.49 39.34 32.41 39.34 40.25C39.34 48.44 33.46 52.5 21.63 52.5H4.97V18.34C4.97 9.38 3.15 4.41 2.6077e-08 4.41V3.5H4.27C11.83 3.5 14 6.16 14 14.77ZM17.92 28.63H14V41.02C14 48.3 15.89 51.24 20.58 51.24C26.39 51.24 29.19 46.48 29.19 39.83C29.19 32.34 25.41 28.63 17.92 28.63ZM27.37 14.21C27.37 8.68 25.13 5.04 22.05 5.04C17.43 5.04 14.21 14.07 14 27.3H17.92C23.45 27.3 27.37 21.49 27.37 14.21ZM67.433 28.42C67.433 33.67 63.233 36.82 51.543 40.18C53.433 44.94 56.653 47.81 60.783 47.81C63.583 47.81 67.153 46.48 69.043 43.05L69.603 43.33C67.363 49.49 61.833 53.48 55.603 53.48C47.623 53.48 41.533 46.48 41.533 37.17C41.533 27.44 48.183 20.3 57.423 20.3C63.583 20.3 67.433 23.38 67.433 28.42ZM50.143 31.85C50.143 34.65 50.493 37.17 51.263 39.34C56.233 37.59 59.033 33.25 59.033 28.21C59.033 24.36 57.283 21.7 54.833 21.7C51.963 21.7 50.143 25.69 50.143 31.85ZM85.7363 51.87C89.4463 51.87 90.7763 49.63 90.7763 46.9C90.7763 38.92 73.1363 40.95 73.1363 29.12C73.1363 23.24 77.1263 20.3 84.6863 20.3C88.3263 20.3 92.5263 20.93 94.2063 21.7L90.8463 30.1L90.2163 29.96C90.2163 24.64 87.4863 21.49 83.0763 21.49C80.6263 21.49 79.0863 22.89 79.0863 25.34C79.0863 31.78 97.7763 31.29 97.7763 42.42C97.7763 48.37 91.4063 53.2 83.5663 53.2C77.1263 53.2 70.5463 50.33 70.5463 47.53L72.4363 37.87C72.7163 37.87 72.8563 37.94 73.1363 37.94C73.1363 45.43 78.9463 51.87 85.7363 51.87ZM102.435 41.02V22.19H98.0946V21.07H99.4246C106.985 21.07 109.995 15.33 110.765 8.4H111.325V21.07H120.705V22.19H111.325V43.19C111.325 47.39 112.795 49.63 115.805 49.63C117.695 49.63 119.655 48.51 121.265 45.43L121.825 45.78C120.145 50.54 116.015 53.55 111.185 53.55C104.955 53.55 102.435 48.86 102.435 41.02ZM150.262 2.8C155.162 2.8 160.342 4.34 162.372 6.37L157.962 17.01L157.262 16.8C157.822 9.73 154.392 3.92 149.562 3.92C146.762 3.92 145.082 5.88 145.082 9.17C145.082 20.58 167.062 21.42 167.062 37.17C167.062 46.06 159.502 53.2 150.052 53.2C141.372 53.2 134.092 48.65 134.092 43.68L137.662 30.59L138.432 30.73C138.432 42.14 144.802 51.52 152.432 51.52C156.842 51.52 159.152 48.37 159.152 43.05C159.152 28.42 138.362 28.91 138.362 13.58C138.362 6.86 143.192 2.8 150.262 2.8ZM195.306 28.42C195.306 33.67 191.106 36.82 179.416 40.18C181.306 44.94 184.526 47.81 188.656 47.81C191.456 47.81 195.026 46.48 196.916 43.05L197.476 43.33C195.236 49.49 189.706 53.48 183.476 53.48C175.496 53.48 169.406 46.48 169.406 37.17C169.406 27.44 176.056 20.3 185.296 20.3C191.456 20.3 195.306 23.38 195.306 28.42ZM178.016 31.85C178.016 34.65 178.366 37.17 179.136 39.34C184.106 37.59 186.906 33.25 186.906 28.21C186.906 24.36 185.156 21.7 182.706 21.7C179.836 21.7 178.016 25.69 178.016 31.85ZM209.759 11.34V52.5H200.799V12.32C200.799 4.27 199.119 0.769998 195.969 0.769998V-4.17233e-06H199.959C207.729 -4.17233e-06 209.759 2.31 209.759 11.34ZM225.313 11.34V52.5H216.353V12.32C216.353 4.27 214.673 0.769998 211.523 0.769998V-4.17233e-06H215.513C223.283 -4.17233e-06 225.313 2.31 225.313 11.34ZM241.916 32.41L242.126 52.5H233.026V33.39C233.026 25.48 231.346 21.84 228.196 21.84V21.07H232.186C239.816 21.07 241.916 23.24 241.916 32.41ZM241.986 9.8C241.986 12.88 239.746 14.91 236.946 14.91C234.146 14.91 231.906 12.88 231.906 9.8C231.906 6.79 234.146 4.62 236.946 4.62C239.746 4.62 241.986 6.79 241.986 9.8ZM258.152 32.41V35.07C259.622 26.67 263.052 20.3 268.722 20.3C273.692 20.3 276.632 24.5 278.312 34.58L279.502 41.51C280.972 50.75 282.582 51.66 285.242 51.66V52.5H272.152L269.842 35.35C268.792 27.79 267.182 24.99 265.012 24.99C261.862 24.99 258.572 31.99 258.222 42.91L258.362 52.5H249.262V33.39C249.262 25.48 247.582 21.84 244.432 21.84V21.07H248.422C256.052 21.07 258.152 23.24 258.152 32.41ZM310.313 20.3L310.243 20.37L311.853 31.08C313.533 43.47 318.223 48.51 318.223 55.3C318.223 64.61 309.473 72.03 297.853 72.03C290.503 72.03 284.973 69.16 284.973 65.1C284.973 61.25 289.593 57.47 296.873 55.51L297.083 56.14C295.053 57.33 293.513 60.48 293.513 63.49C293.513 67.69 296.873 70.63 301.353 70.63C307.163 70.63 310.313 66.01 310.313 59.78C310.313 52.15 304.713 46.34 303.033 33.04L301.773 23.24C301.143 23.59 300.513 23.94 299.883 24.43C296.173 27.37 294.353 32.34 294.353 39.41C294.353 45.08 295.403 47.39 298.413 47.39C300.303 47.39 301.633 46.34 302.963 43.05L303.663 43.33C302.053 49.28 297.923 53.2 292.953 53.2C287.983 53.2 284.903 49.49 284.903 43.54C284.903 32.06 297.153 20.65 310.313 20.3ZM331.603 4.27V3.5H336.153C343.013 3.5 345.113 6.23 345.113 14.63C346.513 6.02 349.663 2.8 355.193 2.8C362.473 2.8 366.813 8.4 366.813 16.94C366.813 25.83 362.193 32.48 351.553 32.48C349.523 32.48 347.283 32.27 345.113 31.78V52.5H336.013V18.34C336.013 9.31 334.473 4.27 331.603 4.27ZM348.613 31.08C353.863 31.08 356.733 26.32 356.733 17.57C356.733 10.22 354.703 5.32 351.693 5.32C347.563 5.32 345.323 15.12 345.113 27.3V30.73C346.443 30.94 347.563 31.08 348.613 31.08ZM380.104 32.41L380.174 37.94C381.504 29.96 384.374 20.3 390.954 20.3C393.264 20.3 395.014 21.35 396.064 22.82L391.794 32.69L391.094 32.41C391.094 29.54 390.604 27.3 387.454 27.3C384.304 27.3 380.594 33.67 380.244 43.96L380.314 52.5H371.284V33.39C371.284 25.48 369.534 21.84 366.384 21.84V21.07H370.374C378.074 21.07 380.104 23.24 380.104 32.41ZM427.792 36.68C427.792 46.27 420.792 53.2 411.412 53.2C402.172 53.2 395.242 46.13 395.242 36.68C395.242 26.81 402.872 20.3 411.622 20.3C420.862 20.3 427.792 27.44 427.792 36.68ZM413.372 52.01C416.382 52.01 418.132 48.3 418.132 41.23C418.132 30.66 414.212 21.42 409.592 21.42C406.512 21.42 404.902 25.2 404.902 32.27C404.902 42.7 408.682 52.01 413.372 52.01ZM454.784 11.48L456.044 20.3L458.844 39.55C460.524 51.17 462.344 51.66 464.794 51.66V52.5H451.634L447.294 23.03C446.524 23.38 445.754 23.8 444.984 24.43C441.274 27.37 439.454 32.34 439.454 39.41C439.454 45.08 440.504 47.39 443.514 47.39C445.404 47.39 446.734 46.34 448.064 43.05L448.764 43.33C447.154 49.28 443.024 53.2 438.054 53.2C433.084 53.2 430.004 49.49 430.004 43.54C430.004 34.44 437.564 25.76 447.154 21.98L445.894 13.16C444.564 4.69 442.254 0.769998 439.174 0.769998L439.034 -4.17233e-06H443.304C451.214 -4.17233e-06 453.314 2.24 454.784 11.48ZM467.224 39.55V32.76C467.224 24.71 465.474 21.84 462.324 21.84V21.07H466.314C473.944 21.07 476.114 22.61 476.114 31.92V39.41C476.114 45.01 478.074 48.65 480.944 48.65C484.584 48.65 486.824 42.56 487.314 32.2V31.99C487.314 24.15 485.424 21.84 482.344 21.84V21.07H486.474C494.174 21.07 496.134 22.75 496.134 31.99V40.39C496.134 51.31 499.634 51.66 502.084 51.66V52.5H487.314V40.18C485.704 48.37 482.414 53.2 477.024 53.2C471.354 53.2 467.224 48.23 467.224 39.55ZM518.242 20.3C522.792 20.3 526.432 21.77 528.182 24.01L522.652 35.91L521.952 35.63C522.022 27.02 519.782 21.7 515.932 21.7C512.642 21.7 510.122 25.83 510.122 32.34C510.122 40.95 514.672 47.53 521.112 47.53C523.982 47.53 527.552 46.13 529.722 42.56L530.282 42.84C528.042 49.14 522.302 53.2 515.932 53.2C507.602 53.2 501.512 46.48 501.512 37.17C501.512 27.44 508.372 20.3 518.242 20.3ZM533.941 41.02V22.19H529.601V21.07H530.931C538.491 21.07 541.501 15.33 542.271 8.4H542.831V21.07H552.211V22.19H542.831V43.19C542.831 47.39 544.301 49.63 547.311 49.63C549.201 49.63 551.161 48.51 552.771 45.43L553.331 45.78C551.651 50.54 547.521 53.55 542.691 53.55C536.461 53.55 533.941 48.86 533.941 41.02ZM568.31 51.87C572.02 51.87 573.35 49.63 573.35 46.9C573.35 38.92 555.71 40.95 555.71 29.12C555.71 23.24 559.7 20.3 567.26 20.3C570.9 20.3 575.1 20.93 576.78 21.7L573.42 30.1L572.79 29.96C572.79 24.64 570.06 21.49 565.65 21.49C563.2 21.49 561.66 22.89 561.66 25.34C561.66 31.78 580.35 31.29 580.35 42.42C580.35 48.37 573.98 53.2 566.14 53.2C559.7 53.2 553.12 50.33 553.12 47.53L555.01 37.87C555.29 37.87 555.43 37.94 555.71 37.94C555.71 45.43 561.52 51.87 568.31 51.87Z" fill="#121212"/>
</svg>
