<svg width="534" height="54" viewBox="0 0 534 54" fill="none" xmlns="http://www.w3.org/2000/svg">
<path d="M34.79 3.5V4.2L31.15 17.29L30.38 17.08C30.73 8.19 25.69 4.9 20.16 4.9H14.63V26.18H16.45C20.93 26.18 24.29 22.61 24.5 17.5H25.48V37.03H24.5C24.22 31.15 21.21 27.58 16.45 27.58H14.63V52.5H5.59997V15.61C5.59997 4.69 2.23997 4.34 -2.55816e-05 4.34V3.5H34.79ZM57.3989 28.42C57.3989 33.67 53.1989 36.82 41.5089 40.18C43.3989 44.94 46.6189 47.81 50.7489 47.81C53.5489 47.81 57.1189 46.48 59.0089 43.05L59.5689 43.33C57.3289 49.49 51.7989 53.48 45.5689 53.48C37.5889 53.48 31.4989 46.48 31.4989 37.17C31.4989 27.44 38.1489 20.3 47.3889 20.3C53.5489 20.3 57.3989 23.38 57.3989 28.42ZM40.1089 31.85C40.1089 34.65 40.4589 37.17 41.2289 39.34C46.1989 37.59 48.9989 33.25 48.9989 28.21C48.9989 24.36 47.2489 21.7 44.7989 21.7C41.9289 21.7 40.1089 25.69 40.1089 31.85ZM86.0622 20.3L88.8622 39.55C90.5422 51.17 92.3622 51.66 94.8122 51.66V52.5H81.7222L77.3822 23.31C76.7522 23.66 76.1222 24.08 75.6322 24.43C71.9222 27.37 70.1022 32.34 70.1022 39.41C70.1022 45.08 71.1522 47.39 74.1622 47.39C76.0522 47.39 77.3822 46.34 78.7122 43.05L79.4122 43.33C77.8022 49.28 73.6722 53.2 68.7022 53.2C63.7322 53.2 60.6522 49.49 60.6522 43.54C60.6522 32.06 72.9022 20.65 86.0622 20.3ZM97.049 41.02V22.19H92.709V21.07H94.039C101.599 21.07 104.609 15.33 105.379 8.4H105.939V21.07H115.319V22.19H105.939V43.19C105.939 47.39 107.409 49.63 110.419 49.63C112.309 49.63 114.269 48.51 115.879 45.43L116.439 45.78C114.759 50.54 110.629 53.55 105.799 53.55C99.569 53.55 97.049 48.86 97.049 41.02ZM119.238 39.55V32.76C119.238 24.71 117.488 21.84 114.338 21.84V21.07H118.328C125.958 21.07 128.128 22.61 128.128 31.92V39.41C128.128 45.01 130.088 48.65 132.958 48.65C136.598 48.65 138.838 42.56 139.328 32.2V31.99C139.328 24.15 137.438 21.84 134.358 21.84V21.07H138.488C146.188 21.07 148.148 22.75 148.148 31.99V40.39C148.148 51.31 151.648 51.66 154.098 51.66V52.5H139.328V40.18C137.718 48.37 134.428 53.2 129.038 53.2C123.368 53.2 119.238 48.23 119.238 39.55ZM165.356 32.41L165.426 37.94C166.756 29.96 169.626 20.3 176.206 20.3C178.516 20.3 180.266 21.35 181.316 22.82L177.046 32.69L176.346 32.41C176.346 29.54 175.856 27.3 172.706 27.3C169.556 27.3 165.846 33.67 165.496 43.96L165.566 52.5H156.536V33.39C156.536 25.48 154.786 21.84 151.636 21.84V21.07H155.626C163.326 21.07 165.356 23.24 165.356 32.41ZM207.01 28.42C207.01 33.67 202.81 36.82 191.12 40.18C193.01 44.94 196.23 47.81 200.36 47.81C203.16 47.81 206.73 46.48 208.62 43.05L209.18 43.33C206.94 49.49 201.41 53.48 195.18 53.48C187.2 53.48 181.11 46.48 181.11 37.17C181.11 27.44 187.76 20.3 197 20.3C203.16 20.3 207.01 23.38 207.01 28.42ZM189.72 31.85C189.72 34.65 190.07 37.17 190.84 39.34C195.81 37.59 198.61 33.25 198.61 28.21C198.61 24.36 196.86 21.7 194.41 21.7C191.54 21.7 189.72 25.69 189.72 31.85ZM235.114 11.48L236.374 20.3L239.174 39.55C240.854 51.17 242.674 51.66 245.124 51.66V52.5H231.964L227.624 23.03C226.854 23.38 226.084 23.8 225.314 24.43C221.604 27.37 219.784 32.34 219.784 39.41C219.784 45.08 220.834 47.39 223.844 47.39C225.734 47.39 227.064 46.34 228.394 43.05L229.094 43.33C227.484 49.28 223.354 53.2 218.384 53.2C213.414 53.2 210.334 49.49 210.334 43.54C210.334 34.44 217.894 25.76 227.484 21.98L226.224 13.16C224.894 4.69 222.584 0.769998 219.504 0.769998L219.364 -4.17233e-06H223.634C231.544 -4.17233e-06 233.644 2.24 235.114 11.48ZM279.599 2.8C284.499 2.8 290.309 4.27 292.899 7.63L286.879 21.14L286.039 20.86C286.599 11.41 282.889 4.55 276.519 4.55C269.589 4.55 264.899 12.67 264.899 23.31C264.899 36.68 272.389 47.04 282.399 47.04C287.719 47.04 293.179 44.03 296.259 38.36L297.029 38.78C293.879 47.53 286.109 53.2 276.939 53.2C264.899 53.2 255.939 43.26 255.939 29.05C255.939 14.42 265.459 2.8 279.599 2.8ZM329.055 36.68C329.055 46.27 322.055 53.2 312.675 53.2C303.435 53.2 296.505 46.13 296.505 36.68C296.505 26.81 304.135 20.3 312.885 20.3C322.125 20.3 329.055 27.44 329.055 36.68ZM314.635 52.01C317.645 52.01 319.395 48.3 319.395 41.23C319.395 30.66 315.475 21.42 310.855 21.42C307.775 21.42 306.165 25.2 306.165 32.27C306.165 42.7 309.945 52.01 314.635 52.01ZM342.397 11.34V52.5H333.437V12.32C333.437 4.27 331.757 0.769998 328.607 0.769998V-4.17233e-06H332.597C340.367 -4.17233e-06 342.397 2.31 342.397 11.34ZM357.95 11.34V52.5H348.99V12.32C348.99 4.27 347.31 0.769998 344.16 0.769998V-4.17233e-06H348.15C355.92 -4.17233e-06 357.95 2.31 357.95 11.34ZM388.343 28.42C388.343 33.67 384.143 36.82 372.453 40.18C374.343 44.94 377.563 47.81 381.693 47.81C384.493 47.81 388.063 46.48 389.953 43.05L390.513 43.33C388.273 49.49 382.743 53.48 376.513 53.48C368.533 53.48 362.443 46.48 362.443 37.17C362.443 27.44 369.093 20.3 378.333 20.3C384.493 20.3 388.343 23.38 388.343 28.42ZM371.053 31.85C371.053 34.65 371.403 37.17 372.173 39.34C377.143 37.59 379.943 33.25 379.943 28.21C379.943 24.36 378.193 21.7 375.743 21.7C372.873 21.7 371.053 25.69 371.053 31.85ZM408.466 20.3C413.016 20.3 416.656 21.77 418.406 24.01L412.876 35.91L412.176 35.63C412.246 27.02 410.006 21.7 406.156 21.7C402.866 21.7 400.346 25.83 400.346 32.34C400.346 40.95 404.896 47.53 411.336 47.53C414.206 47.53 417.776 46.13 419.946 42.56L420.506 42.84C418.266 49.14 412.526 53.2 406.156 53.2C397.826 53.2 391.736 46.48 391.736 37.17C391.736 27.44 398.596 20.3 408.466 20.3ZM424.165 41.02V22.19H419.825V21.07H421.155C428.715 21.07 431.725 15.33 432.495 8.4H433.055V21.07H442.435V22.19H433.055V43.19C433.055 47.39 434.525 49.63 437.535 49.63C439.425 49.63 441.385 48.51 442.995 45.43L443.555 45.78C441.875 50.54 437.745 53.55 432.915 53.55C426.685 53.55 424.165 48.86 424.165 41.02ZM455.734 32.41L455.944 52.5H446.844V33.39C446.844 25.48 445.164 21.84 442.014 21.84V21.07H446.004C453.634 21.07 455.734 23.24 455.734 32.41ZM455.804 9.8C455.804 12.88 453.564 14.91 450.764 14.91C447.964 14.91 445.724 12.88 445.724 9.8C445.724 6.79 447.964 4.62 450.764 4.62C453.564 4.62 455.804 6.79 455.804 9.8ZM492.341 36.68C492.341 46.27 485.341 53.2 475.961 53.2C466.721 53.2 459.791 46.13 459.791 36.68C459.791 26.81 467.421 20.3 476.171 20.3C485.411 20.3 492.341 27.44 492.341 36.68ZM477.921 52.01C480.931 52.01 482.681 48.3 482.681 41.23C482.681 30.66 478.761 21.42 474.141 21.42C471.061 21.42 469.451 25.2 469.451 32.27C469.451 42.7 473.231 52.01 477.921 52.01ZM506.733 32.41V35.07C508.203 26.67 511.633 20.3 517.303 20.3C522.273 20.3 525.213 24.5 526.893 34.58L528.083 41.51C529.553 50.75 531.163 51.66 533.823 51.66V52.5H520.733L518.423 35.35C517.373 27.79 515.763 24.99 513.593 24.99C510.443 24.99 507.153 31.99 506.803 42.91L506.943 52.5H497.843V33.39C497.843 25.48 496.163 21.84 493.013 21.84V21.07H497.003C504.633 21.07 506.733 23.24 506.733 32.41Z" fill="#121212"/>
</svg>
