<svg width="138" height="16" viewBox="0 0 138 16" fill="none" xmlns="http://www.w3.org/2000/svg">
<path d="M7.22002 0.799999C9.06002 0.799999 10.7 1.4 11.5 2.38L10.28 4.98L10.04 4.86C10.08 4.62 10.1 4.4 10.1 4.18C10.1 2.42 8.78002 1.26 6.62002 1.26C3.66002 1.26 1.64002 3.46 1.64002 7.24C1.64002 11.34 4.02002 14.78 7.14002 14.78C9.06002 14.78 10.26 13.5 10.26 11.82V10.3C10.26 9.54 9.74002 9.14 8.70002 9.1V8.82H13.26V9.12C12.2 9.2 11.78 9.5 11.78 10.16V14.9H11.48C11.48 14.2 11.24 13.74 10.86 13.74C10.68 13.74 10.52 13.8 10.02 14.18C9.14002 14.84 8.18002 15.2 6.74002 15.2C2.68002 15.2 1.77622e-05 12.46 1.77622e-05 8.34C1.77622e-05 3.94 3.12002 0.799999 7.22002 0.799999ZM16.5442 2.36V15H14.9842V2.64C14.9842 0.96 14.4642 0.22 13.4442 0.22V-1.19209e-06H13.8842C15.9842 -1.19209e-06 16.5442 0.599999 16.5442 2.36ZM27.9689 10.5C27.9689 13.3 25.9089 15.2 23.3689 15.2C20.7089 15.2 18.7489 13.22 18.7489 10.5C18.7489 7.76 20.7289 5.8 23.3689 5.8C25.9889 5.8 27.9689 7.84 27.9689 10.5ZM24.1289 14.7C25.5089 14.7 26.4689 13.58 26.4689 11.66C26.4689 8.96 24.8289 6.3 22.6289 6.3C21.2689 6.3 20.2489 7.34 20.2489 9.26C20.2489 11.82 21.7289 14.7 24.1289 14.7ZM34.0813 15.2C32.2813 15.2 31.3213 14.22 30.8813 14.22C30.6613 14.22 30.3813 14.44 30.3813 15H30.1013V3.38C30.1013 1.36 29.9013 0.22 28.6813 0.22V-1.19209e-06C31.5413 -1.19209e-06 31.7013 0.359999 31.7013 3.78V8.92C32.1813 7.44 33.1613 5.8 35.2813 5.8C37.2013 5.8 38.8013 7.14 38.8013 9.86C38.8013 12.92 36.7413 15.2 34.0813 15.2ZM31.6613 11.36C31.6613 13.94 32.7413 14.82 34.2413 14.82C36.2213 14.82 37.2213 13.3 37.2213 10.9C37.2213 8.52 36.2813 6.76 34.5813 6.76C32.8213 6.76 31.6613 8.68 31.6613 11.36ZM47.7708 5.8L48.7508 11.3C49.3908 14.66 49.5508 14.76 50.8308 14.76V15H47.7708L46.2508 6.32C45.7708 6.46 45.3108 6.58 44.9308 6.8C43.1708 7.76 42.1308 9.64 42.1308 11.74C42.1308 13.42 42.7908 14.22 43.9308 14.22C44.7108 14.22 45.3708 13.68 45.8908 12.62L46.1308 12.7C45.6508 14.14 44.4508 15.2 42.9108 15.2C41.3908 15.2 40.3108 14.24 40.3108 12.42C40.3108 9.1 43.8308 5.96 47.7708 5.8ZM53.577 2.36V15H52.017V2.64C52.017 0.96 51.497 0.22 50.477 0.22V-1.19209e-06H50.917C53.017 -1.19209e-06 53.577 0.599999 53.577 2.36ZM60.5189 1.22V0.999999H61.0589C62.9189 0.999999 63.4989 1.66 63.4989 3.36V4.88C63.9789 2.14 65.1189 0.799999 67.0389 0.799999C69.1989 0.799999 70.4189 2.54 70.4189 4.92C70.4189 7.5 68.9789 9.32 65.8389 9.32C65.0989 9.32 64.2789 9.22 63.4989 9.06V15H61.8589V3.92C61.8589 2.12 61.4189 1.22 60.5189 1.22ZM65.2789 8.96C67.5789 8.96 68.6789 7.58 68.6789 5.12C68.6789 2.96 67.7989 1.4 66.4589 1.4C64.5189 1.4 63.5589 4.44 63.4989 8.08V8.76C64.0789 8.86 64.6589 8.96 65.2789 8.96ZM73.96 8.38L73.98 10.54C74.36 8.46 75.22 5.8 77.32 5.8C78.1 5.8 78.8 6.14 79.02 6.68L78.24 8.46L78.04 8.38C78.12 7.56 77.74 7 76.84 7C75.2 7 74.06 9.48 74 12.9L74.02 15H72.4V8.66C72.4 7.06 71.98 6.24 70.86 6.24V6.02H71.3C73.2 6.02 73.96 6.46 73.96 8.38ZM81.6794 11.6L81.6194 11.62C82.1994 13.24 83.4794 14.3 85.0794 14.3C86.1994 14.3 87.5394 13.8 88.2794 12.78L88.4794 12.86C87.8394 14.24 86.0394 15.24 84.1794 15.24C81.5194 15.24 79.6594 13.3 79.6594 10.6C79.6594 7.86 81.6194 5.8 84.3794 5.8C86.1394 5.8 87.2194 6.64 87.2194 8.02C87.2194 9.74 85.4994 10.76 81.6794 11.6ZM81.2994 9.6C81.2994 10.24 81.3794 10.82 81.5394 11.36L81.6194 11.34C84.3594 10.72 85.6994 9.6 85.6994 8.02C85.6994 6.9 84.9794 6.16 83.8594 6.16C82.2594 6.16 81.2994 7.5 81.2994 9.6ZM93.3794 14.86C94.6394 14.86 95.7794 14.22 95.7794 13.04C95.7794 10.38 89.8594 11.12 89.8594 8C89.8594 6.58 90.9994 5.8 93.0794 5.8C94.2794 5.8 95.3794 6.06 95.8794 6.52L95.1194 8.34L94.8794 8.28C95.0394 6.86 94.1394 6.12 92.7594 6.12C91.6594 6.12 90.9194 6.54 90.9194 7.34C90.9194 9.58 96.9794 9.06 96.9794 12.22C96.9794 13.88 95.2594 15.2 92.8594 15.2C90.9394 15.2 89.0194 14.42 89.0194 13.6L89.5794 11.78C89.6594 11.78 89.7394 11.8 89.8194 11.8C89.8794 13.5 91.2794 14.86 93.3794 14.86ZM100.313 11.6L100.253 11.62C100.833 13.24 102.113 14.3 103.713 14.3C104.833 14.3 106.173 13.8 106.913 12.78L107.113 12.86C106.473 14.24 104.673 15.24 102.813 15.24C100.153 15.24 98.293 13.3 98.293 10.6C98.293 7.86 100.253 5.8 103.013 5.8C104.773 5.8 105.853 6.64 105.853 8.02C105.853 9.74 104.133 10.76 100.313 11.6ZM99.933 9.6C99.933 10.24 100.013 10.82 100.173 11.36L100.253 11.34C102.993 10.72 104.333 9.6 104.333 8.02C104.333 6.9 103.613 6.16 102.493 6.16C100.893 6.16 99.933 7.5 99.933 9.6ZM110.453 8.38V10.06C110.993 7.66 112.213 5.8 114.053 5.8C115.193 5.8 115.973 6.6 116.573 9.88L116.933 11.86C117.413 14.6 117.693 14.76 118.973 14.76V15H115.833L115.013 10.1C114.613 7.76 114.193 6.7 113.233 6.7C111.893 6.7 110.533 9 110.473 12.44L110.493 15H108.873V8.66C108.873 7.06 108.473 6.24 107.353 6.24V6.02H107.793C109.693 6.02 110.453 6.46 110.453 8.38ZM124.328 5.8C125.668 5.8 126.648 6.24 127.188 6.98L126.048 9.32L125.848 9.24C125.988 7.34 125.168 6.2 123.788 6.2C122.188 6.2 121.048 7.54 121.048 9.7C121.048 12.28 122.708 14.26 124.888 14.26C126.088 14.26 127.428 13.66 128.148 12.46L128.348 12.54C127.648 14.14 125.968 15.2 124.008 15.2C121.348 15.2 119.388 13.36 119.388 10.7C119.388 7.96 121.528 5.8 124.328 5.8ZM131.183 11.6L131.123 11.62C131.703 13.24 132.983 14.3 134.583 14.3C135.703 14.3 137.043 13.8 137.783 12.78L137.983 12.86C137.343 14.24 135.543 15.24 133.683 15.24C131.023 15.24 129.163 13.3 129.163 10.6C129.163 7.86 131.123 5.8 133.883 5.8C135.643 5.8 136.723 6.64 136.723 8.02C136.723 9.74 135.003 10.76 131.183 11.6ZM130.803 9.6C130.803 10.24 130.883 10.82 131.043 11.36L131.123 11.34C133.863 10.72 135.203 9.6 135.203 8.02C135.203 6.9 134.483 6.16 133.363 6.16C131.763 6.16 130.803 7.5 130.803 9.6Z" fill="black"/>
</svg>
