<svg width="30" height="30" viewBox="0 0 30 30" fill="none" xmlns="http://www.w3.org/2000/svg">
<path d="M29.9897 14.3245C29.8484 10.4931 28.2194 6.86399 25.4427 4.19479C22.6659 1.5256 18.9561 0.0227241 15.0879 4.10463e-06H15.0149C12.4099 -0.00191389 9.84944 0.668376 7.58518 1.94491C5.32097 3.22145 3.4311 5.06025 2.10153 7.28038C0.771963 9.50051 0.0485111 12.0255 0.00235581 14.6068C-0.0437985 17.1882 0.588935 19.7369 1.8383 22.0024L0.511668 29.8703C0.509509 29.8864 0.510841 29.9028 0.515583 29.9184C0.520315 29.934 0.528357 29.9484 0.539153 29.9607C0.549949 29.973 0.563257 29.9828 0.57819 29.9896C0.593123 29.9964 0.609347 29.9999 0.625773 30H0.648596L8.50035 28.269C10.5291 29.2343 12.7507 29.7352 15.0011 29.7346C15.1442 29.7346 15.2872 29.7346 15.4301 29.7346C17.4097 29.6786 19.3586 29.2346 21.164 28.4282C22.9696 27.6218 24.596 26.469 25.9497 25.0363C27.3033 23.6036 28.3573 21.9194 29.0506 20.0808C29.744 18.2423 30.0631 16.2859 29.9897 14.3245ZM15.3556 27.1486C15.2369 27.1486 15.1183 27.1486 15.0011 27.1486C13.0123 27.1511 11.0518 26.6794 9.28538 25.7735L8.88374 25.5654L3.55897 26.8124L4.54176 21.4731L4.31357 21.0901C3.22363 19.2484 2.63655 17.157 2.61016 15.0219C2.58378 12.8869 3.11899 10.7818 4.16308 8.91418C5.20718 7.04649 6.72413 5.48058 8.56456 4.37067C10.405 3.26075 12.5053 2.64513 14.6589 2.58444C14.7786 2.58444 14.8987 2.58444 15.0194 2.58444C18.2708 2.59399 21.3882 3.86907 23.7001 6.13497C26.0119 8.40086 27.3332 11.4762 27.3791 14.6983C27.4249 17.9205 26.1918 21.0315 23.9454 23.3612C21.699 25.6909 18.6191 27.0527 15.3693 27.1532L15.3556 27.1486Z" fill="white"/>
<path d="M9.78549 7.69007C9.60015 7.69366 9.41738 7.73407 9.24805 7.80892C9.07871 7.88377 8.92625 7.99154 8.79969 8.12584C8.44216 8.48923 7.44263 9.36377 7.38481 11.2003C7.32701 13.0368 8.62169 14.8538 8.80273 15.1086C8.98378 15.3634 11.278 19.3306 15.0571 20.9394C17.2783 21.8879 18.252 22.0507 18.8833 22.0507C19.1435 22.0507 19.3397 22.0236 19.5451 22.0115C20.2373 21.9693 21.7998 21.1762 22.1405 20.3137C22.4814 19.4512 22.5042 18.6973 22.4144 18.5465C22.3247 18.3957 22.0782 18.2871 21.707 18.0941C21.3358 17.9011 19.5147 16.9361 19.1723 16.8004C19.0454 16.7418 18.9088 16.7066 18.7692 16.6964C18.6782 16.7011 18.5899 16.7277 18.5117 16.774C18.4335 16.8202 18.3678 16.8847 18.3204 16.9617C18.0162 17.3372 17.3179 18.1529 17.0835 18.3882C17.0323 18.4466 16.9693 18.4937 16.8985 18.5265C16.8278 18.5592 16.7508 18.5768 16.6727 18.5782C16.5288 18.5719 16.3881 18.5343 16.2605 18.4681C15.1573 18.0038 14.1516 17.3389 13.2953 16.5079C12.4952 15.7263 11.8163 14.8315 11.281 13.8526C11.0741 13.4726 11.281 13.2766 11.4697 13.0987C11.6583 12.9207 11.8606 12.675 12.0554 12.4623C12.2152 12.2807 12.3484 12.0777 12.451 11.8592C12.5041 11.7578 12.5309 11.6449 12.529 11.5307C12.5272 11.4164 12.4967 11.3045 12.4403 11.2048C12.3506 11.0148 11.6796 9.14664 11.3647 8.39725C11.1092 7.75642 10.8049 7.73531 10.5386 7.71571C10.3195 7.70063 10.0685 7.69309 9.81748 7.68555H9.78549" fill="white"/>
</svg>
