<svg width="875" height="50" viewBox="0 0 875 50" fill="none" xmlns="http://www.w3.org/2000/svg">
<path d="M494.752 31.7436C488.676 36.3629 481.328 32.1685 477.03 28.7785C472.538 25.234 467.212 23.1023 461.709 22.9146C441.994 22.2386 439.699 44.5006 439.699 44.5006C439.699 44.5006 452.311 23.4293 467.227 30.7446C467.227 30.7446 477.627 35.2467 479.449 48.753C479.449 48.753 482.732 42.3758 478.688 36.2788C482.478 38.06 488.714 39.7474 494.752 31.7436Z" fill="#C08237"/>
<path d="M376.136 31.7436C382.213 36.3629 389.56 32.1685 393.858 28.7785C398.35 25.234 403.677 23.1023 409.179 22.9146C428.895 22.2386 431.189 44.5006 431.189 44.5006C431.189 44.5006 418.577 23.4293 403.661 30.7446C403.661 30.7446 393.263 35.2467 391.44 48.753C391.44 48.753 388.157 42.3758 392.201 36.2788C388.412 38.06 382.176 39.7474 376.136 31.7436Z" fill="#C08237"/>
<path d="M453.934 18.1644C446.967 16.8233 440.613 25.4259 436.72 32.3522C436.254 33.1897 435.825 33.9996 435.435 34.7543C435.062 33.9996 434.633 33.1897 434.167 32.3798C430.274 25.4535 423.922 16.8246 416.954 18.1644C422.394 9.73003 430.851 14.1134 435.435 27.8543C440.036 14.1134 448.495 9.72865 453.934 18.1644Z" fill="#C08237"/>
<path d="M432.74 9.86651C431.942 5.66658 435.446 0 435.446 0C435.446 0 438.949 5.66658 438.151 9.86651C437.555 12.9958 433.335 12.9958 432.74 9.86651Z" fill="#C08237"/>
<path d="M494.906 45.0195C534.661 50.6419 575.819 51.2089 615.78 48.1956C631.995 46.9731 648.171 44.996 664.153 41.9716C681.186 38.7485 697.455 33.7401 713.926 28.446C741.99 19.4253 771.787 12.7819 801.44 14.0719C811.566 14.5134 823.76 15.3634 832.966 20.2173C834.445 20.9968 835.762 18.752 834.279 17.9697C827.153 14.214 818.273 13.0137 810.413 12.1486C784.971 9.34908 758.865 13.5117 734.256 19.8406C716.635 24.3717 699.675 31.0303 682.018 35.4192C665.475 39.5308 648.611 42.3014 631.671 44.1392C602.028 47.3526 572.094 47.8286 542.325 46.4475C526.834 45.7286 510.717 44.6524 495.596 42.5125C493.961 42.2779 493.253 44.7849 494.906 45.0195Z" fill="#C08237"/>
<path d="M379.401 42.5981C338.932 48.3226 296.172 48.7738 255.271 45.3672C238.356 43.9585 221.496 41.6998 204.876 38.2229C187.488 34.5845 170.982 28.6862 154.004 23.617C127.398 15.6725 99.1674 10.0128 71.2646 11.6754C61.3414 12.2673 49.7264 13.3104 40.72 18.058C39.2378 18.839 40.5518 21.0866 42.0327 20.3056C49.3734 16.4355 58.8457 15.3427 66.9421 14.6032C93.9293 12.139 121.403 17.1295 147.305 24.3896C164.597 29.2353 181.331 35.6124 198.878 39.5806C214.835 43.1886 231.048 45.6197 247.322 47.245C276.64 50.1728 306.219 50.4888 335.632 48.9931C350.466 48.2384 365.375 47.1912 380.092 45.1092C381.744 44.8746 381.041 42.3663 379.401 42.5981Z" fill="#C08237"/>
<path d="M18.2553 2.99414C16.9083 9.92732 25.5533 16.2479 32.5149 20.1208C33.356 20.5844 34.1708 21.0108 34.9292 21.3998C34.1708 21.771 33.3573 22.1973 32.5425 22.6609C25.5809 26.5338 16.9083 32.8558 18.2553 39.7862C9.77849 34.3735 14.1851 25.9585 27.9952 21.3998C14.1851 16.8219 9.77849 8.40685 18.2553 2.99414Z" fill="#C08237"/>
<path d="M9.91631 24.082C5.6958 24.8767 0 21.3915 0 21.3915C0 21.3915 5.6958 17.9063 9.91631 18.6996C13.0613 19.2915 13.0613 23.4901 9.91631 24.082Z" fill="#C08237"/>
<path d="M856.745 2.99414C858.092 9.92732 849.447 16.2479 842.485 20.1208C841.644 20.5844 840.829 21.0108 840.071 21.3998C840.829 21.771 841.643 22.1973 842.458 22.6609C849.419 26.5338 858.092 32.8558 856.745 39.7862C865.222 34.3735 860.816 25.9585 847.005 21.3998C860.816 16.8219 865.222 8.40685 856.745 2.99414Z" fill="#C08237"/>
<path d="M865.084 24.082C869.304 24.8767 875 21.3915 875 21.3915C875 21.3915 869.304 17.9063 865.084 18.6996C861.939 19.2915 861.939 23.4901 865.084 24.082Z" fill="#C08237"/>
</svg>
