<svg width="875" height="50" viewBox="0 0 875 50" fill="none" xmlns="http://www.w3.org/2000/svg">
<path d="M494.752 18.2564C488.676 13.6371 481.328 17.8315 477.03 21.2215C472.538 24.766 467.212 26.8977 461.709 27.0854C441.994 27.7614 439.699 5.49937 439.699 5.49937C439.699 5.49937 452.311 26.5707 467.227 19.2554C467.227 19.2554 477.627 14.7533 479.449 1.24701C479.449 1.24701 482.732 7.62416 478.688 13.7212C482.478 11.94 488.714 10.2526 494.752 18.2564Z" fill="#C08237"/>
<path d="M376.136 18.2564C382.213 13.6371 389.56 17.8315 393.858 21.2215C398.35 24.766 403.677 26.8977 409.179 27.0854C428.895 27.7614 431.189 5.49937 431.189 5.49937C431.189 5.49937 418.577 26.5707 403.661 19.2554C403.661 19.2554 393.263 14.7533 391.44 1.24701C391.44 1.24701 388.157 7.62416 392.201 13.7212C388.412 11.94 382.176 10.2526 376.136 18.2564Z" fill="#C08237"/>
<path d="M453.934 31.8356C446.967 33.1767 440.613 24.5741 436.72 17.6478C436.254 16.8103 435.825 16.0004 435.435 15.2457C435.062 16.0004 434.633 16.8103 434.167 17.6202C430.274 24.5465 423.922 33.1754 416.954 31.8356C422.394 40.27 430.851 35.8866 435.435 22.1457C440.036 35.8866 448.495 40.2714 453.934 31.8356Z" fill="#C08237"/>
<path d="M432.74 40.1335C431.942 44.3334 435.446 50 435.446 50C435.446 50 438.949 44.3334 438.151 40.1335C437.555 37.0042 433.335 37.0042 432.74 40.1335Z" fill="#C08237"/>
<path d="M494.906 4.98055C534.661 -0.641884 575.819 -1.20893 615.78 1.80441C631.995 3.02686 648.171 5.00401 664.153 8.02839C681.186 11.2515 697.455 16.2599 713.926 21.554C741.99 30.5747 771.787 37.2181 801.44 35.9281C811.566 35.4866 823.76 34.6366 832.966 29.7827C834.445 29.0032 835.762 31.248 834.279 32.0303C827.153 35.786 818.273 36.9863 810.413 37.8514C784.971 40.6509 758.865 36.4883 734.256 30.1594C716.635 25.6283 699.675 18.9697 682.018 14.5808C665.475 10.4692 648.611 7.69863 631.671 5.86082C602.028 2.64741 572.094 2.17142 542.325 3.55254C526.834 4.27138 510.717 5.34756 495.596 7.48753C493.961 7.72209 493.253 5.2151 494.906 4.98055Z" fill="#C08237"/>
<path d="M379.401 7.40195C338.932 1.67741 296.172 1.22623 255.271 4.6328C238.356 6.04152 221.496 8.30016 204.876 11.7771C187.488 15.4155 170.982 21.3138 154.004 26.383C127.398 34.3275 99.1674 39.9872 71.2646 38.3246C61.3414 37.7327 49.7264 36.6896 40.72 31.942C39.2378 31.161 40.5518 28.9134 42.0327 29.6944C49.3734 33.5645 58.8457 34.6573 66.9421 35.3968C93.9293 37.861 121.403 32.8705 147.305 25.6104C164.597 20.7647 181.331 14.3876 198.878 10.4194C214.835 6.81141 231.048 4.38033 247.322 2.75499C276.64 -0.17281 306.219 -0.48877 335.632 1.00687C350.466 1.76159 365.375 2.80881 380.092 4.89083C381.744 5.12539 381.041 7.63374 379.401 7.40195Z" fill="#C08237"/>
<path d="M18.2553 47.0059C16.9083 40.0727 25.5533 33.7521 32.5149 29.8792C33.356 29.4156 34.1708 28.9892 34.9292 28.6002C34.1708 28.229 33.3573 27.8027 32.5425 27.3391C25.5809 23.4662 16.9083 17.1442 18.2553 10.2138C9.77849 15.6265 14.1851 24.0415 27.9952 28.6002C14.1851 33.1781 9.77849 41.5931 18.2553 47.0059Z" fill="#C08237"/>
<path d="M9.91631 25.918C5.6958 25.1233 0 28.6085 0 28.6085C0 28.6085 5.6958 32.0937 9.91631 31.3004C13.0613 30.7085 13.0613 26.5099 9.91631 25.918Z" fill="#C08237"/>
<path d="M856.745 47.0059C858.092 40.0727 849.447 33.7521 842.485 29.8792C841.644 29.4156 840.829 28.9892 840.071 28.6002C840.829 28.229 841.643 27.8027 842.458 27.3391C849.419 23.4662 858.092 17.1442 856.745 10.2138C865.222 15.6265 860.816 24.0415 847.005 28.6002C860.816 33.1781 865.222 41.5931 856.745 47.0059Z" fill="#C08237"/>
<path d="M865.084 25.918C869.304 25.1233 875 28.6085 875 28.6085C875 28.6085 869.304 32.0937 865.084 31.3004C861.939 30.7085 861.939 26.5099 865.084 25.918Z" fill="#C08237"/>
</svg>
