<svg width="58" height="61" viewBox="0 0 58 61" fill="none" xmlns="http://www.w3.org/2000/svg">
<path d="M42.2748 25.7547C42.2834 25.753 42.2903 25.7547 42.2972 25.7599C42.304 25.7668 42.304 25.7754 42.3023 25.7822C42.2404 25.9524 42.2233 26.1363 42.1855 26.3373C42.1047 26.7584 42.0497 27.0883 42.017 27.3324C41.9947 27.5077 41.9483 27.6555 41.9397 27.8239C41.9208 28.1058 41.852 28.3601 41.8383 28.6351C41.8211 28.9496 41.7455 29.2641 41.7386 29.582C41.7317 29.9309 41.6424 30.34 41.6424 30.7043C41.6389 30.9844 41.6304 31.3505 41.6114 31.8076C41.6029 32.0001 41.6149 32.4401 41.6441 33.1309C41.6527 33.3922 41.706 33.6035 41.7558 33.9043C41.7661 33.961 41.8005 34.0899 41.8572 34.2841C42.0961 35.0867 42.7079 35.6315 43.5706 35.6263C43.7889 35.6246 44.0897 35.6298 44.2237 35.6057C44.4231 35.5748 44.662 35.5129 44.9386 35.4235C46.1675 35.0283 47.0388 33.9662 47.5715 32.8388C48.2023 31.512 48.5666 30.1165 48.9241 28.5646C48.9464 28.4615 48.9842 28.2897 49.0323 28.0473C49.1045 27.6727 49.1595 27.494 49.1991 27.2087C49.2197 27.0574 49.2626 26.9286 49.2798 26.7825C49.3004 26.6037 49.3279 26.4319 49.3658 26.2669C49.3898 26.1672 49.3933 26.0005 49.419 25.875C49.4551 25.7101 49.4826 25.5107 49.5032 25.2804C49.5153 25.1481 49.5703 24.9504 49.5789 24.7854C49.5909 24.5758 49.6115 24.397 49.639 24.2475C49.6665 24.0963 49.682 23.945 49.6854 23.7921C49.6923 23.4449 49.7748 23.053 49.7817 22.7437C49.7954 22.2075 49.8229 21.5373 49.8676 20.733C49.8865 20.3858 49.8745 19.8427 49.8521 19.4131C49.8109 18.6534 49.7885 18.1448 49.7834 17.8835C49.7782 17.557 49.7026 17.2167 49.6871 16.8936C49.6785 16.708 49.6596 16.5619 49.6339 16.4536C49.5926 16.2732 49.5909 16.0824 49.5565 15.8693C49.3142 14.4034 48.9224 13.0405 48.3793 11.7791C48.1524 11.248 47.8517 10.686 47.4804 10.0914C46.7363 8.897 45.7825 7.87097 44.619 7.0134C43.6841 6.32596 42.6941 5.72959 41.6011 5.28277C40.9068 4.9992 40.2056 4.76718 39.4976 4.59362C39.4598 4.58502 39.4391 4.55924 39.4357 4.52315C39.422 4.40801 39.3841 4.29801 39.3274 4.19662C38.255 2.29757 36.4075 1.0619 34.2886 0.647718C34.06 0.601315 33.8142 0.570381 33.5547 0.551476C33.1457 0.518823 32.9188 0.481012 32.5699 0.51023C32.4806 0.517104 32.2468 0.536009 31.8705 0.565225C31.6849 0.578974 31.4993 0.606471 31.3171 0.645997C31.0009 0.711305 30.8187 0.752552 30.7689 0.7663C30.0763 0.950191 29.4266 1.21999 28.8114 1.57574C28.7083 1.63589 28.5949 1.71151 28.4677 1.80775C28.4333 1.83181 28.3955 1.84212 28.3543 1.83181C28.2649 1.81462 28.1755 1.78884 28.069 1.78197C27.5431 1.75275 27.0172 1.7476 26.4947 1.77338C26.3401 1.78197 26.2043 1.79572 26.0926 1.81806C25.9173 1.85243 25.7351 1.86446 25.5564 1.90742C24.4513 2.16865 23.4597 2.60173 22.5798 3.20667C20.9127 4.35127 19.6788 5.96158 18.9106 7.8245C18.8951 7.86403 18.8642 7.8795 18.8264 7.87778C18.4861 7.85887 18.2231 7.92246 17.9138 7.95683C17.7746 7.97058 17.6165 7.99808 17.4343 8.03761C15.8429 8.38132 14.2979 9.09109 13.1791 10.3113C12.4023 11.1569 11.8025 12.133 11.3814 13.2415C11.1563 13.8328 10.9844 14.4429 10.8659 15.065C10.804 15.3863 10.7524 15.5977 10.7301 15.8143C10.7077 16.048 10.6493 16.2439 10.639 16.4656C10.6253 16.7904 10.5359 17.1754 10.5324 17.5191C10.5324 17.7116 10.5153 17.9642 10.4774 18.2753C10.4568 18.4678 10.4431 18.6775 10.4414 18.9043C10.4259 19.8564 10.4259 21.2915 10.4414 23.2077C10.4431 23.56 10.4568 23.8625 10.4826 24.1117C10.5153 24.4451 10.5324 24.8541 10.5376 25.3422C10.5428 25.7667 10.6338 26.2324 10.639 26.6208C10.6424 26.9301 10.7249 27.2257 10.737 27.5454C10.7456 27.7723 10.8143 27.9922 10.8332 28.2363C10.8487 28.4477 10.9071 28.6591 10.9449 28.8997C11.0326 29.4256 11.1718 30.0511 11.3608 30.7764C11.5739 31.5893 11.8626 32.3936 12.2699 33.1429C12.4745 33.5192 12.7099 33.863 12.9832 34.1758C13.5005 34.7721 14.2206 35.1485 14.9853 35.3032C15.0678 35.3221 15.2036 35.3444 15.3926 35.3753C15.5645 35.4028 15.702 35.4166 15.8017 35.4114C15.9976 35.4063 16.209 35.42 16.4341 35.3857C16.6421 35.3547 16.8208 35.3307 16.9721 35.3169C17.1697 35.3014 17.3141 35.255 17.5444 35.2104C17.7832 35.1622 18.029 35.0901 18.2799 34.9938C18.9777 34.736 19.538 34.2909 19.9624 33.6654C20.4024 33.014 20.6997 32.2716 20.7856 31.5154C20.7891 31.4793 20.808 31.4707 20.8406 31.4862C21.4129 31.756 22.0265 31.9588 22.6864 32.0911C22.8101 32.1169 22.9597 32.141 23.1384 32.1719C23.5182 32.2355 23.9169 32.2338 24.2743 32.2475C24.5631 32.2578 24.8346 32.2303 25.1663 32.2217C25.345 32.22 25.5083 32.2011 25.6595 32.1719C25.7506 32.153 25.8589 32.1375 25.9843 32.1238C26.0273 32.1186 26.1356 32.098 26.3092 32.0619C26.9588 31.9261 27.5809 31.7491 28.1773 31.5326C28.2305 31.5137 28.2649 31.5292 28.2804 31.5842C28.423 32.0636 28.6121 32.5655 28.851 33.0931C29.327 34.1449 30.1107 35.231 31.2312 35.6435C31.4134 35.7088 31.6489 35.7672 31.9445 35.8153C31.984 35.8222 32.1284 35.8239 32.3724 35.8222C32.8261 35.8171 33.3331 35.6933 33.7163 35.5301C34.8472 35.0471 35.7735 34.1139 36.363 33.0484C36.8047 32.2493 37.102 31.3779 37.2859 30.4809C37.444 29.7075 37.5402 29.2022 37.5746 28.9616C37.609 28.7107 37.6279 28.5853 37.6296 28.5801C37.6657 28.3979 37.6863 28.2708 37.6863 28.1986C37.6863 28.1401 37.7069 27.9872 37.7482 27.7397C37.7946 27.4561 37.786 27.2258 37.8032 26.9371C37.8066 26.8959 37.8272 26.8752 37.8685 26.8735C38.3703 26.8409 38.6487 26.8237 38.7089 26.8202C39.02 26.8117 39.2039 26.7549 39.5012 26.7154C39.5527 26.7103 39.6576 26.6879 39.8157 26.6535C40.5306 26.4972 41.2163 26.2703 41.8711 25.9747C41.9485 25.9403 42.0155 25.9042 42.0756 25.8699C42.1788 25.8028 42.2439 25.7668 42.2748 25.7547ZM29.6207 2.08616C29.6568 2.06382 29.6808 2.05007 29.6843 2.04835C30.1775 1.80774 30.7292 1.6187 31.3444 1.48467C31.6555 1.41593 31.8737 1.40218 32.2587 1.35406C32.7124 1.29563 33.1627 1.30765 33.6129 1.38843C33.6748 1.39874 33.7315 1.40561 33.7865 1.41077C34.0134 1.42967 34.2316 1.47951 34.5616 1.56029C36.1186 1.94182 37.5416 2.93688 38.413 4.28597C38.4267 4.3066 38.4319 4.31863 38.4319 4.3255C38.4319 4.35816 38.4181 4.36847 38.3855 4.36159C38.2067 4.31175 38.0211 4.2791 37.8286 4.26192C37.6173 4.24301 37.4506 4.18974 37.2374 4.17942C36.9092 4.16224 36.5414 4.13302 36.1307 4.09006C36.0069 4.07631 35.6838 4.07115 35.1597 4.07631C34.9208 4.07803 34.7077 4.12099 34.455 4.15193C34.1388 4.1863 33.8364 4.25676 33.5442 4.3616C33.5064 4.37535 33.4771 4.36847 33.4497 4.34097C33.197 4.0849 32.9152 3.8443 32.611 3.61574C31.7053 2.94208 30.712 2.44193 29.6258 2.11887C29.6189 2.11715 29.6137 2.11199 29.6137 2.10512C29.612 2.09824 29.6155 2.09131 29.6207 2.08616ZM32.0697 24.0222C32.0817 24.0067 32.0954 23.9929 32.1092 23.9809C32.446 23.7523 32.7124 23.5599 32.9049 23.4086C33.3277 23.0718 33.6989 22.7074 34.0185 22.3139C34.1285 22.1764 34.1835 22.0011 34.1217 21.8344C33.9996 21.5027 33.5872 21.5388 33.3895 21.7725C33.1059 22.1077 32.8378 22.3826 32.5835 22.5957C32.336 22.802 32.0284 23.0305 31.6606 23.2832C30.9474 23.7678 30.1843 24.1236 29.3817 24.4449C29.0157 24.591 28.6307 24.713 28.2268 24.8093C28.0928 24.8402 27.9587 24.8643 27.8316 24.878C27.5566 24.9055 27.1682 24.9554 26.8966 24.9279C26.522 24.8883 26.2109 24.8797 25.8672 24.799C25.1059 24.6237 24.4098 24.3573 23.7774 24.005C21.9076 22.9601 20.5069 21.2999 19.7542 19.3044C19.5033 18.6445 19.3177 18.0035 19.1991 17.3779C19.151 17.1252 19.1011 16.9585 19.0839 16.754C19.0805 16.6767 19.0564 16.5461 19.0186 16.3605C18.9722 16.1508 18.9911 15.9652 18.9533 15.771C18.9121 15.5648 18.888 15.3242 18.8811 15.0509C18.8777 14.898 18.864 14.6763 18.8416 14.3875C18.7815 13.6125 18.7849 12.858 18.8485 12.1224C18.8674 11.9197 18.8777 11.7684 18.8811 11.667C18.888 11.3439 18.9447 11.0913 18.974 10.8163C18.9929 10.6565 19.0135 10.5241 19.0341 10.4227C19.053 10.3402 19.0839 10.1838 19.1303 9.95356C19.2489 9.36925 19.4311 8.77116 19.6751 8.15936C19.9484 7.47192 20.3145 6.79996 20.775 6.14174C21.4144 5.22746 22.2032 4.45753 23.1398 3.83538C24.0129 3.25278 24.9615 2.8661 25.9789 2.67362C26.1371 2.64096 26.3003 2.62206 26.4636 2.61175C26.8829 2.58425 27.2095 2.53785 27.5051 2.57394C27.7852 2.60831 28.0653 2.60831 28.342 2.65987C28.8233 2.7458 29.2701 2.86094 29.6808 3.00531C30.7824 3.39027 31.8325 3.9488 32.7021 4.72388C32.7949 4.80466 32.8946 4.90434 33.0029 5.0212C33.1318 5.15697 33.2246 5.26008 33.2916 5.33054C33.6302 5.7052 33.9172 6.1142 34.1045 6.55416C34.2042 6.78102 34.2764 7.03363 34.5067 7.08005C34.6991 7.11786 34.8865 7.00099 34.9294 6.80164C34.9466 6.72258 34.9363 6.6229 34.8985 6.51119C34.7198 5.98874 34.4482 5.50579 34.0804 5.06583C34.0529 5.03318 34.0598 5.0074 34.1011 4.99193C34.1715 4.96444 34.2592 4.94381 34.3554 4.93178C34.9879 4.85616 35.5533 4.84242 36.0603 4.89569C36.3146 4.92147 36.5759 4.90257 36.7924 4.93178C37.21 4.99193 37.4901 5.01771 37.8545 5.08302C38.951 5.28066 39.9873 5.55391 40.9858 5.93544C42.3813 6.46819 43.6857 7.27596 44.8114 8.23666C46.389 9.58404 47.4666 11.4281 48.1042 13.3855C48.307 14.0111 48.4772 14.6641 48.6164 15.3396C48.6422 15.4599 48.649 15.5853 48.6817 15.7005C48.704 15.7761 48.7229 15.8654 48.7333 15.9703C48.7453 16.0923 48.7711 16.2384 48.802 16.4154C48.8484 16.6526 48.8329 16.8639 48.8759 17.1045C48.9515 17.5101 48.9326 17.9346 48.9721 18.3437C49.0082 18.7114 49.0289 19.1273 49.0357 19.5913C49.0409 20.2255 49.0392 20.7617 49.0271 21.1948C49.0185 21.5729 48.9996 21.8702 48.9773 22.0902C48.9257 22.537 48.9567 23.0165 48.8897 23.4307C48.8622 23.6008 48.8467 23.7658 48.8398 23.9257C48.8295 24.2333 48.759 24.5169 48.7333 24.8434C48.7178 25.0926 48.6542 25.304 48.637 25.548C48.6267 25.7405 48.5666 25.9364 48.5442 26.1255C48.5339 26.2217 48.5167 26.3437 48.4892 26.4881C48.4274 26.8198 48.3724 27.1154 48.3242 27.368C48.1472 28.2892 47.9204 29.2533 47.6385 30.2604C47.5577 30.5457 47.434 30.9289 47.269 31.4016C47.08 31.9464 46.86 32.4396 46.6125 32.8761C46.1124 33.7629 45.3992 34.471 44.3938 34.7236C44.1205 34.7924 43.873 34.7855 43.5396 34.7872C43.055 34.7906 42.7921 34.4693 42.6494 34.0482C42.5721 33.8093 42.5188 33.567 42.4965 33.3161C42.481 33.1562 42.4621 32.907 42.4398 32.5668C42.414 32.1681 42.4191 31.747 42.4501 31.3002C42.4776 30.9375 42.4776 30.7451 42.4896 30.3996C42.4982 30.116 42.5704 29.7861 42.5807 29.4767C42.591 29.2636 42.5996 29.133 42.6116 29.0866C42.6391 28.9749 42.6683 28.736 42.6975 28.3699C42.7147 28.1809 42.7714 27.9454 42.7903 27.7255C42.811 27.5072 42.8608 27.3388 42.8883 27.1188C42.9003 27.0088 42.9227 26.8937 42.9519 26.7751C42.9845 26.6393 42.9897 26.5036 43.0258 26.3523C43.0447 26.2733 43.0619 26.1736 43.0825 26.0602C43.1134 25.89 43.1788 25.5601 43.2802 25.0702C43.3025 24.962 43.2887 24.8451 43.2406 24.7197C43.1839 24.5719 43.0447 24.522 42.9003 24.5031C42.8453 24.4962 42.7629 24.5272 42.6529 24.5908C42.6065 24.6183 42.5119 24.6647 42.3727 24.7282C42.3521 24.7368 42.3332 24.7506 42.3177 24.7643C42.0428 24.9895 41.8451 25.1459 41.5427 25.2782C41.0718 25.4827 40.5699 25.6511 40.0337 25.7869C39.8756 25.8264 39.7587 25.8539 39.6831 25.8642C39.4099 25.9123 39.2312 25.9639 38.9579 25.9794C38.9081 25.9811 38.817 25.9914 38.6829 26.0086C38.1055 26.0876 37.5263 26.0876 36.9489 26.0052C36.7289 25.9742 36.5312 25.9777 36.3078 25.9364C36.081 25.8952 35.904 25.8574 35.7751 25.8333C34.8539 25.6374 33.9775 25.304 33.1422 24.8262C32.7624 24.6096 32.4049 24.3501 32.0749 24.0494C32.0663 24.0425 32.0628 24.0342 32.0697 24.0222ZM37.0535 26.8871C37.0329 27.1208 37.0364 27.382 36.9848 27.6484C36.9745 27.712 36.9556 27.8426 36.9298 28.0368C36.9229 28.0832 36.9023 28.2259 36.8611 28.4665C36.7648 29.0473 36.6479 29.6454 36.5105 30.2572C36.4812 30.393 36.4452 30.5374 36.4005 30.6903C36.3214 30.9705 36.2819 31.1148 36.2767 31.1234C36.0705 31.7679 35.8265 32.3247 35.5446 32.7973C35.0256 33.6635 34.2814 34.3853 33.3534 34.784C33.2777 34.8149 33.2039 34.8407 33.1385 34.8562C32.9409 34.9078 32.7776 34.9662 32.5783 34.9765C32.4528 34.9834 32.293 34.9834 32.0936 34.9799C31.3581 34.9713 30.693 34.4231 30.2719 33.8697C29.997 33.5071 29.7529 33.0878 29.5467 32.6134C29.282 32.0016 29.1394 31.5565 28.9005 30.8416C28.8077 30.5597 28.5276 30.5597 28.2955 30.6594C28.0515 30.766 27.7989 30.8605 27.5393 30.9412C26.9825 31.1165 26.3947 31.2575 25.7795 31.3606C25.6695 31.3778 25.4959 31.3812 25.3498 31.4018C24.8377 31.474 24.3462 31.4843 23.8718 31.4242C23.5591 31.3846 23.3305 31.3761 23.0469 31.3193C22.662 31.2437 22.356 31.1698 22.1292 31.0994C21.648 30.9516 21.1771 30.7488 20.7131 30.4841C20.5068 30.3673 20.2318 30.3844 20.1047 30.6079C20.0772 30.656 20.0583 30.7368 20.0445 30.8467C20.0084 31.1956 19.9603 31.4998 19.9019 31.7542C19.785 32.2766 19.5444 32.818 19.2488 33.2339C18.8552 33.7941 18.3173 34.1396 17.6608 34.3235C17.4116 34.394 17.2329 34.4369 17.1212 34.4541C16.7431 34.516 16.5317 34.5469 16.4921 34.5538C16.3443 34.5744 16.1003 34.5813 15.7669 34.5744C15.4163 34.5675 15.052 34.4919 14.6739 34.3527C14.1961 34.174 13.8025 33.8852 13.488 33.4865C13.0068 32.873 12.6751 32.158 12.4208 31.4036C12.2472 30.8931 12.1046 30.3913 11.9946 29.8963C11.9379 29.642 11.8726 29.3395 11.8021 28.9855C11.7763 28.8721 11.7694 28.7311 11.7402 28.6315C11.7179 28.5576 11.7007 28.4682 11.6904 28.3668C11.6646 28.1228 11.6045 27.8925 11.5873 27.6501C11.577 27.5316 11.5529 27.3339 11.5082 27.0589C11.4721 26.8269 11.479 26.5898 11.4463 26.3285C11.4017 25.9573 11.381 25.7046 11.381 25.5758C11.3845 25.3317 11.3707 25.0465 11.3398 24.7165C11.2676 23.9448 11.2779 23.0529 11.2728 22.3792C11.2728 22.2658 11.2642 21.9237 11.2453 21.3532C11.2315 20.9528 11.2332 20.5781 11.247 20.231C11.2659 19.8047 11.2745 19.4834 11.2745 19.2703C11.2796 18.6516 11.2865 18.2666 11.3484 17.751C11.3621 17.6324 11.3742 17.5018 11.381 17.354C11.3896 17.1272 11.3965 16.9948 11.4051 16.9553C11.4464 16.7542 11.4721 16.5669 11.4842 16.3968C11.491 16.2748 11.5013 16.1785 11.5202 16.1012C11.577 15.8589 11.5907 15.6252 11.644 15.3673C11.8038 14.5837 12.0135 13.879 12.2713 13.2552C12.5858 12.5007 13.0189 11.7909 13.5671 11.1258C14.2442 10.3078 15.1138 9.68225 16.1691 9.24915C16.6331 9.06182 17.1315 8.90543 17.666 8.77998C17.9478 8.71639 18.2142 8.69576 18.4926 8.63733C18.5184 8.63046 18.5476 8.63046 18.5802 8.63733C18.6026 8.64077 18.6129 8.65452 18.606 8.67686C18.4892 9.04808 18.3809 9.46571 18.2846 9.92974C18.2571 10.0638 18.2417 10.148 18.2365 10.1824C18.2022 10.4178 18.1454 10.588 18.1351 10.8131C18.1265 11.0881 18.0423 11.418 18.0389 11.7033C18.0372 12.1141 17.9873 12.6623 17.989 13.1177C17.989 13.5113 17.9908 13.7501 17.9942 13.8326C18.0217 14.3499 18.0372 14.7452 18.0423 15.015C18.0492 15.3175 18.1214 15.62 18.1317 15.907C18.1403 16.1751 18.2245 16.5068 18.2434 16.7903C18.2451 16.8436 18.2554 16.8934 18.2692 16.945C18.3207 17.1409 18.3396 17.3454 18.3826 17.5448C18.4823 17.9762 18.5442 18.2408 18.5716 18.3439C18.7452 19.0159 18.979 19.6638 19.2694 20.2877C20.2421 22.3723 21.7545 23.9294 23.8049 24.9552C24.3962 25.2508 25.0612 25.476 25.7968 25.6289C26.1078 25.6925 26.3966 25.7303 26.6647 25.7372C26.962 25.7458 27.2559 25.744 27.5395 25.7337C27.7972 25.7251 28.0671 25.689 28.3575 25.6272C28.7116 25.5481 28.9762 25.4777 29.1549 25.4158C29.9008 25.1546 30.6158 24.8452 31.2963 24.4826C31.3204 24.4688 31.3444 24.4723 31.3616 24.4946C31.628 24.7851 31.9322 25.0428 32.2759 25.2645C33.338 25.9588 34.4877 26.4263 35.7251 26.6669C35.885 26.6996 35.9674 26.715 35.9743 26.7168C36.1307 26.7374 36.2132 26.7511 36.227 26.7546C36.4796 26.8182 36.7546 26.8267 36.9969 26.825C37.0399 26.8233 37.0587 26.8441 37.0535 26.8871Z" fill="#C08237" stroke="#C08237"/>
<path d="M41.0496 18.9781C41.1657 18.9806 41.2799 18.9614 41.3882 18.9187C41.4975 18.8769 41.5943 18.8151 41.6794 18.7348C41.7646 18.6546 41.8313 18.561 41.8797 18.454C41.9271 18.3487 41.9532 18.2359 41.9571 18.1197C41.9609 18.0027 41.9426 17.8907 41.901 17.7812C41.8603 17.6734 41.7994 17.5764 41.7191 17.4911C41.6407 17.4067 41.5469 17.3407 41.4405 17.2939C41.335 17.2462 41.2228 17.222 41.1067 17.2187C40.9906 17.2162 40.8774 17.2354 40.7671 17.2772C40.6587 17.3198 40.562 17.3808 40.4768 17.4611C40.3917 17.5413 40.325 17.6349 40.2776 17.7419C40.2282 17.8489 40.2021 17.9609 40.1982 18.0779C40.1944 18.1932 40.2137 18.3061 40.2553 18.4156C40.2969 18.5242 40.3569 18.6203 40.4362 18.7048C40.5155 18.79 40.6084 18.8552 40.7158 18.9037C40.8213 18.9505 40.9325 18.9747 41.0496 18.9781Z" fill="#C08237" stroke="#C08237"/>
<path d="M16.8122 53.9417C18.8288 54.7041 22.0833 55.468 24.3847 55.7177C27.038 55.9952 28.8905 55.9692 31.4632 55.6169C32.0443 55.5383 32.5811 55.456 33.0874 55.3657C34.9885 55.027 36.4727 54.5792 38.3627 53.8072C42.8581 51.9712 46.4238 49.3339 49.9233 45.2559C51.5996 43.288 52.8625 41.4211 54.1461 39.0132C54.8898 37.6133 54.9668 37.307 54.7742 36.4879C54.6398 35.9552 53.7133 35.4441 52.9018 35.4558C52.614 35.4646 52.5856 35.4278 52.5316 35.2984C52.2908 34.7264 52.1275 34.5085 51.7401 34.2376C51.4174 34.0129 51.2015 33.9421 50.7738 33.9218C50.1655 33.9124 49.4927 34.0966 48.9273 34.4335C48.7802 34.5241 48.6738 34.5704 48.6193 34.588C48.4747 34.3351 47.8275 33.9885 47.46 33.9041C46.6627 33.7196 45.7406 34.0399 43.9346 35.1266C40.911 36.9424 38.2135 38.1157 34.6233 39.1755C33.2877 39.5659 31.0511 39.9414 30.4925 39.8709C30.113 39.8281 25.6802 38.0559 23.3056 36.9968C19.3055 35.1912 16.4361 34.3823 13.7145 34.2937C12.5184 34.2549 10.0965 34.6221 9.00216 35.0077C6.09227 36.0313 3.41459 37.7315 2.01482 39.4432C1.55313 40.005 1.04744 40.9224 0.953767 41.3671C0.843362 41.8608 1.04465 42.3026 1.89196 43.4215C5.23585 47.809 10.5348 51.5447 16.8122 53.9417ZM47.0423 35.7242C43.2091 38.4535 39.9548 40.2747 37.632 40.9909C36.3239 41.3994 35.9784 41.3942 33.9148 40.9467L33.5579 40.8707C32.7694 40.7017 32.1961 40.5792 31.9611 40.5033C32.083 40.4725 32.2828 40.4357 32.4907 40.3974L32.6735 40.3643C34.0183 40.1246 35.713 39.6424 37.7102 38.9308C39.9736 38.1232 42.0758 37.1294 44.1362 35.8937C46.0939 34.7223 46.8214 34.4707 47.5157 34.7239C47.6172 34.7623 47.8829 34.8643 47.8952 34.9507C47.9132 35.0956 47.3891 35.4743 47.0423 35.7242ZM51.0878 34.7545C51.3683 34.8678 51.7837 35.3503 51.8405 35.6279C51.8413 35.646 51.7901 35.7437 51.5297 35.8824C51.0912 36.1214 49.7177 37.2694 48.592 38.3398C45.2544 41.5015 41.2535 44.0087 37.3043 45.4166C37.3059 45.4151 37.3074 45.4136 37.3096 45.412C38.2494 44.6569 38.6244 44.184 38.7941 43.5395C38.8683 43.258 38.8992 42.8829 38.8643 42.6869C38.8023 42.3393 38.7444 42.1371 38.2332 41.8555C38.1356 41.8019 37.8276 41.6698 37.8276 41.6698L38.1668 41.5748C40.2703 40.9493 43.7043 39.0262 47.3527 36.4307C48.1379 35.8701 49.0074 35.2818 49.2902 35.1185C49.9421 34.7492 50.6803 34.5988 51.0878 34.7545ZM38.1275 43.2304C38.0079 43.8459 37.4279 44.4762 36.3041 45.2136C34.759 46.2289 32.8332 46.6431 29.867 46.595C26.7278 46.5528 23.525 45.8307 21.509 44.7107C21.0898 44.4795 20.8645 44.4201 20.7312 44.5167C20.6031 44.6081 20.6373 44.7999 20.6486 44.8634C20.6927 45.1105 21.0575 45.3945 22.7373 46.0475C27.979 48.0592 34.5779 47.7185 39.9591 45.1608C43.0591 43.6821 45.9912 41.7484 48.2149 39.7169C51.7216 36.5202 52.4224 36.0268 53.2099 36.2076C53.7341 36.3236 54.0538 36.5653 54.1115 36.8888C54.1781 37.2624 54.054 37.5637 53.1628 39.1915C52.2049 40.9379 51.1157 42.5882 50.0962 43.8394C46.1521 48.691 42.1818 51.6079 36.8204 53.5922C34.0288 54.6226 30.073 55.2413 26.976 55.1328C23.086 54.9901 19.041 54.0969 15.5861 52.6172C11.023 50.6552 7.18548 48.0765 4.18127 44.9517C3.25625 43.996 2.14903 42.6103 1.81262 41.9855C1.61959 41.6308 1.70498 41.3133 2.20734 40.51C3.32515 38.7344 6.54096 36.5814 9.37586 35.709L9.47245 35.679C10.3381 35.4131 10.7166 35.2971 11.1059 35.2277C11.3946 35.1763 11.6898 35.151 12.1944 35.109C13.9108 34.9701 16.0522 35.2173 17.9229 35.7702C19.205 36.1457 20.6647 36.7044 23.3082 37.8321C25.7242 38.8645 30.9274 40.9564 31.6194 41.1731C32.3258 41.3822 34.8441 41.9265 36.1717 42.1385C37.5512 42.3522 37.7966 42.4456 38.0407 42.7026C38.1822 42.8601 38.1905 42.8689 38.1275 43.2304Z" fill="#C08237" stroke="#C08237"/>
</svg>
