<svg width="63" height="61" viewBox="0 0 63 61" fill="none" xmlns="http://www.w3.org/2000/svg">
<path d="M12.4464 54.7361C18.0497 58.1673 21.9939 59.6142 27.5199 60.2655C28.8374 60.42 30.0688 60.5 31.2514 60.5C35.0479 60.5 38.3436 59.6732 42.3678 57.8183C46.0119 56.141 48.9423 54.3241 52.4826 51.5434C55.5797 49.1199 58.7128 45.2258 60.8625 41.1277C61.921 39.1224 61.959 38.4088 61.0895 37.6897C60.7899 37.4417 60.3501 37.3394 59.9286 37.336L59.3457 37.3787L59.2387 36.9741C58.9859 35.9514 58.1903 35.4126 57.1662 35.5739C56.9162 35.6051 56.2893 35.8457 55.7688 36.1114L54.9203 36.5356L54.818 36.3513C54.5937 35.9568 54.2304 35.7407 53.5649 35.6044C52.6547 35.4221 51.9581 35.6424 49.4173 36.928C48.0294 37.6206 47.3036 37.9662 47.1931 38.0089C47.0528 37.9344 46.3297 37.4336 45.2237 36.6095C42.8151 34.8034 42.0202 34.2693 40.7495 33.6038C39.2029 32.792 37.2125 32.1969 36.8703 32.6144C36.7639 32.7459 36.732 32.8678 36.774 32.9776C36.8337 33.1328 37.0295 33.2304 37.3921 33.2867C38.6587 33.471 40.2351 34.1514 41.8311 35.2026C43.1485 36.0619 45.7442 38.0089 47.2771 39.2864C49.5027 41.1447 51.0167 42.269 51.9032 42.7231C51.9947 42.7712 52.0658 42.8118 52.1153 42.8423C51.6938 43.192 49.5963 44.6925 48.8921 45.1249C47.0989 46.2078 44.4965 47.3633 42.4132 48.001L41.9924 48.1291L42.3651 47.7618C43.5443 46.5921 43.9462 45.402 43.4122 44.6545C43.0991 44.2154 42.2113 43.8135 41.2523 43.6773C39.3913 43.4231 38.612 43.2679 36.8642 42.8037C33.906 42.0067 31.1138 40.917 26.9073 38.9177C25.7403 38.3532 24.5739 37.8138 24.4296 37.7663C24.3869 37.7555 24.3537 37.7399 24.33 37.725C24.5746 37.5061 25.6908 36.7037 26.9893 35.8389C28.9973 34.5133 30.4429 33.799 31.9786 33.3727C32.7024 33.1681 32.9416 33.0779 33.0229 32.9166C33.071 32.8211 33.0453 32.7255 33.0209 32.6598C32.9152 32.3982 32.4665 32.3738 31.6845 32.5893C29.8357 33.0888 27.5606 34.3337 24.5245 36.5065L23.4049 37.3007L22.4812 36.9327C21.2071 36.4211 19.0195 35.7847 17.6051 35.5136C14.1501 34.8461 9.36214 35.6044 5.9614 37.3549C3.93167 38.3946 1.43161 40.5944 0.818963 41.8814C0.242234 43.0768 0.379808 43.5607 1.79622 45.3343C4.64394 48.8922 8.52517 52.3187 12.4464 54.7361ZM52.8316 37.8991C52.0245 38.4372 50.9083 39.1089 50.3431 39.3962L49.376 39.8943L48.9592 39.5568C48.7064 39.3549 48.3303 39.037 48.1365 38.8628L47.8715 38.6338L49.0514 38.0347C51.7073 36.6718 52.3403 36.4014 53.0404 36.3323C53.0546 36.3323 53.1447 36.3377 53.6069 36.4685C53.9207 36.5586 54.0827 36.6603 54.1491 36.8114C54.2196 36.9632 54.227 36.9795 52.8316 37.8991ZM58.4952 37.5779C58.4776 37.6342 58.2533 37.8578 57.9029 38.0665C57.6027 38.2509 56.7589 38.9008 56.0277 39.5399L55.9884 39.5738C55.2842 40.179 54.3165 41.0105 53.8184 41.4307L52.9468 42.1694L52.5843 42.0399C52.1695 41.8915 50.3716 40.7469 50.1689 40.5137C50.2008 40.4426 50.6026 40.242 50.7545 40.1654C51.1428 39.9662 52.2529 39.2932 53.224 38.646C55.6733 37.0161 56.843 36.3675 57.5349 36.3675C57.7843 36.3675 57.9727 36.4516 58.1354 36.6054C58.4044 36.8541 58.5664 37.3624 58.4952 37.5779ZM34.0029 49.2108C31.1308 49.2108 30.8665 49.1803 28.3535 48.5568C26.3577 48.0526 24.8057 47.5721 24.2039 47.2712C23.699 47.0116 23.367 46.9364 23.1867 47.0462C23.1243 47.0848 23.0498 47.1634 23.0498 47.322C23.0498 47.7245 24.269 48.2477 25.312 48.5737C26.7684 49.0346 29.5388 49.7143 30.8021 49.921C32.0992 50.127 35.6287 50.1555 37.201 49.9711C42.3163 49.3571 47.1768 47.5328 50.8873 44.8355C51.8083 44.1652 54.351 42.082 56.0209 40.629C58.1584 38.7795 59.0903 38.215 60.0065 38.215C60.279 38.215 60.4558 38.2753 60.6354 38.4278C60.8631 38.6297 60.8631 38.6297 60.7628 39.1272C60.3528 41.0878 57.3736 45.5295 54.3883 48.6334C50.6921 52.4604 43.6135 56.8004 38.2731 58.5143C35.914 59.2645 33.7183 59.6142 31.3653 59.6142C26.9114 59.6142 22.1986 58.6492 18.4353 56.9658C16.1711 55.9533 12.18 53.6328 10.0615 52.0978C7.67804 50.373 4.34982 47.198 2.48409 44.868C1.22355 43.3066 1.23914 43.2618 1.50616 42.5082C1.70066 41.962 1.85247 41.7675 2.85547 40.774C5.384 38.2651 8.12465 36.9727 12.3169 36.3126C13.0001 36.2042 13.8208 36.1513 14.6544 36.1513C15.8383 36.1513 17.0473 36.2571 17.9223 36.4604C20.5985 37.0798 22.5883 37.8354 26.7921 39.8279C31.0264 41.8292 33.9344 42.925 37.1644 43.7376C38.3727 44.0419 39.7356 44.3164 40.3347 44.3773C41.6081 44.5129 42.3102 44.7121 42.6132 45.0252C42.7948 45.2062 42.8287 45.274 42.7833 45.5864C42.6782 46.3962 41.5776 47.5741 40.2778 48.2674C38.8837 49.0088 37.5351 49.2108 34.0029 49.2108ZM39.5282 27.6624C44.609 27.6522 48.396 24.5226 49.9195 19.0772C50.3112 17.715 50.4061 16.897 50.2069 16.5758C49.9975 16.2444 49.7853 16.2586 48.4001 16.5094C46.8902 16.7852 44.7696 17.3782 43.5721 17.8587C40.1565 19.2276 37.6706 21.9188 36.7523 25.243C36.5504 25.9552 36.4257 27.1426 36.6995 27.3093C37.0085 27.4916 38.3829 27.6624 39.5282 27.6624ZM49.4587 17.2243C49.4695 17.2345 49.481 17.267 49.481 17.326C49.481 17.595 49.0432 19.2514 48.7701 20.0097C47.4276 23.7669 44.5284 26.2317 40.8179 26.7726C40.0013 26.8884 38.3822 26.8424 37.8313 26.6851L37.7296 26.6594L38.225 26.1802C39.0186 25.428 40.1931 24.488 41.148 23.8421C41.7382 23.4518 41.9409 23.2708 41.8989 23.0343C41.8724 22.8744 41.7531 22.7321 41.6196 22.7022C41.6095 22.7002 41.5986 22.6995 41.5858 22.6995C41.1107 22.6995 39.1514 24.2372 37.8773 25.3846C37.7005 25.5425 37.5541 25.6638 37.4477 25.7458C37.4531 25.7289 37.4592 25.7099 37.4646 25.6916C37.5012 25.5737 37.5439 25.4354 37.5846 25.3012C38.1159 23.5873 38.8695 22.3593 40.1863 21.0629C41.7694 19.5197 43.3004 18.7031 46.0363 17.9427C47.2222 17.6106 48.9599 17.2392 49.4234 17.2196C49.4336 17.2196 49.4512 17.2182 49.4587 17.2243ZM28.1821 19.0121C26.7826 18.1514 24.0453 17.246 21.527 16.8089C20.1255 16.5595 20.0137 16.5405 19.7914 16.8726L19.7893 16.876C19.481 17.3822 20.0164 19.4797 20.6778 21.1964C21.0831 22.2502 22.1362 23.9106 22.978 24.8228C24.8796 26.8762 27.4698 27.9619 30.4693 27.9619C31.614 27.9619 32.989 27.7905 33.3001 27.6088C33.5725 27.4421 33.4478 26.2548 33.2459 25.5432C32.5038 22.8364 30.7526 20.5783 28.1821 19.0121ZM28.0994 23.3318C28.0567 23.5717 28.2498 23.7439 28.8489 24.1403C29.8038 24.7869 30.979 25.7269 31.7719 26.4784L32.2673 26.9589L32.1636 26.9847C31.6153 27.1419 29.9983 27.188 29.1796 27.0714C25.884 26.5963 23.3243 24.7015 21.7798 21.5922C21.2362 20.4855 20.5165 18.224 20.5165 17.6249L20.5158 17.5801C20.5152 17.5571 20.5145 17.53 20.505 17.5293C20.5728 17.5097 20.8662 17.5645 21.3454 17.6506L21.6503 17.7055C23.0484 17.9515 25.0422 18.5127 26.1896 18.9837C27.5592 19.5353 28.71 20.2916 29.8099 21.3611C31.1267 22.6589 31.881 23.8876 32.4123 25.5988C32.4536 25.7377 32.4977 25.878 32.5343 25.9973C32.5397 26.0135 32.5451 26.0305 32.5492 26.0454C32.4428 25.9634 32.2964 25.8421 32.1195 25.6835C30.8461 24.5361 28.8869 22.9984 28.4098 22.9984C28.3969 22.9984 28.3861 22.9998 28.3759 23.0018C28.2451 23.0303 28.1258 23.1726 28.0994 23.3318ZM34.4983 28.0175C34.4434 32.7371 34.4617 33.0664 34.6142 33.1931C34.6928 33.2596 34.7843 33.2935 34.8765 33.2935C34.9144 33.2935 34.9517 33.288 34.989 33.2765C35.1313 33.2311 35.2417 33.1023 35.2858 32.9316C35.3204 32.794 35.3495 31.8567 35.3495 30.8856C35.3495 29.8473 35.3813 27.5187 35.4193 25.8L35.4776 22.5728L35.8937 22.3424C36.4657 22.0259 37.9221 20.5315 38.4486 19.7224C38.9305 19.0033 39.2965 18.1928 39.7546 16.8306C41.0944 12.8416 40.7637 7.96889 38.9122 4.41635C38.389 3.42148 36.4426 0.542575 36.1031 0.500557C35.9371 0.49107 35.7094 0.604246 35.5623 0.72149L35.5609 0.722845C35.0872 1.11592 33.8396 2.85423 32.8908 4.4421C31.5211 6.73953 30.653 8.89396 30.161 11.2239C29.8763 12.5834 29.858 14.9472 30.121 16.1834C30.636 18.6184 31.8017 20.9395 32.9552 21.8266C33.5346 22.2841 34.276 22.6853 34.5417 22.6853C34.5966 22.6853 34.6135 22.6941 34.6176 22.6887C34.6189 22.6961 34.6216 22.7192 34.6108 22.7795C34.5749 22.9361 34.5254 25.5662 34.4983 28.0175ZM37.035 3.09685C39.0925 6.17364 39.8142 8.62084 39.6956 12.1259C39.6373 13.8961 39.4672 14.9594 39.024 16.3393C38.4053 18.266 37.9248 19.1775 36.8825 20.4068C36.488 20.8765 35.7378 21.498 35.4769 21.6355C35.4545 21.2194 35.4288 19.5346 35.4098 17.1661C35.3949 12.5888 35.3163 12.5116 35.26 12.4553C35.174 12.3699 35.0134 12.336 34.8907 12.3842C34.4563 12.561 34.5796 17.9861 34.6081 19.0711L34.6745 21.8436L34.2109 21.5976C33.3259 21.1212 32.6692 20.3547 32.0138 19.0338C29.8804 14.6972 30.4571 10.0684 33.8321 4.46718C34.5369 3.29813 35.6389 1.77736 35.912 1.51034C36.0489 1.67706 36.4582 2.24226 37.035 3.09685Z" fill="#C08237" stroke="#C08237"/>
</svg>
