<svg width="167" height="16" viewBox="0 0 167 16" fill="none" xmlns="http://www.w3.org/2000/svg">
<path d="M3.22001 8.21997V15.22H1.60001V3.83997C1.60001 1.53997 0.640005 1.43997 5.54323e-06 1.43997V1.21997H3.22001V7.85997H9.96001V1.21997H13.18V1.43997C12.56 1.43997 11.56 1.51997 11.56 3.81997V15.22H9.96001V8.21997H3.22001ZM21.5364 6.01997L22.5164 11.52C23.1564 14.88 23.3164 14.98 24.5964 14.98V15.22H21.5364L20.0164 6.53997C19.5364 6.67997 19.0764 6.79997 18.6964 7.01997C16.9364 7.97997 15.8964 9.85997 15.8964 11.96C15.8964 13.64 16.5564 14.44 17.6964 14.44C18.4764 14.44 19.1364 13.9 19.6564 12.84L19.8964 12.92C19.4164 14.36 18.2164 15.42 16.6764 15.42C15.1564 15.42 14.0764 14.46 14.0764 12.64C14.0764 9.31997 17.5964 6.17997 21.5364 6.01997ZM27.6827 8.59997V10.28C28.2227 7.87997 29.4427 6.01997 31.2827 6.01997C32.4227 6.01997 33.2027 6.81997 33.8027 10.1L34.1627 12.08C34.6427 14.82 34.9227 14.98 36.2027 14.98V15.22H33.0627L32.2427 10.32C31.8427 7.97997 31.4227 6.91997 30.4627 6.91997C29.1227 6.91997 27.7627 9.21997 27.7027 12.66L27.7227 15.22H26.1027V8.87997C26.1027 7.27997 25.7027 6.45997 24.5827 6.45997V6.23997H25.0227C26.9227 6.23997 27.6827 6.67997 27.6827 8.59997ZM43.5572 2.73997L44.0972 6.01997L44.0572 6.03997L44.1172 6.01997L45.0972 11.52C45.7372 14.88 45.8772 14.98 47.1772 14.98V15.22H44.1172L42.5772 6.51997C42.0772 6.65997 41.6172 6.79997 41.2172 7.01997C39.4572 7.97997 38.4172 9.85997 38.4172 11.96C38.4172 13.64 39.0772 14.44 40.2172 14.44C40.9972 14.44 41.6572 13.9 42.1772 12.84L42.4172 12.92C41.9372 14.36 40.7372 15.42 39.1972 15.42C37.6772 15.42 36.5972 14.46 36.5972 12.64C36.5972 9.79997 39.2372 6.97997 42.5372 6.23997L42.1972 3.93997C41.7772 1.59997 41.4772 0.43997 40.0772 0.43997L40.0372 0.21997H40.4972C42.5772 0.21997 43.2372 0.71997 43.5572 2.73997ZM52.6416 6.01997C53.9816 6.01997 54.9616 6.45997 55.5016 7.19997L54.3616 9.53997L54.1616 9.45997C54.3016 7.55997 53.4816 6.41997 52.1016 6.41997C50.5016 6.41997 49.3616 7.75997 49.3616 9.91997C49.3616 12.5 51.0216 14.48 53.2016 14.48C54.4016 14.48 55.7416 13.88 56.4616 12.68L56.6616 12.76C55.9616 14.36 54.2816 15.42 52.3216 15.42C49.6616 15.42 47.7016 13.58 47.7016 10.92C47.7016 8.17997 49.8416 6.01997 52.6416 6.01997ZM59.7373 8.59997L59.7573 10.76C60.1373 8.67997 60.9973 6.01997 63.0973 6.01997C63.8773 6.01997 64.5773 6.35997 64.7973 6.89997L64.0173 8.67997L63.8173 8.59997C63.8973 7.77997 63.5173 7.21997 62.6173 7.21997C60.9773 7.21997 59.8373 9.69997 59.7773 13.12L59.7973 15.22H58.1773V8.87997C58.1773 7.27997 57.7573 6.45997 56.6373 6.45997V6.23997H57.0773C58.9773 6.23997 59.7373 6.67997 59.7373 8.59997ZM72.3294 6.01997L73.3094 11.52C73.9494 14.88 74.1094 14.98 75.3894 14.98V15.22H72.3294L70.8094 6.53997C70.3294 6.67997 69.8694 6.79997 69.4894 7.01997C67.7294 7.97997 66.6894 9.85997 66.6894 11.96C66.6894 13.64 67.3494 14.44 68.4894 14.44C69.2694 14.44 69.9294 13.9 70.4494 12.84L70.6894 12.92C70.2094 14.36 69.0094 15.42 67.4694 15.42C65.9494 15.42 64.8694 14.46 64.8694 12.64C64.8694 9.31997 68.3894 6.17997 72.3294 6.01997ZM80.125 3.53997L79.945 3.45997C79.965 3.33997 79.985 3.21997 79.985 3.11997V2.77997C79.985 1.09997 79.065 0.29997 78.065 0.29997C77.125 0.29997 76.565 0.95997 76.565 2.25997C76.565 4.45997 78.025 6.23997 80.745 6.23997H82.505V6.53997H79.385V15.22H77.785V6.53997H74.625V6.23997H77.725C76.285 5.67997 75.205 4.55997 75.205 3.05997C75.205 1.41997 76.445 -3.00407e-05 78.585 -3.00407e-05C79.685 -3.00407e-05 80.485 0.33997 81.265 1.11997L80.125 3.53997ZM84.0124 12.96V6.51997H82.4524V6.23997H83.3724C84.7324 6.23997 85.2324 5.25997 85.3724 3.07997H85.5924V6.23997H88.5324V6.51997H85.5924V13.02C85.5924 14.16 86.0724 14.72 87.0524 14.72C87.6724 14.72 88.1724 14.36 88.5524 13.64L88.7724 13.72C88.3724 14.84 87.3924 15.5 86.2724 15.5C84.7724 15.5 84.0124 14.56 84.0124 12.96ZM91.5497 11.82L91.4897 11.84C92.0697 13.46 93.3497 14.52 94.9497 14.52C96.0697 14.52 97.4097 14.02 98.1497 13L98.3497 13.08C97.7097 14.46 95.9097 15.46 94.0497 15.46C91.3897 15.46 89.5297 13.52 89.5297 10.82C89.5297 8.07997 91.4897 6.01997 94.2497 6.01997C96.0097 6.01997 97.0897 6.85997 97.0897 8.23997C97.0897 9.95997 95.3697 10.98 91.5497 11.82ZM91.1697 9.81997C91.1697 10.46 91.2497 11.04 91.4097 11.58L91.4897 11.56C94.2297 10.94 95.5697 9.81997 95.5697 8.23997C95.5697 7.11997 94.8497 6.37997 93.7297 6.37997C92.1297 6.37997 91.1697 7.71997 91.1697 9.81997ZM106.07 2.73997L106.61 6.01997L106.57 6.03997L106.63 6.01997L107.61 11.52C108.25 14.88 108.39 14.98 109.69 14.98V15.22H106.63L105.09 6.51997C104.59 6.65997 104.13 6.79997 103.73 7.01997C101.97 7.97997 100.93 9.85997 100.93 11.96C100.93 13.64 101.59 14.44 102.73 14.44C103.51 14.44 104.17 13.9 104.69 12.84L104.93 12.92C104.45 14.36 103.25 15.42 101.71 15.42C100.19 15.42 99.1097 14.46 99.1097 12.64C99.1097 9.79997 101.75 6.97997 105.05 6.23997L104.71 3.93997C104.29 1.59997 103.99 0.43997 102.59 0.43997L102.55 0.21997H103.01C105.09 0.21997 105.75 0.71997 106.07 2.73997ZM117.503 3.57997V5.45997C118.123 2.65997 119.703 1.01997 122.043 1.01997C125.003 1.01997 127.323 3.69997 127.323 7.65997C127.323 12.22 124.283 15.22 119.963 15.22H115.863V4.13997C115.863 2.63997 115.463 1.45997 114.343 1.45997V1.21997H114.803C116.763 1.21997 117.503 1.73997 117.503 3.57997ZM121.623 1.59997C119.263 1.59997 117.563 4.29997 117.503 8.05997V12.98C117.663 14.48 118.523 14.84 119.843 14.84C123.043 14.84 125.503 12.58 125.503 7.93997C125.503 4.09997 123.883 1.59997 121.623 1.59997ZM130.985 11.82L130.925 11.84C131.505 13.46 132.785 14.52 134.385 14.52C135.505 14.52 136.845 14.02 137.585 13L137.785 13.08C137.145 14.46 135.345 15.46 133.485 15.46C130.825 15.46 128.965 13.52 128.965 10.82C128.965 8.07997 130.925 6.01997 133.685 6.01997C135.445 6.01997 136.525 6.85997 136.525 8.23997C136.525 9.95997 134.805 10.98 130.985 11.82ZM130.605 9.81997C130.605 10.46 130.685 11.04 130.845 11.58L130.925 11.56C133.665 10.94 135.005 9.81997 135.005 8.23997C135.005 7.11997 134.285 6.37997 133.165 6.37997C131.565 6.37997 130.605 7.71997 130.605 9.81997ZM143.505 6.01997C144.845 6.01997 145.825 6.45997 146.365 7.19997L145.225 9.53997L145.025 9.45997C145.165 7.55997 144.345 6.41997 142.965 6.41997C141.365 6.41997 140.225 7.75997 140.225 9.91997C140.225 12.5 141.885 14.48 144.065 14.48C145.265 14.48 146.605 13.88 147.325 12.68L147.525 12.76C146.825 14.36 145.145 15.42 143.185 15.42C140.525 15.42 138.565 13.58 138.565 10.92C138.565 8.17997 140.705 6.01997 143.505 6.01997ZM157.581 10.72C157.581 13.52 155.521 15.42 152.981 15.42C150.321 15.42 148.361 13.44 148.361 10.72C148.361 7.97997 150.341 6.01997 152.981 6.01997C155.601 6.01997 157.581 8.05997 157.581 10.72ZM153.741 14.92C155.121 14.92 156.081 13.8 156.081 11.88C156.081 9.17997 154.441 6.51997 152.241 6.51997C150.881 6.51997 149.861 7.55997 149.861 9.47997C149.861 12.04 151.341 14.92 153.741 14.92ZM161.353 8.59997L161.373 10.76C161.753 8.67997 162.613 6.01997 164.713 6.01997C165.493 6.01997 166.193 6.35997 166.413 6.89997L165.633 8.67997L165.433 8.59997C165.513 7.77997 165.133 7.21997 164.233 7.21997C162.593 7.21997 161.453 9.69997 161.393 13.12L161.413 15.22H159.793V8.87997C159.793 7.27997 159.373 6.45997 158.253 6.45997V6.23997H158.693C160.593 6.23997 161.353 6.67997 161.353 8.59997Z" fill="black"/>
</svg>
