<svg width="255" height="25" viewBox="0 0 255 25" fill="none" xmlns="http://www.w3.org/2000/svg">
<path d="M3.86403 1.2V15.72C3.98403 16.992 4.29603 17.616 5.64003 17.616C9.60003 17.616 10.8 16.608 11.76 13.176L12.12 13.224L11.472 18H1.92003V4.344C1.92003 1.584 0.768028 1.464 2.80142e-05 1.464V1.2H3.86403ZM24.4887 12.6C24.4887 15.96 22.0167 18.24 18.9687 18.24C15.7767 18.24 13.4247 15.864 13.4247 12.6C13.4247 9.312 15.8007 6.96 18.9687 6.96C22.1127 6.96 24.4887 9.408 24.4887 12.6ZM19.8807 17.64C21.5367 17.64 22.6887 16.296 22.6887 13.992C22.6887 10.752 20.7207 7.56 18.0807 7.56C16.4487 7.56 15.2247 8.808 15.2247 11.112C15.2247 14.184 17.0007 17.64 19.8807 17.64ZM29.7283 7.224V7.488C29.2723 7.56 28.8163 7.728 28.8163 8.496C28.8163 8.904 28.9363 9.504 29.2963 10.344L31.6963 16.008L34.0483 10.872C34.5283 9.816 34.7683 9.024 34.7683 8.496C34.7683 7.896 34.4563 7.56 33.8323 7.488V7.224H37.0003V7.488C36.2323 7.56 35.8243 8.112 34.4803 10.992L31.0723 18.24H30.7123L27.4963 10.776C26.3443 8.112 25.9603 7.488 25.0003 7.488V7.224H29.7283ZM39.9428 13.92L39.8708 13.944C40.5668 15.888 42.1028 17.16 44.0228 17.16C45.3668 17.16 46.9748 16.56 47.8628 15.336L48.1028 15.432C47.3348 17.088 45.1748 18.288 42.9428 18.288C39.7508 18.288 37.5188 15.96 37.5188 12.72C37.5188 9.432 39.8708 6.96 43.1828 6.96C45.2948 6.96 46.5908 7.968 46.5908 9.624C46.5908 11.688 44.5268 12.912 39.9428 13.92ZM39.4868 11.52C39.4868 12.288 39.5828 12.984 39.7748 13.632L39.8708 13.608C43.1588 12.864 44.7668 11.52 44.7668 9.624C44.7668 8.28 43.9028 7.392 42.5588 7.392C40.6388 7.392 39.4868 9 39.4868 11.52ZM57.3668 3.024L58.0148 6.96L57.9668 6.984L58.0388 6.96L59.2148 13.56C59.9828 17.592 60.1508 17.712 61.7108 17.712V18H58.0388L56.1908 7.56C55.5908 7.728 55.0388 7.896 54.5588 8.16C52.4468 9.312 51.1988 11.568 51.1988 14.088C51.1988 16.104 51.9908 17.064 53.3588 17.064C54.2948 17.064 55.0868 16.416 55.7108 15.144L55.9988 15.24C55.4228 16.968 53.9828 18.24 52.1348 18.24C50.3108 18.24 49.0148 17.088 49.0148 14.904C49.0148 11.496 52.1828 8.112 56.1428 7.224L55.7348 4.464C55.2308 1.656 54.8708 0.263999 53.1908 0.263999L53.1428 -1.43051e-06H53.6948C56.1908 -1.43051e-06 56.9828 0.599999 57.3668 3.024ZM72.9582 18.24C70.7982 18.24 69.6462 17.064 69.1182 17.064C68.8542 17.064 68.5182 17.328 68.5182 18H68.1822V4.056C68.1822 1.632 67.9422 0.263999 66.4782 0.263999V-1.43051e-06C69.9102 -1.43051e-06 70.1022 0.431999 70.1022 4.536V10.704C70.6782 8.928 71.8542 6.96 74.3982 6.96C76.7022 6.96 78.6222 8.568 78.6222 11.832C78.6222 15.504 76.1502 18.24 72.9582 18.24ZM70.0542 13.632C70.0542 16.728 71.3502 17.784 73.1502 17.784C75.5262 17.784 76.7262 15.96 76.7262 13.08C76.7262 10.224 75.5982 8.112 73.5582 8.112C71.4462 8.112 70.0542 10.416 70.0542 13.632ZM84.1168 7.224V7.488C83.5168 7.536 83.2288 7.872 83.2288 8.52C83.2288 9.024 83.3728 9.624 83.6848 10.344L86.0608 15.984L88.4368 10.872C88.9168 9.816 89.1568 9.024 89.1568 8.496C89.1568 7.896 88.8448 7.56 88.2448 7.488V7.224H91.4128V7.488C90.6208 7.56 90.2128 8.184 88.8688 10.992L85.4608 18.24L85.0288 19.224C83.1808 23.256 81.7888 24.696 79.5088 24.696C78.9808 24.696 78.5008 24.6 78.0928 24.384L79.4128 21.624L79.6048 21.72C79.4848 22.56 80.0608 23.184 80.9008 23.184C82.0288 23.184 83.3728 21.912 84.6208 19.152L85.0768 18.12L81.8848 10.776C80.7328 8.04 80.3008 7.488 79.4128 7.488V7.224H84.1168ZM113.457 9.648C113.457 14.832 109.977 18.24 105.561 18.24C101.049 18.24 97.665 14.592 97.665 9.624C97.665 4.656 100.977 0.959999 105.537 0.959999C110.073 0.959999 113.457 4.632 113.457 9.648ZM106.569 17.568C109.545 17.568 111.777 14.904 111.777 11.184C111.777 6.576 108.969 1.656 104.673 1.656C101.865 1.656 99.393 4.032 99.393 7.8C99.393 12.072 101.961 17.568 106.569 17.568ZM116.425 14.328V10.416C116.425 8.304 115.801 7.488 114.577 7.488V7.224H115.129C117.625 7.224 118.297 7.656 118.297 10.248V14.28C118.297 16.272 119.017 17.304 120.241 17.304C122.089 17.304 123.505 14.712 123.697 10.776V10.248C123.697 8.232 123.073 7.488 121.849 7.488V7.224H122.401C124.897 7.224 125.569 7.752 125.569 10.2V14.856C125.569 17.616 126.505 17.712 128.065 17.712V18H123.697V13.632C123.097 16.536 121.681 18.24 119.545 18.24C117.553 18.24 116.425 16.824 116.425 14.328ZM131.383 10.056L131.407 12.648C131.863 10.152 132.895 6.96 135.415 6.96C136.351 6.96 137.191 7.368 137.455 8.016L136.519 10.152L136.279 10.056C136.375 9.072 135.919 8.4 134.839 8.4C132.871 8.4 131.503 11.376 131.431 15.48L131.455 18H129.511V10.392C129.511 8.472 129.007 7.488 127.663 7.488V7.224H128.191C130.471 7.224 131.383 7.752 131.383 10.056ZM152.167 0.959999C154.207 0.959999 156.055 1.704 156.895 2.856L155.431 5.928L155.167 5.856C155.431 3.408 154.063 1.488 151.471 1.488C148.015 1.488 145.735 4.488 145.735 8.544C145.735 13.344 148.807 16.992 152.743 16.992C155.119 16.992 157.231 15.72 158.455 13.608L158.743 13.728C157.591 16.464 154.807 18.24 151.543 18.24C147.127 18.24 143.815 15 143.815 9.936C143.815 4.752 147.343 0.959999 152.167 0.959999ZM160.396 14.328V10.416C160.396 8.304 159.772 7.488 158.548 7.488V7.224H159.1C161.596 7.224 162.268 7.656 162.268 10.248V14.28C162.268 16.272 162.988 17.304 164.212 17.304C166.06 17.304 167.476 14.712 167.668 10.776V10.248C167.668 8.232 167.044 7.488 165.82 7.488V7.224H166.372C168.868 7.224 169.54 7.752 169.54 10.2V14.856C169.54 17.616 170.476 17.712 172.036 17.712V18H167.668V13.632C167.068 16.536 165.652 18.24 163.516 18.24C161.524 18.24 160.396 16.824 160.396 14.328ZM177.586 17.832C179.098 17.832 180.466 17.064 180.466 15.648C180.466 12.456 173.362 13.344 173.362 9.6C173.362 7.896 174.73 6.96 177.226 6.96C178.666 6.96 179.986 7.272 180.586 7.824L179.674 10.008L179.386 9.936C179.578 8.232 178.498 7.344 176.842 7.344C175.522 7.344 174.634 7.848 174.634 8.808C174.634 11.496 181.906 10.872 181.906 14.664C181.906 16.656 179.842 18.24 176.962 18.24C174.658 18.24 172.354 17.304 172.354 16.32L173.026 14.136C173.122 14.136 173.218 14.16 173.314 14.16C173.386 16.2 175.066 17.832 177.586 17.832ZM184.514 15.288V7.56H182.642V7.224H183.746C185.378 7.224 185.978 6.048 186.146 3.432H186.41V7.224H189.938V7.56H186.41V15.36C186.41 16.728 186.986 17.4 188.162 17.4C188.906 17.4 189.506 16.968 189.962 16.104L190.226 16.2C189.746 17.544 188.57 18.336 187.226 18.336C185.426 18.336 184.514 17.208 184.514 15.288ZM202.223 12.6C202.223 15.96 199.751 18.24 196.703 18.24C193.511 18.24 191.159 15.864 191.159 12.6C191.159 9.312 193.535 6.96 196.703 6.96C199.847 6.96 202.223 9.408 202.223 12.6ZM197.615 17.64C199.271 17.64 200.423 16.296 200.423 13.992C200.423 10.752 198.455 7.56 195.815 7.56C194.183 7.56 192.959 8.808 192.959 11.112C192.959 14.184 194.735 17.64 197.615 17.64ZM207.11 10.056V12.072C207.686 9.192 209.126 6.96 211.142 6.96C212.606 6.96 213.662 8.928 214.118 11.64C214.766 9.024 216.326 6.96 218.318 6.96C219.854 6.96 220.862 8.592 221.342 11.832L221.774 14.208C222.35 17.352 222.614 17.712 224.174 17.712V18H220.358L219.398 12.12C218.99 9.408 218.342 8.088 217.31 8.088C216.038 8.088 214.67 10.032 214.286 12.792C214.55 14.64 214.694 15.912 214.886 18H212.894C212.894 16.752 212.15 8.088 210.158 8.088C208.886 8.088 207.254 11.016 207.134 14.952L207.158 18H205.214V10.392C205.214 8.472 204.734 7.488 203.39 7.488V7.224H203.918C206.198 7.224 207.11 7.752 207.11 10.056ZM227.052 13.92L226.98 13.944C227.676 15.888 229.212 17.16 231.132 17.16C232.476 17.16 234.084 16.56 234.972 15.336L235.212 15.432C234.444 17.088 232.284 18.288 230.052 18.288C226.86 18.288 224.628 15.96 224.628 12.72C224.628 9.432 226.98 6.96 230.292 6.96C232.404 6.96 233.7 7.968 233.7 9.624C233.7 11.688 231.636 12.912 227.052 13.92ZM226.596 11.52C226.596 12.288 226.692 12.984 226.884 13.632L226.98 13.608C230.268 12.864 231.876 11.52 231.876 9.624C231.876 8.28 231.012 7.392 229.668 7.392C227.748 7.392 226.596 9 226.596 11.52ZM238.86 10.056L238.884 12.648C239.34 10.152 240.372 6.96 242.892 6.96C243.828 6.96 244.668 7.368 244.932 8.016L243.996 10.152L243.756 10.056C243.852 9.072 243.396 8.4 242.316 8.4C240.348 8.4 238.98 11.376 238.908 15.48L238.932 18H236.988V10.392C236.988 8.472 236.484 7.488 235.14 7.488V7.224H235.668C237.948 7.224 238.86 7.752 238.86 10.056ZM250.526 17.832C252.038 17.832 253.406 17.064 253.406 15.648C253.406 12.456 246.302 13.344 246.302 9.6C246.302 7.896 247.67 6.96 250.166 6.96C251.606 6.96 252.926 7.272 253.526 7.824L252.614 10.008L252.326 9.936C252.518 8.232 251.438 7.344 249.782 7.344C248.462 7.344 247.574 7.848 247.574 8.808C247.574 11.496 254.846 10.872 254.846 14.664C254.846 16.656 252.782 18.24 249.902 18.24C247.598 18.24 245.294 17.304 245.294 16.32L245.966 14.136C246.062 14.136 246.158 14.16 246.254 14.16C246.326 16.2 248.006 17.832 250.526 17.832Z" fill="#121212"/>
</svg>
