<svg width="551" height="32" viewBox="0 0 551 32" fill="none" xmlns="http://www.w3.org/2000/svg">
<path d="M5.78998 13.65V23.1H1.88998V8.45997C1.88998 4.58997 1.22998 2.48997 -2.43783e-05 2.48997V2.09997H1.94998C4.73998 2.09997 5.63998 3.11998 5.78998 6.32998C6.35998 3.08997 7.55998 1.79997 9.74998 1.79997C12.87 1.79997 14.67 4.19997 14.67 7.22997C14.67 10.95 11.94 13.65 7.85998 13.65L7.88998 13.71C10.65 13.8 12.66 14.82 13.71 17.58L14.91 20.67C15.48 22.14 16.2 22.77 17.49 22.77V23.1H11.67L10.05 18.69C8.75998 15.18 7.79998 14.04 6.20998 13.71C5.99998 13.68 5.87998 13.65 5.78998 13.65ZM7.19998 13.26C9.35998 13.26 10.56 11.16 10.56 7.70998C10.56 4.85997 9.68998 2.81997 8.48998 2.81997C6.89998 2.81997 5.78998 6.65997 5.78998 11.58V13.14C6.29998 13.23 6.83998 13.26 7.19998 13.26ZM30.9546 16.32C30.9546 20.43 27.9546 23.4 23.9346 23.4C19.9746 23.4 17.0046 20.37 17.0046 16.32C17.0046 12.09 20.2746 9.29998 24.0246 9.29998C27.9846 9.29998 30.9546 12.36 30.9546 16.32ZM24.7746 22.89C26.0646 22.89 26.8146 21.3 26.8146 18.27C26.8146 13.74 25.1346 9.77997 23.1546 9.77997C21.8346 9.77997 21.1446 11.4 21.1446 14.43C21.1446 18.9 22.7646 22.89 24.7746 22.89ZM38.703 20.91L37.533 23.73C35.133 29.43 33.303 31.47 30.873 31.47C30.243 31.47 29.613 31.32 28.953 31.02L31.323 25.65L31.533 25.77C31.533 27.33 32.193 28.26 33.303 28.26C34.593 28.26 35.643 26.97 37.053 23.73L37.173 23.4L33.303 13.92C32.133 10.95 31.443 10.05 30.393 9.95997V9.62997H37.533V9.95997C36.723 10.14 36.333 10.62 36.333 11.4C36.333 11.79 36.453 12.27 36.663 12.87L39.123 19.17L40.923 14.67C41.373 13.62 41.583 12.69 41.583 11.91C41.583 10.86 41.163 10.2 40.323 9.95997V9.62997H44.283V9.95997C43.623 10.2 42.993 11.22 41.403 14.82L38.673 20.88L38.703 20.91ZM54.438 9.29998L55.638 17.55C56.358 22.53 57.138 22.74 58.188 22.74V23.1H52.578L50.718 10.59C50.448 10.74 50.178 10.92 49.968 11.07C48.378 12.33 47.598 14.46 47.598 17.49C47.598 19.92 48.048 20.91 49.338 20.91C50.148 20.91 50.718 20.46 51.288 19.05L51.588 19.17C50.898 21.72 49.128 23.4 46.998 23.4C44.868 23.4 43.548 21.81 43.548 19.26C43.548 14.34 48.798 9.44998 54.438 9.29998ZM62.8066 5.45998V23.1H58.9666V5.87998C58.9666 2.42998 58.2466 0.929975 56.8966 0.929975V0.599974H58.6066C61.9366 0.599974 62.8066 1.58998 62.8066 5.45998ZM84.5702 2.09997V2.39997L83.0102 8.00997L82.6802 7.91997C82.8302 4.10998 80.7002 2.69998 78.3302 2.69998H75.9902V11.82H76.7102C78.6302 11.82 80.0702 10.29 80.1602 8.09998H80.5802V16.47H80.1602C80.0402 13.95 78.7502 12.42 76.7102 12.42H75.9902V20.25C76.1402 21.9 76.6502 22.47 78.2102 22.47C81.0902 22.47 84.3602 19.92 85.2302 16.47L85.5902 16.53L84.4202 23.1H72.1202V7.28998C72.1202 3.83997 71.3702 2.45997 69.7202 2.45997V2.09997H84.5702ZM91.0945 5.45998V23.1H87.2545V5.87998C87.2545 2.42998 86.5345 0.929975 85.1845 0.929975V0.599974H86.8945C90.2245 0.599974 91.0945 1.58998 91.0945 5.45998ZM104.12 12.78C104.12 15.03 102.32 16.38 97.3101 17.82C98.1201 19.86 99.5001 21.09 101.27 21.09C102.47 21.09 104 20.52 104.81 19.05L105.05 19.17C104.09 21.81 101.72 23.52 99.0501 23.52C95.6301 23.52 93.0201 20.52 93.0201 16.53C93.0201 12.36 95.8701 9.29998 99.8301 9.29998C102.47 9.29998 104.12 10.62 104.12 12.78ZM96.7101 14.25C96.7101 15.45 96.8601 16.53 97.1901 17.46C99.3201 16.71 100.52 14.85 100.52 12.69C100.52 11.04 99.7701 9.89997 98.7201 9.89997C97.4901 9.89997 96.7101 11.61 96.7101 14.25ZM113.374 23.4C112.234 23.4 111.364 23.04 110.794 22.32L110.824 31.2H106.954V14.91C106.954 11.52 106.234 9.95997 104.884 9.95997V9.62997H106.594C109.564 9.62997 110.584 10.47 110.734 13.5C111.454 11.25 112.564 9.29998 114.994 9.29998C117.874 9.29998 119.674 11.91 119.674 15.6C119.674 20.52 116.344 23.4 113.374 23.4ZM113.434 11.31C111.904 11.31 111.034 12.93 110.764 15.72V19.83C111.034 21.99 111.844 22.86 113.164 22.86C115.234 22.86 115.714 20.46 115.714 17.01C115.714 13.2 115.024 11.31 113.434 11.31ZM125.476 5.45998V15.45C126.106 11.94 127.546 9.29998 129.976 9.29998C132.046 9.29998 133.306 11.1 134.056 15.42L134.596 18.39C135.226 22.35 135.946 22.74 137.026 22.74V23.1H131.446L130.426 15.75C129.976 12.51 129.316 11.31 128.386 11.31C126.946 11.31 125.566 14.52 125.476 19.44V23.1H121.636V5.87998C121.636 2.42998 120.916 0.929975 119.566 0.929975V0.599974H121.276C124.606 0.599974 125.476 1.58998 125.476 5.45998ZM147.783 9.29998L148.983 17.55C149.703 22.53 150.483 22.74 151.533 22.74V23.1H145.923L144.063 10.59C143.793 10.74 143.523 10.92 143.313 11.07C141.723 12.33 140.943 14.46 140.943 17.49C140.943 19.92 141.393 20.91 142.683 20.91C143.493 20.91 144.063 20.46 144.633 19.05L144.933 19.17C144.243 21.72 142.473 23.4 140.343 23.4C138.213 23.4 136.893 21.81 136.893 19.26C136.893 14.34 142.143 9.44998 147.783 9.29998ZM156.601 14.49V15.63C157.231 12.03 158.701 9.29998 161.131 9.29998C163.261 9.29998 164.521 11.1 165.241 15.42L165.751 18.39C166.381 22.35 167.071 22.74 168.211 22.74V23.1H162.601L161.611 15.75C161.161 12.51 160.471 11.31 159.541 11.31C158.191 11.31 156.781 14.31 156.631 18.99L156.691 23.1H152.791V14.91C152.791 11.52 152.071 9.95997 150.721 9.95997V9.62997H152.431C155.701 9.62997 156.601 10.56 156.601 14.49ZM169.206 18.18V10.11H167.346V9.62997H167.916C171.156 9.62997 172.446 7.16998 172.776 4.19997H173.016V9.62997H177.036V10.11H173.016V19.11C173.016 20.91 173.646 21.87 174.936 21.87C175.746 21.87 176.586 21.39 177.276 20.07L177.516 20.22C176.796 22.26 175.026 23.55 172.956 23.55C170.286 23.55 169.206 21.54 169.206 18.18ZM193.093 1.79997C195.193 1.79997 197.683 2.42998 198.793 3.86997L196.213 9.65998L195.853 9.53997C196.093 5.48998 194.503 2.54997 191.773 2.54997C188.803 2.54997 186.793 6.02998 186.793 10.59C186.793 16.32 190.003 20.76 194.293 20.76C196.573 20.76 198.913 19.47 200.233 17.04L200.563 17.22C199.213 20.97 195.883 23.4 191.953 23.4C186.793 23.4 182.953 19.14 182.953 13.05C182.953 6.77997 187.033 1.79997 193.093 1.79997ZM214.289 16.32C214.289 20.43 211.289 23.4 207.269 23.4C203.309 23.4 200.339 20.37 200.339 16.32C200.339 12.09 203.609 9.29998 207.359 9.29998C211.319 9.29998 214.289 12.36 214.289 16.32ZM208.109 22.89C209.399 22.89 210.149 21.3 210.149 18.27C210.149 13.74 208.469 9.77997 206.489 9.77997C205.169 9.77997 204.479 11.4 204.479 14.43C204.479 18.9 206.099 22.89 208.109 22.89ZM220.007 5.45998V23.1H216.167V5.87998C216.167 2.42998 215.447 0.929975 214.097 0.929975V0.599974H215.807C219.137 0.599974 220.007 1.58998 220.007 5.45998ZM226.672 5.45998V23.1H222.832V5.87998C222.832 2.42998 222.112 0.929975 220.762 0.929975V0.599974H222.472C225.802 0.599974 226.672 1.58998 226.672 5.45998ZM239.698 12.78C239.698 15.03 237.898 16.38 232.888 17.82C233.698 19.86 235.078 21.09 236.848 21.09C238.048 21.09 239.578 20.52 240.388 19.05L240.628 19.17C239.668 21.81 237.298 23.52 234.628 23.52C231.208 23.52 228.598 20.52 228.598 16.53C228.598 12.36 231.448 9.29998 235.408 9.29998C238.048 9.29998 239.698 10.62 239.698 12.78ZM232.288 14.25C232.288 15.45 232.438 16.53 232.768 17.46C234.898 16.71 236.098 14.85 236.098 12.69C236.098 11.04 235.348 9.89997 234.298 9.89997C233.068 9.89997 232.288 11.61 232.288 14.25ZM248.322 9.29998C250.272 9.29998 251.832 9.92998 252.582 10.89L250.212 15.99L249.912 15.87C249.942 12.18 248.982 9.89997 247.332 9.89997C245.922 9.89997 244.842 11.67 244.842 14.46C244.842 18.15 246.792 20.97 249.552 20.97C250.782 20.97 252.312 20.37 253.242 18.84L253.482 18.96C252.522 21.66 250.062 23.4 247.332 23.4C243.762 23.4 241.152 20.52 241.152 16.53C241.152 12.36 244.092 9.29998 248.322 9.29998ZM255.05 18.18V10.11H253.19V9.62997H253.76C257 9.62997 258.29 7.16998 258.62 4.19997H258.86V9.62997H262.88V10.11H258.86V19.11C258.86 20.91 259.49 21.87 260.78 21.87C261.59 21.87 262.43 21.39 263.12 20.07L263.36 20.22C262.64 22.26 260.87 23.55 258.8 23.55C256.13 23.55 255.05 21.54 255.05 18.18ZM268.58 14.49L268.67 23.1H264.77V14.91C264.77 11.52 264.05 9.95997 262.7 9.95997V9.62997H264.41C267.68 9.62997 268.58 10.56 268.58 14.49ZM268.61 4.79998C268.61 6.11997 267.65 6.98998 266.45 6.98998C265.25 6.98998 264.29 6.11997 264.29 4.79998C264.29 3.50997 265.25 2.57998 266.45 2.57998C267.65 2.57998 268.61 3.50997 268.61 4.79998ZM284.268 16.32C284.268 20.43 281.268 23.4 277.248 23.4C273.288 23.4 270.318 20.37 270.318 16.32C270.318 12.09 273.588 9.29998 277.338 9.29998C281.298 9.29998 284.268 12.36 284.268 16.32ZM278.088 22.89C279.378 22.89 280.128 21.3 280.128 18.27C280.128 13.74 278.448 9.77997 276.468 9.77997C275.148 9.77997 274.458 11.4 274.458 14.43C274.458 18.9 276.078 22.89 278.088 22.89ZM290.436 14.49V15.63C291.066 12.03 292.536 9.29998 294.966 9.29998C297.096 9.29998 298.356 11.1 299.076 15.42L299.586 18.39C300.216 22.35 300.906 22.74 302.046 22.74V23.1H296.436L295.446 15.75C294.996 12.51 294.306 11.31 293.376 11.31C292.026 11.31 290.616 14.31 290.466 18.99L290.526 23.1H286.626V14.91C286.626 11.52 285.906 9.95997 284.556 9.95997V9.62997H286.266C289.536 9.62997 290.436 10.56 290.436 14.49ZM306.354 14.43V13.71H318.444V14.43H306.354ZM334.795 1.79997C336.895 1.79997 339.385 2.42998 340.495 3.86997L337.915 9.65998L337.555 9.53997C337.795 5.48998 336.205 2.54997 333.475 2.54997C330.505 2.54997 328.495 6.02998 328.495 10.59C328.495 16.32 331.705 20.76 335.995 20.76C338.275 20.76 340.615 19.47 341.935 17.04L342.265 17.22C340.915 20.97 337.585 23.4 333.655 23.4C328.495 23.4 324.655 19.14 324.655 13.05C324.655 6.77997 328.735 1.79997 334.795 1.79997ZM347.141 14.49L347.171 16.86C347.741 13.44 348.971 9.29998 351.791 9.29998C352.781 9.29998 353.531 9.74997 353.981 10.38L352.151 14.61L351.851 14.49C351.851 13.26 351.641 12.3 350.291 12.3C348.941 12.3 347.351 15.03 347.201 19.44L347.231 23.1H343.361V14.91C343.361 11.52 342.611 9.95997 341.261 9.95997V9.62997H342.971C346.271 9.62997 347.141 10.56 347.141 14.49ZM364.049 9.29998L365.249 17.55C365.969 22.53 366.749 22.74 367.799 22.74V23.1H362.189L360.329 10.59C360.059 10.74 359.789 10.92 359.579 11.07C357.989 12.33 357.209 14.46 357.209 17.49C357.209 19.92 357.659 20.91 358.949 20.91C359.759 20.91 360.329 20.46 360.899 19.05L361.199 19.17C360.509 21.72 358.739 23.4 356.609 23.4C354.479 23.4 353.159 21.81 353.159 19.26C353.159 14.34 358.409 9.44998 364.049 9.29998ZM374.801 6.92997L374.471 6.80997C374.471 2.48997 373.631 0.659975 372.341 0.659975C371.291 0.659975 370.781 1.58998 370.781 3.44997C370.781 6.77997 372.641 9.62997 376.001 9.62997H377.801V10.08H373.961V23.1H370.121V10.08H365.921V9.62997H370.001C368.591 8.81998 367.721 7.31997 367.721 5.36997C367.721 2.57998 369.851 -2.563e-05 373.571 -2.563e-05C375.251 -2.563e-05 376.241 0.569974 377.171 1.52997L374.801 6.92997ZM378.763 18.18V10.11H376.903V9.62997H377.473C380.713 9.62997 382.003 7.16998 382.333 4.19997H382.573V9.62997H386.593V10.11H382.573V19.11C382.573 20.91 383.203 21.87 384.493 21.87C385.303 21.87 386.143 21.39 386.833 20.07L387.073 20.22C386.353 22.26 384.583 23.55 382.513 23.55C379.843 23.55 378.763 21.54 378.763 18.18ZM390.795 2.45997V2.09997H396.375L400.935 12.3L402.345 9.41997C403.515 7.13998 404.115 5.42997 404.115 4.25997C404.115 3.29997 403.695 2.69998 402.855 2.42998V2.09997H408.675V2.42998C407.595 2.42998 405.045 5.12997 402.825 9.65998L401.265 12.81V23.1H397.425V13.47L394.695 7.16998C393.495 4.34998 391.845 2.45997 390.795 2.45997ZM418.982 16.32C418.982 20.43 415.982 23.4 411.962 23.4C408.002 23.4 405.032 20.37 405.032 16.32C405.032 12.09 408.302 9.29998 412.052 9.29998C416.012 9.29998 418.982 12.36 418.982 16.32ZM412.802 22.89C414.092 22.89 414.842 21.3 414.842 18.27C414.842 13.74 413.162 9.77997 411.182 9.77997C409.862 9.77997 409.172 11.4 409.172 14.43C409.172 18.9 410.792 22.89 412.802 22.89ZM421.13 17.55V14.64C421.13 11.19 420.38 9.95997 419.03 9.95997V9.62997H420.74C424.01 9.62997 424.94 10.29 424.94 14.28V17.49C424.94 19.89 425.78 21.45 427.01 21.45C428.57 21.45 429.53 18.84 429.74 14.4V14.31C429.74 10.95 428.93 9.95997 427.61 9.95997V9.62997H429.38C432.68 9.62997 433.52 10.35 433.52 14.31V17.91C433.52 22.59 435.02 22.74 436.07 22.74V23.1H429.74V17.82C429.05 21.33 427.64 23.4 425.33 23.4C422.9 23.4 421.13 21.27 421.13 17.55ZM440.895 14.49L440.925 16.86C441.495 13.44 442.725 9.29998 445.545 9.29998C446.535 9.29998 447.285 9.74997 447.735 10.38L445.905 14.61L445.605 14.49C445.605 13.26 445.395 12.3 444.045 12.3C442.695 12.3 441.105 15.03 440.955 19.44L440.985 23.1H437.115V14.91C437.115 11.52 436.365 9.95997 435.015 9.95997V9.62997H436.725C440.025 9.62997 440.895 10.56 440.895 14.49ZM459.052 8.03997V10.17C459.772 5.27997 461.242 1.58998 464.152 1.58998C466.312 1.58998 467.782 3.59997 468.262 10.41C468.892 5.33998 470.392 1.58998 473.422 1.58998C475.702 1.58998 476.752 3.44997 477.712 11.13L478.252 15.75C479.062 22.44 479.902 22.74 481.012 22.74V23.1H475.042L474.022 11.67C473.392 4.49998 473.182 2.81997 472.192 2.81997C470.602 2.81997 468.952 7.04997 468.472 13.89L469.012 23.1H465.112C465.022 18.63 464.752 14.25 464.362 9.89997C463.882 4.13997 463.402 2.81997 462.712 2.81997C461.452 2.81997 459.382 7.73997 459.052 15.99L459.082 23.1H455.152V8.96998C455.152 4.85997 454.462 2.48997 452.992 2.48997V2.09997C457.912 2.09997 459.052 2.30998 459.052 8.03997ZM491.76 9.29998L492.96 17.55C493.68 22.53 494.46 22.74 495.51 22.74V23.1H489.9L488.04 10.59C487.77 10.74 487.5 10.92 487.29 11.07C485.7 12.33 484.92 14.46 484.92 17.49C484.92 19.92 485.37 20.91 486.66 20.91C487.47 20.91 488.04 20.46 488.61 19.05L488.91 19.17C488.22 21.72 486.45 23.4 484.32 23.4C482.19 23.4 480.87 21.81 480.87 19.26C480.87 14.34 486.12 9.44998 491.76 9.29998ZM496.768 26.97V14.91C496.768 11.46 496.018 9.95997 494.668 9.95997V9.62997H496.408C499.738 9.62997 500.578 10.65 500.578 14.49V24.63C500.578 28.71 497.578 31.47 493.048 31.47C491.818 31.47 490.918 31.26 490.108 30.9L492.478 25.53L492.688 25.65C492.688 29.25 493.828 30.63 494.998 30.63C496.168 30.63 496.768 29.16 496.768 26.97ZM500.608 4.79998C500.608 6.11997 499.618 6.98998 498.418 6.98998C497.248 6.98998 496.258 6.11997 496.258 4.79998C496.258 3.50997 497.248 2.57998 498.418 2.57998C499.618 2.57998 500.608 3.50997 500.608 4.79998ZM513.476 12.78C513.476 15.03 511.676 16.38 506.666 17.82C507.476 19.86 508.856 21.09 510.626 21.09C511.826 21.09 513.356 20.52 514.166 19.05L514.406 19.17C513.446 21.81 511.076 23.52 508.406 23.52C504.986 23.52 502.376 20.52 502.376 16.53C502.376 12.36 505.226 9.29998 509.186 9.29998C511.826 9.29998 513.476 10.62 513.476 12.78ZM506.066 14.25C506.066 15.45 506.216 16.53 506.546 17.46C508.676 16.71 509.876 14.85 509.876 12.69C509.876 11.04 509.126 9.89997 508.076 9.89997C506.846 9.89997 506.066 11.61 506.066 14.25ZM521.32 22.83C522.91 22.83 523.48 21.87 523.48 20.7C523.48 17.28 515.92 18.15 515.92 13.08C515.92 10.56 517.63 9.29998 520.87 9.29998C522.43 9.29998 524.23 9.56997 524.95 9.89997L523.51 13.5L523.24 13.44C523.24 11.16 522.07 9.80998 520.18 9.80998C519.13 9.80998 518.47 10.41 518.47 11.46C518.47 14.22 526.48 14.01 526.48 18.78C526.48 21.33 523.75 23.4 520.39 23.4C517.63 23.4 514.81 22.17 514.81 20.97L515.62 16.83C515.74 16.83 515.8 16.86 515.92 16.86C515.92 20.07 518.41 22.83 521.32 22.83ZM528.477 18.18V10.11H526.617V9.62997H527.187C530.427 9.62997 531.717 7.16998 532.047 4.19997H532.287V9.62997H536.307V10.11H532.287V19.11C532.287 20.91 532.917 21.87 534.207 21.87C535.017 21.87 535.857 21.39 536.547 20.07L536.787 20.22C536.067 22.26 534.297 23.55 532.227 23.55C529.557 23.55 528.477 21.54 528.477 18.18ZM544.436 20.91L543.266 23.73C540.866 29.43 539.036 31.47 536.606 31.47C535.976 31.47 535.346 31.32 534.686 31.02L537.056 25.65L537.266 25.77C537.266 27.33 537.926 28.26 539.036 28.26C540.326 28.26 541.376 26.97 542.786 23.73L542.906 23.4L539.036 13.92C537.866 10.95 537.176 10.05 536.126 9.95997V9.62997H543.266V9.95997C542.456 10.14 542.066 10.62 542.066 11.4C542.066 11.79 542.186 12.27 542.396 12.87L544.856 19.17L546.656 14.67C547.106 13.62 547.316 12.69 547.316 11.91C547.316 10.86 546.896 10.2 546.056 9.95997V9.62997H550.016V9.95997C549.356 10.2 548.726 11.22 547.136 14.82L544.406 20.88L544.436 20.91Z" fill="#121212"/>
</svg>
