<svg width="69" height="61" viewBox="0 0 69 61" fill="none" xmlns="http://www.w3.org/2000/svg">
<path d="M57.8696 22.914C57.7672 22.8135 57.6972 22.6238 57.7514 22.4784C57.8162 22.3322 57.9916 22.225 58.1626 22.225C58.4773 22.225 62.7553 24.0041 62.9804 24.2282C63.1069 24.3474 63.1491 24.5206 63.0866 24.6781C63.0249 24.8318 62.881 24.9277 62.7086 24.9277C62.4051 24.9277 58.1091 23.1404 57.8696 22.914ZM35.9031 5.88391C35.9324 5.88391 35.9626 5.88016 35.9942 5.87417C36.0484 5.86442 36.2163 5.83518 36.2758 5.68224C36.3843 5.40559 36.0868 4.91527 34.8315 3.29661C34.0567 2.28972 33.1967 1.21761 32.9919 1.00094L32.9904 1.00019C32.711 0.713798 32.4572 0.583346 32.2592 0.621582C32.1786 0.637326 32.0672 0.688308 31.9986 0.851748C31.9324 1.05043 32.3849 1.67945 32.775 2.17352C33.2283 2.74781 33.9686 3.70971 34.4362 4.32223C35.4166 5.60951 35.6425 5.88391 35.9031 5.88391ZM54.039 19.8123C53.475 20.4286 53.1549 21.3478 53.2423 22.0997C53.3183 22.6875 53.9434 24.4899 54.8741 26.8005C55.466 28.2513 56.3244 30.6339 56.4848 31.2742C56.7205 32.1903 56.338 32.491 56.0887 32.5884C55.4675 32.8238 55.469 32.8261 50.9501 29.6248C48.5344 27.9109 46.9718 26.8973 46.1729 26.5276C45.584 26.2667 45.5238 26.26 44.8837 26.3792C43.9763 26.5464 43.5011 26.7518 42.0591 27.6035C40.4905 28.5302 39.1878 29.4463 37.2548 30.984C35.4475 32.4152 34.6433 32.9206 34.1395 32.9206C34.1018 32.9206 34.0665 32.9176 34.0318 32.9123C33.8488 32.8838 33.699 32.7781 33.5732 32.5907C33.4204 32.362 33.382 32.1266 33.4429 31.7772C33.5341 31.2307 34.9302 27.6717 36.0627 25.0972C37.3783 22.1567 37.6042 21.545 37.6712 20.7308L37.7239 20.038L37.2043 19.4885C36.5755 18.8189 34.4723 17.2288 32.089 15.6206C29.1356 13.6271 28.7591 13.3287 28.7591 12.5775C28.7591 11.9312 29.0566 11.5878 29.7222 11.4649C29.9783 11.4161 32.1786 11.4416 34.5303 11.5189C37.1441 11.5931 39.1584 11.6186 39.4303 11.5766C40.0447 11.4896 40.6396 11.228 40.9122 10.9258C41.1871 10.6312 42.2466 8.47647 42.8354 6.93053C43.8731 4.2615 45.3054 1.12765 45.7851 0.715298L45.7858 0.713798C46.1066 0.446896 46.7331 0.425903 47.0983 0.673313C47.566 1.00319 47.9425 2.11429 48.932 6.07584C49.8876 9.85746 50.1556 10.6424 50.7294 11.3224C51.182 11.8682 51.5691 11.9102 54.481 11.7445C58.5218 11.5256 60.5346 11.5436 61.0105 11.8023C61.3757 11.9957 61.5986 12.2596 61.6536 12.5662C61.7116 12.8879 61.5813 13.2365 61.2786 13.5754C61.0685 13.822 60.2319 14.5373 59.5459 15.0861C57.6483 16.5788 54.4991 19.3018 54.039 19.8123ZM58.2055 14.9541C58.7416 14.532 59.454 13.945 59.8795 13.5941L59.9902 13.5034C60.4706 13.0843 60.692 12.8121 60.6438 12.6952C60.5248 12.399 58.8365 12.4553 57.2627 12.5302L57.1068 12.5385C50.8974 12.8549 50.8943 12.8541 50.1714 12.1321L50.1315 12.0931C49.3356 11.3112 49.0607 10.5839 48.0328 6.53543C47.508 4.43544 46.9673 2.45841 46.8273 2.12553L46.8265 2.12403C46.6676 1.72893 46.5456 1.54524 46.4312 1.5295C46.4281 1.5295 46.4251 1.5295 46.4221 1.5295C46.3024 1.5295 46.1194 1.82789 45.6307 2.81903C44.8844 4.32748 44.5817 5.02997 43.6103 7.51682C42.3889 10.6304 41.6773 11.7783 40.6803 12.2393C40.1554 12.477 39.9386 12.4868 34.876 12.4868C32.403 12.4868 30.0814 12.4988 29.6951 12.5805C29.8051 12.9306 31.784 14.2726 32.4512 14.7239C36.0439 17.1763 38.05 18.7695 38.4137 19.46C38.6411 19.9008 38.6494 20.9474 38.4333 21.7481C38.2352 22.4806 37.9641 23.1569 36.9799 25.3671C36.0522 27.4543 34.4354 31.574 34.4113 31.8544C34.4113 31.8597 34.4121 31.8649 34.4121 31.8694C34.6403 31.7682 35.4332 31.146 36.6832 30.1653C39.7699 27.7519 42.3076 26.1303 43.8287 25.5987C44.8174 25.2621 45.8159 25.3333 46.7986 25.8064C47.6812 26.2397 50.0223 27.7879 52.9102 29.8467C54.1949 30.7583 55.283 31.5208 55.5563 31.598C55.5104 31.1954 54.8756 29.3256 53.8711 26.8275L53.7536 26.5306C52.3477 22.9889 52.2528 22.4626 52.2754 21.5292C52.2859 21.0891 52.4787 20.3221 52.9381 19.7036C53.5533 18.8767 55.9607 16.7272 58.2055 14.9541ZM68.4632 44.3052C68.6884 45.5692 67.9647 46.4021 63.9089 49.5495C63.0301 50.2332 61.9495 51.0377 61.5293 51.3323C61.2101 51.5468 60.6754 51.9284 60.204 52.2658L59.7778 52.5694C54.1053 56.6502 46.4974 59.7165 40.3979 60.3815C39.6863 60.4603 38.4521 60.5 37.1749 60.5C35.8993 60.5 34.5793 60.4603 33.6922 60.3815C31.9572 60.2338 28.9526 59.6438 26.8517 59.038C25.1604 58.5455 21.7552 57.2012 20.1038 56.3728C18.1776 55.4146 15.4938 53.6767 13.4237 52.0483C11.7723 50.7416 8.95902 47.8806 7.63595 46.1615C4.48001 42.0357 1.21564 36.4818 0.650118 34.2761C0.394089 33.3007 0.473157 31.9999 0.829339 31.3139C1.12754 30.7418 2.01762 29.9996 3.2699 29.2754C4.95367 28.2857 7.07118 27.596 9.74292 27.1672C10.767 26.9962 11.4508 26.964 12.9312 27.0075C16.5074 27.1102 19.1482 27.7437 22.3509 29.2709C25.5234 30.7936 28.5942 32.9558 32.3081 36.2816C35.3504 39.0106 36.8858 40.1809 37.7834 40.4568C38.9468 40.8137 41.0523 40.9486 44.398 40.8789C48.4967 40.7897 50.8439 40.5078 54.859 39.6209C58.1829 38.8764 59.3749 38.7729 60.4066 39.1403C61.0625 39.3817 61.5324 39.8188 61.6641 40.3099L61.7492 40.6307L62.4556 40.4553C63.8336 40.1044 64.9857 40.2176 65.6989 40.7694C66.1695 41.1331 66.4188 41.6736 66.4188 42.3319C66.4188 42.6153 66.4188 42.6153 66.7651 42.6715C67.6959 42.8267 68.2832 43.3912 68.4632 44.3052ZM65.5136 42.3341C65.5136 41.9488 65.2071 41.5124 64.7832 41.2973L64.7824 41.2965C64.0896 40.9366 62.9857 41.1668 59.1603 42.4743C54.6376 44.0165 49.6639 45.0714 46.1804 45.2273C46.1299 45.2296 46.0712 45.2318 46.0132 45.2348C46.1894 45.345 46.4191 45.5437 46.578 45.7289C47.0404 46.2574 47.3258 47.1609 46.0524 48.4594L45.7361 48.7878L46.1631 48.742C47.2663 48.6326 49.6616 48.1603 51.292 47.7307C53.6866 47.0979 55.4231 46.4831 58.1746 45.2933C62.0474 43.6207 64.6356 42.673 65.5046 42.6078C65.5091 42.556 65.5136 42.4691 65.5136 42.3341ZM46.011 46.6248C45.8965 46.2417 45.2 45.8466 43.5802 45.0474C41.5734 44.0547 37.4671 41.6586 36.1335 40.7035C34.9723 39.8698 32.8029 38.0764 31.3962 36.7869C29.9384 35.4591 27.1763 33.3014 25.4834 32.1708C22.2387 30.0161 18.5804 28.5834 15.1843 28.135C14.4298 28.0316 13.4727 27.9814 12.5238 27.9814C11.4357 27.9814 10.3581 28.0481 9.60964 28.1793C6.6653 28.6981 4.16525 29.6742 2.56883 30.927C1.48071 31.772 1.21865 32.6259 1.60194 34.0751C2.23976 36.4923 5.52898 41.9645 8.78432 46.0243C10.1232 47.6909 12.2994 49.8816 13.8447 51.1187C15.7159 52.6136 18.9404 54.7046 20.6083 55.5076C25.8238 58.0147 30.3969 59.2472 35.4362 59.5051C39.1125 59.6948 41.736 59.3956 45.4635 58.349C50.5299 56.9313 55.1136 54.6829 59.893 51.2731C61.5903 50.0706 65.1198 47.3708 65.8886 46.687C66.1153 46.4839 66.485 46.1765 66.6492 46.0423C67.1951 45.6202 67.5016 45.0429 67.4534 44.5331C67.4218 44.2009 67.2358 43.931 66.9301 43.7751C66.4752 43.5404 65.8306 43.5877 64.4669 43.9513C62.9541 44.3501 62.7485 44.4289 58.963 46.052C52.1557 48.946 47.7587 49.9236 41.5365 49.9236C36.6508 49.9236 33.1651 49.1469 29.1032 47.1534C26.363 45.8151 23.4277 43.8793 23.4646 43.0838C23.4683 43.0066 23.503 42.8657 23.6965 42.7915C23.7839 42.7652 23.9571 42.7007 25.0294 43.5757C28.6695 46.4996 33.9143 48.4976 39.059 48.922C42.779 49.2211 44.9899 48.7038 45.8054 47.3325C46.0072 46.9899 46.0629 46.7987 46.011 46.6248ZM60.7635 40.69C60.7635 40.3361 60.4344 40.1359 60.1581 40.0302C59.2891 39.7108 58.3553 39.8008 55.167 40.507C51.2972 41.3835 48.136 41.7823 44.2557 41.8843C42.9145 41.927 41.2684 41.9068 40.5101 41.8378C40.1291 41.8018 39.8181 41.7756 39.5952 41.7583C40.425 42.2711 42.6148 43.5382 43.1382 43.7991C44.7489 44.5953 48.6902 44.3052 53.9501 43.0021C56.3892 42.4061 56.5782 42.3506 59.0067 41.5184C60.7229 40.9276 60.7635 40.8976 60.7635 40.69ZM28.5151 21.2271C27.5452 21.488 27.2056 21.6079 27.1047 21.8044C27.0497 21.9108 27.0784 22.015 27.1055 22.0863C27.168 22.2467 27.3269 22.3277 27.6236 22.3277C27.9458 22.3277 28.4293 22.2325 29.1289 22.0405C30.0566 21.7841 30.4067 21.6259 30.5167 21.416C30.5626 21.3298 30.5656 21.2331 30.5287 21.1281L30.5265 21.1236C30.3841 20.775 29.9466 20.8357 28.5151 21.2271ZM55.3515 6.10583C55.5842 6.10583 55.7875 5.88466 56.1851 5.33286C56.4863 4.90552 56.8756 4.39795 57.0481 4.19478C57.3049 3.90538 57.4103 3.7187 57.2747 3.49828L57.274 3.49678C57.143 3.28911 56.9916 3.23588 56.8869 3.22838C56.78 3.22163 56.6226 3.25087 56.4622 3.43531C56.0691 3.8634 54.8711 5.57053 54.9087 5.81419C54.9434 5.94989 55.1008 6.06984 55.2807 6.09908C55.3056 6.10358 55.3282 6.10583 55.3515 6.10583Z" fill="#C08237" stroke="#C08237"/>
</svg>
