<svg width="157" height="21" viewBox="0 0 157 21" fill="none" xmlns="http://www.w3.org/2000/svg">
<path d="M4.72006 0.799999C6.16006 0.799999 7.50006 1.28 8.08006 2.02L7.10006 4.12L6.90006 4.06C7.12006 2.42 6.10006 1.12 4.46006 1.12C3.24006 1.12 2.42006 1.76 2.42006 2.96C2.42006 6.42 9.48006 6.48 9.48006 10.86C9.48006 13.28 7.28006 15.2 4.30006 15.2C1.96006 15.2 5.55515e-05 14 5.55515e-05 12.58L0.680056 10.4L0.900056 10.44C0.900056 12.84 2.66006 14.76 4.92006 14.76C6.86006 14.76 8.08006 13.64 8.08006 11.86C8.08006 7.58 1.20006 7.82 1.20006 3.74C1.20006 1.96 2.62006 0.799999 4.72006 0.799999ZM18.2557 5.8L19.2357 11.3C19.8757 14.66 20.0357 14.76 21.3157 14.76V15H18.2557L16.7357 6.32C16.2557 6.46 15.7957 6.58 15.4157 6.8C13.6557 7.76 12.6157 9.64 12.6157 11.74C12.6157 13.42 13.2757 14.22 14.4157 14.22C15.1957 14.22 15.8557 13.68 16.3757 12.62L16.6157 12.7C16.1357 14.14 14.9357 15.2 13.3957 15.2C11.8757 15.2 10.7957 14.24 10.7957 12.42C10.7957 9.1 14.3157 5.96 18.2557 5.8ZM24.0619 2.36V15H22.5019V2.64C22.5019 0.96 21.9819 0.22 20.9619 0.22V-1.19209e-06H21.4019C23.5019 -1.19209e-06 24.0619 0.599999 24.0619 2.36ZM29.6866 6.02V6.24C29.3066 6.3 28.9266 6.44 28.9266 7.08C28.9266 7.42 29.0266 7.92 29.3266 8.62L31.3266 13.34L33.2866 9.06C33.6866 8.18 33.8866 7.52 33.8866 7.08C33.8866 6.58 33.6266 6.3 33.1066 6.24V6.02H35.7466V6.24C35.1066 6.3 34.7666 6.76 33.6466 9.16L30.8066 15.2H30.5066L27.8266 8.98C26.8666 6.76 26.5466 6.24 25.7466 6.24V6.02H29.6866ZM43.1494 5.8L44.1294 11.3C44.7694 14.66 44.9294 14.76 46.2094 14.76V15H43.1494L41.6294 6.32C41.1494 6.46 40.6894 6.58 40.3094 6.8C38.5494 7.76 37.5094 9.64 37.5094 11.74C37.5094 13.42 38.1694 14.22 39.3094 14.22C40.0894 14.22 40.7494 13.68 41.2694 12.62L41.5094 12.7C41.0294 14.14 39.8294 15.2 38.2894 15.2C36.7694 15.2 35.6894 14.24 35.6894 12.42C35.6894 9.1 39.2094 5.96 43.1494 5.8ZM54.1557 5.8L54.6557 8.88C55.2957 12.76 56.7157 14.34 56.7157 16.06C56.7157 18.54 53.8157 20.58 50.2957 20.58C48.1557 20.58 46.7557 19.86 46.7557 18.8C46.7557 17.78 47.8357 16.88 49.7557 16.34L49.8357 16.5C48.8957 16.9 48.3957 17.58 48.3957 18.32C48.3957 19.36 49.6157 20.12 51.3757 20.12C53.4757 20.12 55.2357 18.94 55.2357 16.76C55.2357 14.84 53.7557 13.76 53.0357 9.2L52.5757 6.32C52.1157 6.44 51.6957 6.6 51.3157 6.8C49.5557 7.76 48.5157 9.64 48.5157 11.74C48.5157 13.42 49.1757 14.22 50.3157 14.22C51.0957 14.22 51.7557 13.68 52.2757 12.62L52.5157 12.7C52.0357 14.14 50.8357 15.2 49.2957 15.2C47.7757 15.2 46.6957 14.24 46.6957 12.42C46.6957 9.1 50.2157 5.96 54.1557 5.8ZM59.6643 11.6L59.6043 11.62C60.1843 13.24 61.4643 14.3 63.0643 14.3C64.1843 14.3 65.5243 13.8 66.2643 12.78L66.4643 12.86C65.8243 14.24 64.0243 15.24 62.1643 15.24C59.5043 15.24 57.6443 13.3 57.6443 10.6C57.6443 7.86 59.6043 5.8 62.3643 5.8C64.1243 5.8 65.2043 6.64 65.2043 8.02C65.2043 9.74 63.4843 10.76 59.6643 11.6ZM59.2843 9.6C59.2843 10.24 59.3643 10.82 59.5243 11.36L59.6043 11.34C62.3443 10.72 63.6843 9.6 63.6843 8.02C63.6843 6.9 62.9643 6.16 61.8443 6.16C60.2443 6.16 59.2843 7.5 59.2843 9.6ZM74.1843 2.52L74.7243 5.8L74.6843 5.82L74.7443 5.8L75.7243 11.3C76.3643 14.66 76.5043 14.76 77.8043 14.76V15H74.7443L73.2043 6.3C72.7043 6.44 72.2443 6.58 71.8443 6.8C70.0843 7.76 69.0443 9.64 69.0443 11.74C69.0443 13.42 69.7043 14.22 70.8443 14.22C71.6243 14.22 72.2843 13.68 72.8043 12.62L73.0443 12.7C72.5643 14.14 71.3643 15.2 69.8243 15.2C68.3043 15.2 67.2243 14.24 67.2243 12.42C67.2243 9.58 69.8643 6.76 73.1643 6.02L72.8243 3.72C72.4043 1.38 72.1043 0.22 70.7043 0.22L70.6643 -1.19209e-06H71.1243C73.2043 -1.19209e-06 73.8643 0.5 74.1843 2.52ZM89.1144 3.76L92.3344 12.6C92.9144 14.2 93.5144 14.76 94.6544 14.76V15H91.4544L89.5744 9.78H85.1744L84.7744 10.86C84.2744 12.22 84.0144 13.1 84.0144 13.72C84.0144 14.54 84.5144 14.76 85.5544 14.78V15H81.2144V14.78C82.3344 14.78 83.0544 14.04 84.3344 10.76L87.1944 3.22C86.5744 1.76 86.0344 1.22 85.0744 1.22V0.999999H85.6344C87.8744 0.999999 88.1944 1.34 89.1144 3.76ZM87.5144 4.04L87.3944 3.72L85.2944 9.42H89.4344L87.5144 4.04ZM97.9011 8.38V10.06C98.4411 7.66 99.6611 5.8 101.501 5.8C102.641 5.8 103.421 6.6 104.021 9.88L104.381 11.86C104.861 14.6 105.141 14.76 106.421 14.76V15H103.281L102.461 10.1C102.061 7.76 101.641 6.7 100.681 6.7C99.3411 6.7 97.9811 9 97.9211 12.44L97.9411 15H96.3211V8.66C96.3211 7.06 95.9211 6.24 94.8011 6.24V6.02H95.2411C97.1411 6.02 97.9011 6.46 97.9011 8.38ZM107.696 12.74V6.3H106.136V6.02H107.056C108.416 6.02 108.916 5.04 109.056 2.86H109.276V6.02H112.216V6.3H109.276V12.8C109.276 13.94 109.756 14.5 110.736 14.5C111.356 14.5 111.856 14.14 112.236 13.42L112.456 13.5C112.056 14.62 111.076 15.28 109.956 15.28C108.456 15.28 107.696 14.34 107.696 12.74ZM115.773 8.38L115.813 15H114.193V8.66C114.193 7.06 113.793 6.24 112.673 6.24V6.02H113.113C115.013 6.02 115.773 6.46 115.773 8.38ZM115.933 2.8C115.933 3.36 115.513 3.72 114.973 3.72C114.433 3.72 113.993 3.36 113.993 2.8C113.993 2.26 114.433 1.88 114.973 1.88C115.513 1.88 115.933 2.26 115.933 2.8ZM124.632 20.4V6.28C123.932 6.42 123.212 6.64 122.432 7.04C120.992 7.84 119.652 9.24 119.652 11.62C119.652 13.36 120.332 14.18 121.512 14.18C122.332 14.18 122.972 13.74 123.552 12.6L123.792 12.7C123.292 14.3 121.992 15.2 120.552 15.2C119.152 15.2 117.852 14.34 117.852 12.26C117.852 8.5 122.232 5.94 125.752 5.88H126.212V17.76C126.212 19.76 126.852 20.14 128.272 20.14V20.4H124.632ZM129.23 11.94V8.68C129.23 6.92 128.71 6.24 127.69 6.24V6.02H128.15C130.23 6.02 130.79 6.38 130.79 8.54V11.9C130.79 13.56 131.39 14.42 132.41 14.42C133.95 14.42 135.13 12.26 135.29 8.98V8.54C135.29 6.86 134.77 6.24 133.75 6.24V6.02H134.21C136.29 6.02 136.85 6.46 136.85 8.5V12.38C136.85 14.68 137.63 14.76 138.93 14.76V15H135.29V11.36C134.79 13.78 133.61 15.2 131.83 15.2C130.17 15.2 129.23 14.02 129.23 11.94ZM141.455 11.6L141.395 11.62C141.975 13.24 143.255 14.3 144.855 14.3C145.975 14.3 147.315 13.8 148.055 12.78L148.255 12.86C147.615 14.24 145.815 15.24 143.955 15.24C141.295 15.24 139.435 13.3 139.435 10.6C139.435 7.86 141.395 5.8 144.155 5.8C145.915 5.8 146.995 6.64 146.995 8.02C146.995 9.74 145.275 10.76 141.455 11.6ZM141.075 9.6C141.075 10.24 141.155 10.82 141.315 11.36L141.395 11.34C144.135 10.72 145.475 9.6 145.475 8.02C145.475 6.9 144.755 6.16 143.635 6.16C142.035 6.16 141.075 7.5 141.075 9.6ZM153.155 14.86C154.415 14.86 155.555 14.22 155.555 13.04C155.555 10.38 149.635 11.12 149.635 8C149.635 6.58 150.775 5.8 152.855 5.8C154.055 5.8 155.155 6.06 155.655 6.52L154.895 8.34L154.655 8.28C154.815 6.86 153.915 6.12 152.535 6.12C151.435 6.12 150.695 6.54 150.695 7.34C150.695 9.58 156.755 9.06 156.755 12.22C156.755 13.88 155.035 15.2 152.635 15.2C150.715 15.2 148.795 14.42 148.795 13.6L149.355 11.78C149.435 11.78 149.515 11.8 149.595 11.8C149.655 13.5 151.055 14.86 153.155 14.86Z" fill="black"/>
</svg>
