<svg width="299" height="25" viewBox="0 0 299 25" fill="none" xmlns="http://www.w3.org/2000/svg">
<path d="M5.66401 0.959999C7.39202 0.959999 9.00002 1.536 9.69602 2.424L8.52002 4.944L8.28002 4.872C8.54401 2.904 7.32001 1.344 5.35202 1.344C3.88802 1.344 2.90401 2.112 2.90401 3.552C2.90401 7.704 11.376 7.776 11.376 13.032C11.376 15.936 8.73602 18.24 5.16001 18.24C2.35201 18.24 1.4782e-05 16.8 1.4782e-05 15.096L0.816015 12.48L1.08001 12.528C1.08001 15.408 3.19201 17.712 5.90402 17.712C8.23202 17.712 9.69602 16.368 9.69602 14.232C9.69602 9.096 1.44001 9.384 1.44001 4.488C1.44001 2.352 3.14402 0.959999 5.66401 0.959999ZM16.0748 10.056L16.1228 18H14.1788V10.392C14.1788 8.472 13.6988 7.488 12.3548 7.488V7.224H12.8828C15.1628 7.224 16.0748 7.752 16.0748 10.056ZM16.2668 3.36C16.2668 4.032 15.7628 4.464 15.1148 4.464C14.4668 4.464 13.9388 4.032 13.9388 3.36C13.9388 2.712 14.4668 2.256 15.1148 2.256C15.7628 2.256 16.2668 2.712 16.2668 3.36ZM27.4971 6.96L28.0971 10.656C28.8651 15.312 30.5691 17.208 30.5691 19.272C30.5691 22.248 27.0891 24.696 22.8651 24.696C20.2971 24.696 18.6171 23.832 18.6171 22.56C18.6171 21.336 19.9131 20.256 22.2171 19.608L22.3131 19.8C21.1851 20.28 20.5851 21.096 20.5851 21.984C20.5851 23.232 22.0491 24.144 24.1611 24.144C26.6811 24.144 28.7931 22.728 28.7931 20.112C28.7931 17.808 27.0171 16.512 26.1531 11.04L25.6011 7.584C25.0491 7.728 24.5451 7.92 24.0891 8.16C21.9771 9.312 20.7291 11.568 20.7291 14.088C20.7291 16.104 21.5211 17.064 22.8891 17.064C23.8251 17.064 24.6171 16.416 25.2411 15.144L25.5291 15.24C24.9531 16.968 23.5131 18.24 21.6651 18.24C19.8411 18.24 18.5451 17.088 18.5451 14.904C18.5451 10.92 22.7691 7.152 27.4971 6.96ZM34.7554 10.056V12.072C35.4034 9.192 36.8674 6.96 39.0754 6.96C40.4434 6.96 41.3794 7.92 42.0994 11.856L42.5314 14.232C43.1074 17.52 43.4434 17.712 44.9794 17.712V18H41.2114L40.2274 12.12C39.7474 9.312 39.2434 8.04 38.0914 8.04C36.4834 8.04 34.8514 10.8 34.7794 14.928L34.8034 18H32.8594V10.392C32.8594 8.472 32.3794 7.488 31.0354 7.488V7.224H31.5634C33.8434 7.224 34.7554 7.752 34.7554 10.056ZM54.3808 6.96L55.5568 13.56C56.3248 17.592 56.5168 17.712 58.0528 17.712V18H54.3808L52.5568 7.584C51.9808 7.752 51.4288 7.896 50.9728 8.16C48.8608 9.312 47.6128 11.568 47.6128 14.088C47.6128 16.104 48.4048 17.064 49.7728 17.064C50.7088 17.064 51.5008 16.416 52.1248 15.144L52.4128 15.24C51.8368 16.968 50.3968 18.24 48.5488 18.24C46.7248 18.24 45.4288 17.088 45.4288 14.904C45.4288 10.92 49.6528 7.152 54.3808 6.96ZM59.7163 15.288V7.56H57.8443V7.224H58.9483C60.5803 7.224 61.1803 6.048 61.3483 3.432H61.6123V7.224H65.1403V7.56H61.6123V15.36C61.6123 16.728 62.1883 17.4 63.3643 17.4C64.1083 17.4 64.7083 16.968 65.1643 16.104L65.4283 16.2C64.9483 17.544 63.7723 18.336 62.4283 18.336C60.6283 18.336 59.7163 17.208 59.7163 15.288ZM67.3691 14.328V10.416C67.3691 8.304 66.7451 7.488 65.5211 7.488V7.224H66.0731C68.5691 7.224 69.2411 7.656 69.2411 10.248V14.28C69.2411 16.272 69.9611 17.304 71.1851 17.304C73.0331 17.304 74.4491 14.712 74.6411 10.776V10.248C74.6411 8.232 74.0171 7.488 72.7931 7.488V7.224H73.3451C75.8411 7.224 76.5131 7.752 76.5131 10.2V14.856C76.5131 17.616 77.4491 17.712 79.0091 17.712V18H74.6411V13.632C74.0411 16.536 72.6251 18.24 70.4891 18.24C68.4971 18.24 67.3691 16.824 67.3691 14.328ZM82.327 10.056L82.351 12.648C82.807 10.152 83.839 6.96 86.359 6.96C87.295 6.96 88.135 7.368 88.399 8.016L87.463 10.152L87.223 10.056C87.319 9.072 86.863 8.4 85.783 8.4C83.815 8.4 82.447 11.376 82.375 15.48L82.399 18H80.455V10.392C80.455 8.472 79.951 7.488 78.607 7.488V7.224H79.135C81.415 7.224 82.327 7.752 82.327 10.056ZM91.5902 13.92L91.5182 13.944C92.2142 15.888 93.7502 17.16 95.6702 17.16C97.0142 17.16 98.6222 16.56 99.5102 15.336L99.7502 15.432C98.9822 17.088 96.8222 18.288 94.5902 18.288C91.3982 18.288 89.1662 15.96 89.1662 12.72C89.1662 9.432 91.5182 6.96 94.8302 6.96C96.9422 6.96 98.2382 7.968 98.2382 9.624C98.2382 11.688 96.1742 12.912 91.5902 13.92ZM91.1342 11.52C91.1342 12.288 91.2302 12.984 91.4222 13.632L91.5182 13.608C94.8062 12.864 96.4142 11.52 96.4142 9.624C96.4142 8.28 95.5502 7.392 94.2062 7.392C92.2862 7.392 91.1342 9 91.1342 11.52ZM109.971 9.6V18H108.027V4.344C108.027 1.584 106.875 1.464 106.107 1.464V1.2H109.971V9.168H118.059V1.2H121.923V1.464C121.179 1.464 119.979 1.56 119.979 4.32V18H118.059V9.6H109.971ZM131.951 6.96L133.127 13.56C133.895 17.592 134.087 17.712 135.623 17.712V18H131.951L130.127 7.584C129.551 7.752 128.999 7.896 128.543 8.16C126.431 9.312 125.183 11.568 125.183 14.088C125.183 16.104 125.975 17.064 127.343 17.064C128.279 17.064 129.071 16.416 129.695 15.144L129.983 15.24C129.407 16.968 127.967 18.24 126.119 18.24C124.295 18.24 122.999 17.088 122.999 14.904C122.999 10.92 127.223 7.152 131.951 6.96ZM139.326 10.056V12.072C139.974 9.192 141.438 6.96 143.646 6.96C145.014 6.96 145.95 7.92 146.67 11.856L147.102 14.232C147.678 17.52 148.014 17.712 149.55 17.712V18H145.782L144.798 12.12C144.318 9.312 143.814 8.04 142.662 8.04C141.054 8.04 139.422 10.8 139.35 14.928L139.374 18H137.43V10.392C137.43 8.472 136.95 7.488 135.606 7.488V7.224H136.134C138.414 7.224 139.326 7.752 139.326 10.056ZM158.375 3.024L159.023 6.96L158.975 6.984L159.047 6.96L160.223 13.56C160.991 17.592 161.159 17.712 162.719 17.712V18H159.047L157.199 7.56C156.599 7.728 156.047 7.896 155.567 8.16C153.455 9.312 152.207 11.568 152.207 14.088C152.207 16.104 152.999 17.064 154.367 17.064C155.303 17.064 156.095 16.416 156.719 15.144L157.007 15.24C156.431 16.968 154.991 18.24 153.143 18.24C151.319 18.24 150.023 17.088 150.023 14.904C150.023 11.496 153.191 8.112 157.151 7.224L156.743 4.464C156.239 1.656 155.879 0.263999 154.199 0.263999L154.151 -1.43051e-06H154.703C157.199 -1.43051e-06 157.991 0.599999 158.375 3.024ZM169.373 18.24C167.861 18.24 167.021 17.712 166.445 16.944L166.469 24.48H164.525V10.392C164.525 8.472 164.045 7.488 162.701 7.488V7.224H163.229C165.485 7.224 166.421 7.776 166.421 10.056V10.824C166.997 9.024 168.125 6.96 170.741 6.96C173.021 6.96 174.917 8.64 174.917 11.808C174.917 15.6 172.301 18.24 169.373 18.24ZM166.421 12.888V14.376C166.613 16.872 167.837 17.76 169.469 17.76C171.845 17.76 173.045 15.936 173.045 13.032C173.045 10.224 171.941 8.064 169.949 8.064C168.005 8.064 166.685 10.08 166.421 12.888ZM179.839 10.056L179.887 18H177.943V10.392C177.943 8.472 177.463 7.488 176.119 7.488V7.224H176.647C178.927 7.224 179.839 7.752 179.839 10.056ZM180.031 3.36C180.031 4.032 179.527 4.464 178.879 4.464C178.231 4.464 177.703 4.032 177.703 3.36C177.703 2.712 178.231 2.256 178.879 2.256C179.527 2.256 180.031 2.712 180.031 3.36ZM188.285 6.96C189.893 6.96 191.069 7.488 191.717 8.376L190.349 11.184L190.109 11.088C190.277 8.808 189.293 7.44 187.637 7.44C185.717 7.44 184.349 9.048 184.349 11.64C184.349 14.736 186.341 17.112 188.957 17.112C190.397 17.112 192.005 16.392 192.869 14.952L193.109 15.048C192.269 16.968 190.253 18.24 187.901 18.24C184.709 18.24 182.357 16.032 182.357 12.84C182.357 9.552 184.925 6.96 188.285 6.96ZM196.752 2.832V11.976L199.104 10.128C200.328 9.192 200.952 8.448 200.952 7.944C200.952 7.68 200.76 7.488 200.376 7.392V7.224H204.408V7.44C203.28 7.56 202.08 8.4 199.44 10.32L197.616 11.688C199.128 11.76 200.856 12.6 202.32 14.544L202.968 15.456C204.288 17.304 204.912 17.736 205.848 17.736V18H202.536C200.52 14.352 198.48 12.432 196.752 12.36V18H194.88V3.168C194.88 1.152 194.256 0.263999 193.032 0.263999V-1.43051e-06H193.56C195.984 -1.43051e-06 196.752 0.623999 196.752 2.832ZM208.056 13.92L207.984 13.944C208.68 15.888 210.216 17.16 212.136 17.16C213.48 17.16 215.088 16.56 215.976 15.336L216.216 15.432C215.448 17.088 213.288 18.288 211.056 18.288C207.864 18.288 205.632 15.96 205.632 12.72C205.632 9.432 207.984 6.96 211.296 6.96C213.408 6.96 214.704 7.968 214.704 9.624C214.704 11.688 212.64 12.912 208.056 13.92ZM207.6 11.52C207.6 12.288 207.696 12.984 207.888 13.632L207.984 13.608C211.272 12.864 212.88 11.52 212.88 9.624C212.88 8.28 212.016 7.392 210.672 7.392C208.752 7.392 207.6 9 207.6 11.52ZM225.48 3.024L226.128 6.96L226.08 6.984L226.152 6.96L227.328 13.56C228.096 17.592 228.264 17.712 229.824 17.712V18H226.152L224.304 7.56C223.704 7.728 223.152 7.896 222.672 8.16C220.56 9.312 219.312 11.568 219.312 14.088C219.312 16.104 220.104 17.064 221.472 17.064C222.408 17.064 223.2 16.416 223.824 15.144L224.112 15.24C223.536 16.968 222.096 18.24 220.248 18.24C218.424 18.24 217.128 17.088 217.128 14.904C217.128 11.496 220.296 8.112 224.256 7.224L223.848 4.464C223.344 1.656 222.984 0.263999 221.304 0.263999L221.256 -1.43051e-06H221.808C224.304 -1.43051e-06 225.096 0.599999 225.48 3.024ZM235.599 1.464V1.2H236.247C238.479 1.2 239.175 1.992 239.175 4.032V5.856C239.751 2.568 241.119 0.959999 243.423 0.959999C246.015 0.959999 247.479 3.048 247.479 5.904C247.479 9 245.751 11.184 241.983 11.184C241.095 11.184 240.111 11.064 239.175 10.872V18H237.207V4.704C237.207 2.544 236.679 1.464 235.599 1.464ZM241.311 10.752C244.071 10.752 245.391 9.096 245.391 6.144C245.391 3.552 244.335 1.68 242.727 1.68C240.399 1.68 239.247 5.328 239.175 9.696V10.512C239.871 10.632 240.567 10.752 241.311 10.752ZM252.089 10.056L252.137 18H250.193V10.392C250.193 8.472 249.713 7.488 248.369 7.488V7.224H248.897C251.177 7.224 252.089 7.752 252.089 10.056ZM252.281 3.36C252.281 4.032 251.777 4.464 251.129 4.464C250.481 4.464 249.953 4.032 249.953 3.36C249.953 2.712 250.481 2.256 251.129 2.256C251.777 2.256 252.281 2.712 252.281 3.36ZM257.031 13.92L256.959 13.944C257.655 15.888 259.191 17.16 261.111 17.16C262.455 17.16 264.063 16.56 264.951 15.336L265.191 15.432C264.423 17.088 262.263 18.288 260.031 18.288C256.839 18.288 254.607 15.96 254.607 12.72C254.607 9.432 256.959 6.96 260.271 6.96C262.383 6.96 263.679 7.968 263.679 9.624C263.679 11.688 261.615 12.912 257.031 13.92ZM256.575 11.52C256.575 12.288 256.671 12.984 256.863 13.632L256.959 13.608C260.247 12.864 261.855 11.52 261.855 9.624C261.855 8.28 260.991 7.392 259.647 7.392C257.727 7.392 256.575 9 256.575 11.52ZM272.055 6.96C273.663 6.96 274.839 7.488 275.487 8.376L274.119 11.184L273.879 11.088C274.047 8.808 273.063 7.44 271.407 7.44C269.487 7.44 268.119 9.048 268.119 11.64C268.119 14.736 270.111 17.112 272.727 17.112C274.167 17.112 275.775 16.392 276.639 14.952L276.879 15.048C276.039 16.968 274.023 18.24 271.671 18.24C268.479 18.24 266.127 16.032 266.127 12.84C266.127 9.552 268.695 6.96 272.055 6.96ZM280.282 13.92L280.21 13.944C280.906 15.888 282.442 17.16 284.362 17.16C285.706 17.16 287.314 16.56 288.202 15.336L288.442 15.432C287.674 17.088 285.514 18.288 283.282 18.288C280.09 18.288 277.858 15.96 277.858 12.72C277.858 9.432 280.21 6.96 283.522 6.96C285.634 6.96 286.93 7.968 286.93 9.624C286.93 11.688 284.866 12.912 280.282 13.92ZM279.826 11.52C279.826 12.288 279.922 12.984 280.114 13.632L280.21 13.608C283.498 12.864 285.106 11.52 285.106 9.624C285.106 8.28 284.242 7.392 282.898 7.392C280.978 7.392 279.826 9 279.826 11.52ZM294.322 17.832C295.834 17.832 297.202 17.064 297.202 15.648C297.202 12.456 290.098 13.344 290.098 9.6C290.098 7.896 291.466 6.96 293.962 6.96C295.402 6.96 296.722 7.272 297.322 7.824L296.41 10.008L296.122 9.936C296.314 8.232 295.234 7.344 293.578 7.344C292.258 7.344 291.37 7.848 291.37 8.808C291.37 11.496 298.642 10.872 298.642 14.664C298.642 16.656 296.578 18.24 293.698 18.24C291.394 18.24 289.09 17.304 289.09 16.32L289.762 14.136C289.858 14.136 289.954 14.16 290.05 14.16C290.122 16.2 291.802 17.832 294.322 17.832Z" fill="#121212"/>
</svg>
