<svg width="494" height="73" viewBox="0 0 494 73" fill="none" xmlns="http://www.w3.org/2000/svg">
<path d="M23.66 5.53H23.52V52.5H14.56V5.95C7.28001 6.23 2.87001 10.36 0.70001 16.24L9.78075e-06 16.03L1.40001 3.5H37.03L38.43 16.03L37.73 16.24C35.49 10.29 30.87 5.81 23.66 5.53ZM50.5034 11.34V34.65C51.9734 26.46 55.3334 20.3 61.0034 20.3C65.8334 20.3 68.7734 24.5 70.5234 34.58L71.7834 41.51C73.2534 50.75 74.9334 51.66 77.4534 51.66V52.5H64.4334L62.0534 35.35C61.0034 27.79 59.4634 24.99 57.2934 24.99C53.9334 24.99 50.7134 32.48 50.5034 43.96V52.5H41.5434V12.32C41.5434 4.27 39.8634 0.769998 36.7134 0.769998V-4.17233e-06H40.7034C48.4734 -4.17233e-06 50.5034 2.31 50.5034 11.34ZM103.182 28.42C103.182 33.67 98.9816 36.82 87.2916 40.18C89.1816 44.94 92.4016 47.81 96.5316 47.81C99.3316 47.81 102.902 46.48 104.792 43.05L105.352 43.33C103.112 49.49 97.5816 53.48 91.3516 53.48C83.3716 53.48 77.2816 46.48 77.2816 37.17C77.2816 27.44 83.9316 20.3 93.1716 20.3C99.3316 20.3 103.182 23.38 103.182 28.42ZM85.8916 31.85C85.8916 34.65 86.2416 37.17 87.0116 39.34C91.9816 37.59 94.7816 33.25 94.7816 28.21C94.7816 24.36 93.0316 21.7 90.5816 21.7C87.7116 21.7 85.8916 25.69 85.8916 31.85ZM152.864 3.5V4.2L149.224 17.29L148.454 17.08C148.804 8.19 143.834 4.9 138.304 4.9H132.844V26.18H134.524C139.004 26.18 142.364 22.61 142.574 17.5H143.554V37.03H142.574C142.294 31.15 139.284 27.58 134.524 27.58H132.844V45.85C133.194 49.7 134.384 51.03 138.024 51.03C144.744 51.03 152.374 45.08 154.404 37.03L155.244 37.17L152.514 52.5H123.814V15.61C123.814 7.56 122.064 4.34 118.214 4.34V3.5H152.864ZM168.087 11.34V52.5H159.127V12.32C159.127 4.27 157.447 0.769998 154.297 0.769998V-4.17233e-06H158.287C166.057 -4.17233e-06 168.087 2.31 168.087 11.34ZM198.48 28.42C198.48 33.67 194.28 36.82 182.59 40.18C184.48 44.94 187.7 47.81 191.83 47.81C194.63 47.81 198.2 46.48 200.09 43.05L200.65 43.33C198.41 49.49 192.88 53.48 186.65 53.48C178.67 53.48 172.58 46.48 172.58 37.17C172.58 27.44 179.23 20.3 188.47 20.3C194.63 20.3 198.48 23.38 198.48 28.42ZM181.19 31.85C181.19 34.65 181.54 37.17 182.31 39.34C187.28 37.59 190.08 33.25 190.08 28.21C190.08 24.36 188.33 21.7 185.88 21.7C183.01 21.7 181.19 25.69 181.19 31.85ZM220.073 53.2C217.413 53.2 215.383 52.36 214.053 50.68L214.123 71.4H205.093V33.39C205.093 25.48 203.413 21.84 200.263 21.84V21.07H204.253C211.183 21.07 213.563 23.03 213.913 30.1C215.593 24.85 218.183 20.3 223.853 20.3C230.573 20.3 234.773 26.39 234.773 35C234.773 46.48 227.003 53.2 220.073 53.2ZM220.213 24.99C216.643 24.99 214.613 28.77 213.983 35.28V44.87C214.613 49.91 216.503 51.94 219.583 51.94C224.413 51.94 225.533 46.34 225.533 38.29C225.533 29.4 223.923 24.99 220.213 24.99ZM248.311 11.34V34.65C249.781 26.46 253.141 20.3 258.811 20.3C263.641 20.3 266.581 24.5 268.331 34.58L269.591 41.51C271.061 50.75 272.741 51.66 275.261 51.66V52.5H262.241L259.861 35.35C258.811 27.79 257.271 24.99 255.101 24.99C251.741 24.99 248.521 32.48 248.311 43.96V52.5H239.351V12.32C239.351 4.27 237.671 0.769998 234.521 0.769998V-4.17233e-06H238.511C246.281 -4.17233e-06 248.311 2.31 248.311 11.34ZM300.359 20.3L303.159 39.55C304.839 51.17 306.659 51.66 309.109 51.66V52.5H296.019L291.679 23.31C291.049 23.66 290.419 24.08 289.929 24.43C286.219 27.37 284.399 32.34 284.399 39.41C284.399 45.08 285.449 47.39 288.459 47.39C290.349 47.39 291.679 46.34 293.009 43.05L293.709 43.33C292.099 49.28 287.969 53.2 282.999 53.2C278.029 53.2 274.949 49.49 274.949 43.54C274.949 32.06 287.199 20.65 300.359 20.3ZM320.936 32.41V35.07C322.406 26.67 325.836 20.3 331.506 20.3C336.476 20.3 339.416 24.5 341.096 34.58L342.286 41.51C343.756 50.75 345.366 51.66 348.026 51.66V52.5H334.936L332.626 35.35C331.576 27.79 329.966 24.99 327.796 24.99C324.646 24.99 321.356 31.99 321.006 42.91L321.146 52.5H312.046V33.39C312.046 25.48 310.366 21.84 307.216 21.84V21.07H311.206C318.836 21.07 320.936 23.24 320.936 32.41ZM350.346 41.02V22.19H346.006V21.07H347.336C354.896 21.07 357.906 15.33 358.676 8.4H359.236V21.07H368.616V22.19H359.236V43.19C359.236 47.39 360.706 49.63 363.716 49.63C365.606 49.63 367.566 48.51 369.176 45.43L369.736 45.78C368.056 50.54 363.926 53.55 359.096 53.55C352.866 53.55 350.346 48.86 350.346 41.02ZM407.764 2.8C413.014 2.8 418.474 4.27 420.714 6.51L414.694 20.16L413.854 19.74C414.414 10.78 410.774 4.55 404.054 4.55C397.544 4.55 391.944 10.92 391.944 24.57C391.944 38.71 397.824 51.59 405.874 51.59C410.424 51.59 413.504 47.32 413.504 41.37V36.75C413.504 33.6 411.894 31.99 408.604 31.85V30.66H426.314V31.99C423.304 32.27 422.114 33.39 422.114 35.91V52.15H421.274C421.274 50.12 420.294 48.86 418.614 48.86C417.564 48.86 416.374 49.28 414.904 50.12C412.174 51.73 408.954 53.2 403.984 53.2C391.454 53.2 382.424 43.12 382.424 29.05C382.424 14.28 392.084 2.8 407.764 2.8ZM429.891 39.55V32.76C429.891 24.71 428.141 21.84 424.991 21.84V21.07H428.981C436.611 21.07 438.781 22.61 438.781 31.92V39.41C438.781 45.01 440.741 48.65 443.611 48.65C447.251 48.65 449.491 42.56 449.981 32.2V31.99C449.981 24.15 448.091 21.84 445.011 21.84V21.07H449.141C456.841 21.07 458.801 22.75 458.801 31.99V40.39C458.801 51.31 462.301 51.66 464.751 51.66V52.5H449.981V40.18C448.371 48.37 445.081 53.2 439.691 53.2C434.021 53.2 429.891 48.23 429.891 39.55ZM480.25 47.39L477.52 53.97C471.92 67.27 467.65 72.03 461.98 72.03C460.51 72.03 459.04 71.68 457.5 70.98L463.03 58.45L463.52 58.73C463.52 62.37 465.06 64.54 467.65 64.54C470.66 64.54 473.11 61.53 476.4 53.97L476.68 53.2L467.65 31.08C464.92 24.15 463.31 22.05 460.86 21.84V21.07H477.52V21.84C475.63 22.26 474.72 23.38 474.72 25.2C474.72 26.11 475 27.23 475.49 28.63L481.23 43.33L485.43 32.83C486.48 30.38 486.97 28.21 486.97 26.39C486.97 23.94 485.99 22.4 484.03 21.84V21.07H493.27V21.84C491.73 22.4 490.26 24.78 486.55 33.18L480.18 47.32L480.25 47.39Z" fill="#121212"/>
</svg>
