<svg width="632" height="74" viewBox="0 0 632 74" fill="none" xmlns="http://www.w3.org/2000/svg">
<path d="M23.66 6.93002H23.52V53.9H14.56V7.35002C7.27998 7.63002 2.86998 11.76 0.699979 17.64L-2.07368e-05 17.43L1.39998 4.90002H37.03L38.43 17.43L37.73 17.64C35.49 11.69 30.87 7.21002 23.66 6.93002ZM50.5033 12.74V36.05C51.9733 27.86 55.3333 21.7 61.0033 21.7C65.8333 21.7 68.7733 25.9 70.5233 35.98L71.7833 42.91C73.2533 52.15 74.9333 53.06 77.4533 53.06V53.9H64.4333L62.0533 36.75C61.0033 29.19 59.4633 26.39 57.2933 26.39C53.9333 26.39 50.7133 33.88 50.5033 45.36V53.9H41.5433V13.72C41.5433 5.67002 39.8633 2.17002 36.7133 2.17002V1.40002H40.7033C48.4733 1.40002 50.5033 3.71002 50.5033 12.74ZM103.182 29.82C103.182 35.07 98.9816 38.22 87.2916 41.58C89.1816 46.34 92.4016 49.21 96.5316 49.21C99.3316 49.21 102.902 47.88 104.792 44.45L105.352 44.73C103.112 50.89 97.5816 54.88 91.3516 54.88C83.3716 54.88 77.2816 47.88 77.2816 38.57C77.2816 28.84 83.9316 21.7 93.1716 21.7C99.3316 21.7 103.182 24.78 103.182 29.82ZM85.8916 33.25C85.8916 36.05 86.2416 38.57 87.0116 40.74C91.9816 38.99 94.7816 34.65 94.7816 29.61C94.7816 25.76 93.0316 23.1 90.5816 23.1C87.7116 23.1 85.8916 27.09 85.8916 33.25ZM142.493 14.63L150.613 41.93C152.923 49.84 155.863 53.06 159.783 53.06V53.9H144.803L139.343 35.63H126.883L125.903 39.06C124.783 42.91 124.223 45.92 124.223 48.02C124.223 51.59 125.693 53.13 128.703 53.13V53.9H114.913V53.13C118.203 53.13 121.423 48.58 124.433 38.71L132.483 12.74C130.593 7.42002 128.633 5.67002 125.553 5.67002V4.90002H129.403C138.433 4.90002 139.833 6.16002 142.493 14.63ZM133.393 15.61C133.183 15.26 133.253 14.91 133.043 14.63L127.303 34.37H138.993L133.393 15.61ZM170.839 33.81L170.909 39.34C172.239 31.36 175.109 21.7 181.689 21.7C183.999 21.7 185.749 22.75 186.799 24.22L182.529 34.09L181.829 33.81C181.829 30.94 181.339 28.7 178.189 28.7C175.039 28.7 171.329 35.07 170.979 45.36L171.049 53.9H162.019V34.79C162.019 26.88 160.269 23.24 157.119 23.24V22.47H161.109C168.809 22.47 170.839 24.64 170.839 33.81ZM191.37 42.42V23.59H187.03V22.47H188.36C195.92 22.47 198.93 16.73 199.7 9.80002H200.26V22.47H209.64V23.59H200.26V44.59C200.26 48.79 201.73 51.03 204.74 51.03C206.63 51.03 208.59 49.91 210.2 46.83L210.76 47.18C209.08 51.94 204.95 54.95 200.12 54.95C193.89 54.95 191.37 50.26 191.37 42.42ZM255.717 38.08C255.717 47.67 248.717 54.6 239.337 54.6C230.097 54.6 223.167 47.53 223.167 38.08C223.167 28.21 230.797 21.7 239.547 21.7C248.787 21.7 255.717 28.84 255.717 38.08ZM241.297 53.41C244.307 53.41 246.057 49.7 246.057 42.63C246.057 32.06 242.137 22.82 237.517 22.82C234.437 22.82 232.827 26.6 232.827 33.67C232.827 44.1 236.607 53.41 241.297 53.41ZM273.8 16.17L273.03 15.89C273.03 5.81002 271.07 1.54002 268.06 1.54002C265.61 1.54002 264.42 3.71002 264.42 8.05002C264.42 15.82 268.76 22.47 276.6 22.47H280.8V23.52H271.84V53.9H262.88V23.52H253.08V22.47H262.6C259.31 20.58 257.28 17.08 257.28 12.53C257.28 6.02002 262.25 2.15769e-05 270.93 2.15769e-05C274.85 2.15769e-05 277.16 1.33002 279.33 3.57002L273.8 16.17ZM314.324 14.63L322.444 41.93C324.754 49.84 327.694 53.06 331.614 53.06V53.9H316.634L311.174 35.63H298.714L297.734 39.06C296.614 42.91 296.054 45.92 296.054 48.02C296.054 51.59 297.524 53.13 300.534 53.13V53.9H286.744V53.13C290.034 53.13 293.254 48.58 296.264 38.71L304.314 12.74C302.424 7.42002 300.464 5.67002 297.384 5.67002V4.90002H301.234C310.264 4.90002 311.664 6.16002 314.324 14.63ZM305.224 15.61C305.014 15.26 305.084 14.91 304.874 14.63L299.134 34.37H310.824L305.224 15.61ZM331.656 40.95V34.16C331.656 26.11 329.906 23.24 326.756 23.24V22.47H330.746C338.376 22.47 340.546 24.01 340.546 33.32V40.81C340.546 46.41 342.506 50.05 345.376 50.05C349.016 50.05 351.256 43.96 351.746 33.6V33.39C351.746 25.55 349.856 23.24 346.776 23.24V22.47H350.906C358.606 22.47 360.566 24.15 360.566 33.39V41.79C360.566 52.71 364.066 53.06 366.516 53.06V53.9H351.746V41.58C350.136 49.77 346.846 54.6 341.456 54.6C335.786 54.6 331.656 49.63 331.656 40.95ZM368.464 42.42V23.59H364.124V22.47H365.454C373.014 22.47 376.024 16.73 376.794 9.80002H377.354V22.47H386.734V23.59H377.354V44.59C377.354 48.79 378.824 51.03 381.834 51.03C383.724 51.03 385.684 49.91 387.294 46.83L387.854 47.18C386.174 51.94 382.044 54.95 377.214 54.95C370.984 54.95 368.464 50.26 368.464 42.42ZM398.983 12.74V36.05C400.453 27.86 403.813 21.7 409.483 21.7C414.313 21.7 417.253 25.9 419.003 35.98L420.263 42.91C421.733 52.15 423.413 53.06 425.933 53.06V53.9H412.913L410.533 36.75C409.483 29.19 407.943 26.39 405.773 26.39C402.413 26.39 399.193 33.88 398.983 45.36V53.9H390.023V13.72C390.023 5.67002 388.343 2.17002 385.193 2.17002V1.40002H389.183C396.953 1.40002 398.983 3.71002 398.983 12.74ZM451.661 29.82C451.661 35.07 447.461 38.22 435.771 41.58C437.661 46.34 440.881 49.21 445.011 49.21C447.811 49.21 451.381 47.88 453.271 44.45L453.831 44.73C451.591 50.89 446.061 54.88 439.831 54.88C431.851 54.88 425.761 47.88 425.761 38.57C425.761 28.84 432.411 21.7 441.651 21.7C447.811 21.7 451.661 24.78 451.661 29.82ZM434.371 33.25C434.371 36.05 434.721 38.57 435.491 40.74C440.461 38.99 443.261 34.65 443.261 29.61C443.261 25.76 441.511 23.1 439.061 23.1C436.191 23.1 434.371 27.09 434.371 33.25ZM467.165 33.81V36.47C468.635 28.07 472.065 21.7 477.735 21.7C482.705 21.7 485.645 25.9 487.325 35.98L488.515 42.91C489.985 52.15 491.595 53.06 494.255 53.06V53.9H481.165L478.855 36.75C477.805 29.19 476.195 26.39 474.025 26.39C470.875 26.39 467.585 33.39 467.235 44.31L467.375 53.9H458.275V34.79C458.275 26.88 456.595 23.24 453.445 23.24V22.47H457.435C465.065 22.47 467.165 24.64 467.165 33.81ZM496.575 42.42V23.59H492.235V22.47H493.565C501.125 22.47 504.135 16.73 504.905 9.80002H505.465V22.47H514.845V23.59H505.465V44.59C505.465 48.79 506.935 51.03 509.945 51.03C511.835 51.03 513.795 49.91 515.405 46.83L515.965 47.18C514.285 51.94 510.155 54.95 505.325 54.95C499.095 54.95 496.575 50.26 496.575 42.42ZM528.144 33.81L528.354 53.9H519.254V34.79C519.254 26.88 517.574 23.24 514.424 23.24V22.47H518.414C526.044 22.47 528.144 24.64 528.144 33.81ZM528.214 11.2C528.214 14.28 525.974 16.31 523.174 16.31C520.374 16.31 518.134 14.28 518.134 11.2C518.134 8.19002 520.374 6.02002 523.174 6.02002C525.974 6.02002 528.214 8.19002 528.214 11.2ZM549.001 21.7C553.551 21.7 557.191 23.17 558.941 25.41L553.411 37.31L552.711 37.03C552.781 28.42 550.541 23.1 546.691 23.1C543.401 23.1 540.881 27.23 540.881 33.74C540.881 42.35 545.431 48.93 551.871 48.93C554.741 48.93 558.311 47.53 560.481 43.96L561.041 44.24C558.801 50.54 553.061 54.6 546.691 54.6C538.361 54.6 532.271 47.88 532.271 38.57C532.271 28.84 539.131 21.7 549.001 21.7ZM574.289 33.81L574.499 53.9H565.399V34.79C565.399 26.88 563.719 23.24 560.569 23.24V22.47H564.559C572.189 22.47 574.289 24.64 574.289 33.81ZM574.359 11.2C574.359 14.28 572.119 16.31 569.319 16.31C566.519 16.31 564.279 14.28 564.279 11.2C564.279 8.19002 566.519 6.02002 569.319 6.02002C572.119 6.02002 574.359 8.19002 574.359 11.2ZM580.936 42.42V23.59H576.596V22.47H577.926C585.486 22.47 588.496 16.73 589.266 9.80002H589.826V22.47H599.206V23.59H589.826V44.59C589.826 48.79 591.296 51.03 594.306 51.03C596.196 51.03 598.156 49.91 599.766 46.83L600.326 47.18C598.646 51.94 594.516 54.95 589.686 54.95C583.456 54.95 580.936 50.26 580.936 42.42ZM618.175 48.79L615.445 55.37C609.845 68.67 605.575 73.43 599.905 73.43C598.435 73.43 596.965 73.08 595.425 72.38L600.955 59.85L601.445 60.13C601.445 63.77 602.985 65.94 605.575 65.94C608.585 65.94 611.035 62.93 614.325 55.37L614.605 54.6L605.575 32.48C602.845 25.55 601.235 23.45 598.785 23.24V22.47H615.445V23.24C613.555 23.66 612.645 24.78 612.645 26.6C612.645 27.51 612.925 28.63 613.415 30.03L619.155 44.73L623.355 34.23C624.405 31.78 624.895 29.61 624.895 27.79C624.895 25.34 623.915 23.8 621.955 23.24V22.47H631.195V23.24C629.655 23.8 628.185 26.18 624.475 34.58L618.105 48.72L618.175 48.79Z" fill="#C08237"/>
</svg>
