<svg width="66" height="61" viewBox="0 0 66 61" fill="none" xmlns="http://www.w3.org/2000/svg">
<path d="M3.45345 45.6147C5.39194 49.8674 8.89101 54.0668 12.3678 56.3136C13.3676 56.956 15.6703 58.1314 16.691 58.52C18.7699 59.3139 21.8508 60.0371 24.54 60.3623C25.2901 60.4553 26.5109 60.5 27.803 60.5C29.5471 60.5 31.4201 60.4192 32.4444 60.2693C34.9494 59.9073 36.7324 59.5763 37.0988 59.4026C37.5271 59.1913 37.8381 58.7962 37.954 58.3181C38.0641 57.8646 37.9763 57.4002 37.715 57.0455C37.5862 56.871 37.4033 56.6539 37.3119 56.5984C37.3112 56.5962 37.2989 56.5486 37.3954 56.3727C37.6459 55.8608 37.6855 55.3878 37.5257 54.8398C37.3277 54.1915 36.9577 53.8152 36.1602 53.4532C35.6261 53.2087 35.6261 53.2088 35.6261 52.8396C35.6261 52.4726 35.5404 52.2526 35.2438 51.8561C34.6133 51.0247 33.7783 50.5445 31.1819 49.5213C29.044 48.6892 25.154 46.7409 23.7489 45.7985C23.0557 45.3392 22.1898 44.6362 21.5931 44.0485L20.6119 43.0758L20.1872 41.8731C19.9627 41.2379 19.53 39.8542 19.2004 38.7229C17.3612 32.4433 15.8251 29.4026 13.1106 26.6734C10.6992 24.2579 7.86526 23.0833 4.44897 23.0833C4.38994 23.0833 4.33019 23.0833 4.27117 23.084C3.79248 23.0934 3.14608 23.1338 2.89126 23.1893C1.96053 23.3739 1.10609 24.0228 0.985883 24.6357C0.66412 26.3122 0.5 28.564 0.5 31.3285C0.5 33.9625 0.613733 35.4125 0.985883 37.5346C1.61285 41.1427 2.02891 42.5019 3.45345 45.6147ZM16.4449 33.434C16.8616 34.3937 17.7197 36.9383 18.685 40.0741C19.7546 43.5056 20.7869 45.9745 22.0307 48.0785C23.1472 49.9712 23.3926 50.4918 23.2803 50.7341C23.1364 51.0672 22.4151 51.329 21.6406 51.329C20.3348 51.3189 19.2162 50.6396 17.2072 48.6387C15.6732 47.0921 14.7166 45.8865 13.7952 44.3384C13.1646 43.272 12.172 41.1636 11.9323 40.3827C11.8272 40.02 11.7005 39.8131 11.5342 39.7309C11.4385 39.6855 11.3341 39.6819 11.2232 39.7244C11.1484 39.754 11.0937 39.8066 11.0613 39.8816C10.9605 40.1159 11.0807 40.5839 11.5227 41.6698C12.7608 44.7451 14.3322 47.0748 16.7774 49.4615C20.83 53.4186 24.9208 55.2176 32.4135 56.3388C35.9421 56.8551 36.6792 57.0721 37.0499 57.6987C37.1859 57.9345 37.1859 57.9345 37.0283 58.2323C36.8347 58.5914 36.505 58.6916 34.3145 59.0536C32.0651 59.435 31.5267 59.4876 30.0035 59.5677C24.6444 59.8539 19.2464 58.851 15.1924 56.8154C12.0287 55.2212 10.4379 53.9839 8.38065 51.5215C6.18662 48.9034 5.10113 47.1382 3.73346 43.9678C2.77537 41.77 2.13688 39.3567 1.59917 35.8992C1.23062 33.5544 1.30261 27.512 1.72226 25.47C1.95837 24.2767 2.22542 24.1007 3.91701 24.0207C4.22294 24.0055 4.50583 23.9983 4.77577 23.9983C5.65971 23.9983 6.3925 24.0805 7.25485 24.2658C8.13088 24.462 10.3962 25.5616 11.1657 26.1636C13.2935 27.812 15.1182 30.3255 16.4449 33.434ZM33.2809 52.5194C30.3677 51.7277 26.2273 50.194 24.7617 49.3634C23.9562 48.9026 23.1832 48.3179 22.965 48.0042C22.7282 47.6581 21.6305 45.5851 21.4289 45.1092L21.4426 45.12C21.6147 45.2556 21.9321 45.5058 22.2301 45.756C22.6426 46.1035 23.4077 46.6414 23.8792 46.9399C25.0763 47.7028 28.9079 49.5797 30.9479 50.4039C32.9627 51.2114 33.774 51.6383 34.2879 52.1632C34.5974 52.4798 34.7652 52.823 34.7882 52.9535C34.6644 52.9037 34.1281 52.7545 33.2809 52.5194ZM36.6115 55.8737C36.4978 56.1651 36.438 56.1492 36.4208 56.142C36.1465 56.0374 33.7999 55.6394 31.6958 55.3012C27.8901 54.6775 25.2606 53.919 22.9024 52.7631L21.9026 52.2743L22.053 52.244C22.8614 52.076 23.4178 51.8301 23.7547 51.4926C24.1628 51.0831 24.2665 50.7067 24.1225 50.1486C24.1038 50.083 24.0901 50.0289 24.0815 49.9857C24.0937 49.9921 24.106 49.9986 24.1196 50.0051C24.2269 50.0606 24.3673 50.1335 24.5127 50.2121C26.1841 51.0961 29.8675 52.479 32.5539 53.2318C35.4771 54.0581 36.199 54.449 36.3711 54.6097C36.7144 54.927 36.8044 55.3986 36.6115 55.8737ZM34.6478 39.9782C33.499 40.8875 33.242 41.1499 33.2694 41.3879C33.278 41.4484 33.3039 41.6337 33.4623 41.6994C33.7048 41.7953 34.0914 41.584 35.1308 40.7887C36.5028 39.7201 39.0208 37.2346 40.03 35.954C42.0663 33.3547 43.0777 30.7856 43.213 27.8689C43.2865 26.1896 43.1094 25.2811 42.4608 23.9803C41.8454 22.7365 40.9319 21.8078 39.7456 21.2194C38.9581 20.83 38.7847 20.7853 37.8791 20.7442C37.2097 20.7219 36.6849 20.7579 36.3157 20.8502H36.3142C35.991 20.9368 35.503 21.1149 35.2165 21.2374C34.6241 21.5028 33.3831 22.394 32.9274 22.8814L32.7 23.1251L32.1507 22.6471C30.7363 21.409 29.7559 21.011 28.1161 21.011C26.2834 21.011 25.1684 21.417 23.8555 22.5642C22.9154 23.3898 22.3575 24.2435 21.9904 25.4181C21.1029 28.2641 21.9609 32.1671 24.1772 35.3606C25.4772 37.2267 27.6482 39.4648 30.2914 41.6626C31.0818 42.3144 31.9722 43.0751 32.2839 43.3484C32.4984 43.5517 32.8735 43.874 33.1009 43.874C33.1211 43.874 33.1405 43.8719 33.1578 43.8661C33.2478 43.8322 33.3111 43.8128 33.3154 43.8113C33.4119 43.8113 33.4651 43.7147 33.4651 43.538C33.4651 43.184 33.0757 42.7615 31.798 41.7318C27.7872 38.4878 25.0309 35.463 23.8288 32.9819C23.3631 32.0301 22.793 30.2859 22.6548 29.3947C22.2985 26.8768 22.8146 24.8513 24.147 23.5361C25.8559 21.8546 28.2918 21.3896 30.2087 22.3796C30.8572 22.7213 31.9801 23.6104 32.0593 23.7964C32.0644 23.8621 31.9629 24.1851 31.7664 24.599C31.143 25.912 31.0163 27.4327 31.4799 28.0622C31.8131 28.5056 32.2285 28.7681 32.6496 28.802C32.98 28.8301 33.2773 28.7154 33.5249 28.4775C34.0468 27.9771 34.2289 27.3606 34.1547 26.3511C34.1108 25.5998 34.0165 25.3315 33.6595 24.5975L33.2614 23.8L33.5587 23.4936C34.3613 22.6485 35.5289 21.9527 36.6065 21.6773C37.7258 21.386 38.9214 21.6268 39.9645 22.3587C41.2976 23.2931 42.193 24.8968 42.36 26.6467C42.4903 27.9605 42.1686 29.8511 41.5013 31.7035C40.6231 34.1146 37.869 37.4394 34.6478 39.9782ZM32.4761 25.103C32.5423 24.9552 32.6661 24.6812 32.6993 24.6516C32.7741 24.6905 32.9469 25.1167 33.0599 25.3986C33.4421 26.3497 33.3413 27.5769 32.854 27.8769C32.7914 27.9165 32.7079 27.9064 32.6496 27.8898C32.4502 27.8343 32.2342 27.6389 32.1256 27.4154C31.942 27.0296 32.1097 25.9271 32.4761 25.103ZM63.0457 37.8389C63.9289 37.668 64.5796 37.2743 64.8301 36.7595C65.3729 35.6721 65.6889 29.5317 65.3765 26.1622C65.1598 23.8368 64.4925 20.4767 63.8893 18.6712C63.4898 17.4822 62.3604 14.9037 61.7306 13.745C60.6559 11.7701 58.5122 8.92768 56.8523 7.27431C54.9304 5.35993 52.2857 3.67412 49.4043 2.52765C47.4053 1.73305 44.0847 0.940619 41.5121 0.644268C40.3524 0.500779 36.4071 0.448143 35.3014 0.561348C33.1132 0.768289 29.4982 1.3372 28.9576 1.56C28.2932 1.84842 27.8642 2.73098 28.0405 3.44554C28.0794 3.62725 28.2817 3.93946 28.4458 4.12405C28.7208 4.43482 28.7208 4.43482 28.5833 4.71747C28.2119 5.50486 28.489 6.69243 29.1512 7.15967C29.3276 7.29234 29.6889 7.49207 29.9567 7.606C30.3634 7.78121 30.3634 7.79203 30.3634 8.07396C30.3634 8.62123 30.5822 8.99907 31.2639 9.62854C31.9024 10.2032 32.7568 10.6488 34.6536 11.3915C37.3788 12.4695 40.6756 14.1272 42.3219 15.2477C43.5233 16.0639 45.1299 17.5514 45.356 17.9833C45.5813 18.4051 46.3846 20.8171 46.8906 22.5923C48.4649 28.1047 49.9585 31.1598 52.4016 33.8659C54.0486 35.6808 56.5255 37.1942 58.5648 37.6319C59.4163 37.8136 60.73 37.9211 61.7773 37.9211C62.2949 37.9211 62.7462 37.8951 63.0457 37.8389ZM31.2733 8.05449C31.287 8.05449 31.31 8.05665 31.346 8.06963C31.4863 8.13236 32.4632 8.3941 32.6589 8.44602C37.3573 9.72516 41.7431 11.5963 42.8618 12.7983C43.1065 13.0615 44.2237 15.141 44.5613 15.8721C44.4598 15.7971 44.3288 15.6918 44.174 15.5599C42.499 14.1308 38.4852 11.9546 34.8364 10.4988C32.6186 9.62421 31.739 9.07982 31.3517 8.34291C31.2538 8.15327 31.2553 8.06459 31.2574 8.05449C31.2574 8.05593 31.2625 8.05449 31.2733 8.05449ZM29.6004 4.89774C29.6306 4.87538 29.658 4.86457 29.6803 4.86457C29.6868 4.86457 29.6925 4.86529 29.6976 4.86673C29.7861 4.89629 30.0417 4.9547 30.398 5.03402H30.3987C30.7089 5.10107 31.9614 5.32027 33.1434 5.49909C38.0908 6.28359 40.662 7.00176 43.334 8.34579L44.1618 8.7604L43.7853 8.83394C42.8495 9.00267 42.296 9.33075 41.9908 9.89966C41.7734 10.302 41.7568 10.4332 41.8684 10.8356C41.8886 10.9106 41.903 10.9726 41.9123 11.0216C41.6762 10.9077 41.1932 10.6697 40.8153 10.483C38.6968 9.4526 36.2055 8.54697 32.7367 7.54759C29.7955 6.69964 29.3254 6.33695 29.3254 5.60941C29.3254 5.29215 29.4651 4.99796 29.6004 4.89774ZM44.3511 9.67757C45.6216 9.67757 46.6704 10.2811 48.5066 12.07C50.9929 14.4884 52.5557 16.8059 53.7318 19.8184C54.0306 20.5733 54.2069 20.9952 54.2523 21.068C54.3343 21.218 54.5035 21.3009 54.6647 21.2713C54.8209 21.2446 54.9325 21.13 54.9584 20.9699C55.052 20.3246 53.4533 16.9299 52.3786 15.2852C50.3703 12.2012 46.9835 9.15842 43.7507 7.53389C40.9629 6.13289 38.2333 5.3693 33.3219 4.61581C31.1703 4.27908 29.9682 4.03969 29.6479 3.88394C29.1786 3.64383 28.9072 3.28836 28.9403 2.95595C28.9677 2.68051 29.2031 2.45987 29.5896 2.35171C29.9603 2.23851 32.3379 1.82679 33.7322 1.62273C35.5634 1.35162 39.2058 1.31268 41.3753 1.54125C42.5292 1.66167 44.6433 2.06185 45.9916 2.41444C50.3652 3.55875 54.032 5.6022 56.5953 8.32416C58.117 9.94148 59.8425 12.2474 60.7905 13.9339C61.4095 15.0278 62.5072 17.5002 62.9651 18.8349C63.6539 20.8142 64.363 24.3178 64.5451 26.6453C64.7517 29.3161 64.6271 33.6078 64.2888 35.4753C64.1117 36.4249 63.8742 36.7299 63.186 36.895C62.0336 37.1705 59.3724 37.014 58.1919 36.5987C57.3043 36.2987 55.5307 35.3786 54.8044 34.8407C52.8997 33.3994 50.949 30.761 49.7109 27.9533C49.2351 26.8869 48.2856 24.1548 47.7184 22.2231C47.1505 20.2712 46.8669 19.424 46.2025 17.6877C45.3156 15.3602 44.9953 14.6716 44.0639 13.0824C43.1101 11.4672 42.6069 10.5457 42.6732 10.3042C42.7617 10.0367 43.6075 9.67757 44.3511 9.67757Z" fill="#C08237" stroke="#C08237"/>
</svg>
