<svg width="65" height="61" viewBox="0 0 65 61" fill="none" xmlns="http://www.w3.org/2000/svg">
<path d="M8.4417 47.991C12.5199 52.4725 15.9844 55.0923 21.2221 57.659C25.0431 59.5277 29.4977 60.5 34.1932 60.5C34.7269 60.5 35.2642 60.4872 35.8028 60.4624C39.5267 60.2881 41.4489 59.948 44.7453 58.8807C50.7677 56.9185 55.3895 54.1683 59.7286 49.9646C61.9187 47.8486 62.8528 46.6672 62.8528 46.0139C62.8528 45.4838 62.4495 44.7248 62.0413 44.4825C61.8492 44.3585 61.4927 44.221 61.2588 44.16C61.1362 44.1267 60.9831 44.0842 60.9633 44.0587C60.9569 44.0339 60.9923 43.9304 61.0115 43.8752C61.2836 43.1027 60.7712 42.0688 59.9143 41.6621L59.5358 41.4885L59.9348 40.9244C62.9641 36.7419 64.5 31.9643 64.5 26.726C64.5 23.8205 64.1399 21.4685 63.2582 18.6063C62.3978 15.8071 61.4303 13.7336 59.9164 11.4483C57.7419 8.17503 54.1605 5.03077 50.5699 3.24144C47.788 1.8454 44.4356 0.876685 41.3702 0.582597C40.2865 0.487639 37.6768 0.470631 36.8681 0.552125C36.6704 0.572676 36.0162 0.656297 35.4201 0.748421C32.3001 1.20621 28.8236 2.53208 25.6314 4.48227C23.6497 5.69548 22.4065 6.68191 20.8805 8.24943C18.9392 10.2528 18.234 11.2215 16.9065 13.7025C15.5797 16.1487 14.8532 18.2151 14.2273 21.3254C13.7879 23.4584 13.6568 24.8821 13.7092 26.9648L13.7489 28.5975H12.8268C8.96832 28.6074 4.52082 30.2748 1.7616 32.7459C0.91321 33.5091 0.5 34.1681 0.5 34.762C0.5 35.2949 1.44904 37.4903 2.37964 39.1117C5.00207 43.6881 6.41818 45.7623 8.4417 47.991ZM34.7737 2.69578C34.301 3.189 33.6574 3.99543 33.3399 4.49361C33.0231 4.97337 32.5858 5.54312 32.366 5.7635C31.8961 6.21279 31.0811 6.63372 30.5856 6.68191L30.3333 6.70317L30.3092 6.3283C30.2787 5.79043 30.7203 4.35259 31.237 3.31017C31.5389 2.68657 31.5389 2.68657 32.1761 2.45767C33.0989 2.13241 34.3336 1.81493 35.25 1.66895L35.4159 1.64061C35.586 1.61155 35.7114 1.59029 35.8057 1.57399C35.7008 1.70793 35.2295 2.21107 34.7737 2.69578ZM30.1044 3.75946C29.3843 5.49351 29.2475 6.71734 29.7053 7.29631C29.9442 7.60669 30.0399 7.61661 30.5856 7.55354C31.9039 7.39552 32.9345 6.66278 33.9282 5.17816C34.2932 4.63605 35.0459 3.70347 35.6072 3.10042C36.1069 2.57177 36.7065 1.9021 36.8426 1.69801L37.0474 1.41242H38.9717C40.1079 1.41242 41.4375 1.48683 42.0187 1.55628C43.0259 1.69871 44.8176 2.05587 45.1415 2.15863C45.1224 2.21248 45.0742 2.31027 44.9835 2.44208C44.4845 3.18545 44.3959 3.93378 44.6695 5.11155C45.0579 6.7634 44.4356 7.50323 42.1066 8.15873C40.5005 8.62006 39.4232 9.30532 38.9909 10.1394C38.7846 10.5412 38.6776 11.4483 38.7747 11.9698C38.82 12.2086 39.0376 12.5764 39.3148 12.8861C39.9569 13.6096 39.9881 13.7414 39.8343 13.9477C38.8831 15.2409 38.7889 15.7852 39.3977 16.4818C39.8435 16.9821 40.3014 17.177 41.0335 17.177C41.8628 17.177 42.2753 16.9672 43.2392 16.0559C44.7949 14.6102 45.1167 14.6244 47.5386 16.2515C48.7569 17.0678 49.1985 17.454 49.3544 17.8431C49.4267 18.0146 49.4437 18.1194 49.4104 18.1825C49.3643 18.2704 49.1978 18.3377 48.854 18.4086C48.1148 18.5602 47.1948 18.4249 45.5675 17.9274C44.5703 17.6184 44.1726 17.5525 43.0684 17.5107C41.5871 17.4462 40.8443 17.5823 39.7492 18.1088C38.4848 18.7353 37.2239 20.4488 36.8178 22.0935C36.5527 23.1664 36.8022 25.179 37.3309 26.2363C37.8519 27.29 38.2736 27.6273 40.7968 29.0128C43.4291 30.4676 43.8239 30.8864 44.3208 32.7487C44.488 33.3858 44.5462 34.0817 44.6057 36.1353C44.7 39.1868 44.7949 39.6601 45.4484 40.3575C45.8297 40.76 45.9396 40.8117 46.5172 40.8542C46.9248 40.8875 47.2834 40.8471 47.5364 40.7437C47.7476 40.6544 48.5677 40.0506 49.365 39.3987C51.558 37.6185 53.04 36.0411 54.1698 34.2837C54.8374 33.2341 56.0905 30.3613 56.3676 29.2459C56.9013 27.1511 56.3804 25.6027 54.3753 23.3273C53.7892 22.6654 53.4638 21.9837 53.5099 21.8682C53.5439 21.8143 53.556 21.8242 53.5623 21.8235C53.7147 21.8235 54.1726 22.3607 54.3696 22.591C55.3669 23.7695 56.223 24.381 56.9141 24.4101C57.2543 24.4229 57.5364 24.3059 57.783 24.06C58.3252 23.5073 58.2338 22.7717 57.4768 21.5996C56.9552 20.7861 56.9346 20.5799 57.1402 20.3326L57.2678 20.1717L57.6165 20.47C57.8369 20.6599 58.3628 21.2254 58.7682 21.735C60.7003 24.0884 61.6338 24.7715 62.7777 24.6787C63.0867 24.6468 63.412 24.583 63.5304 24.5469C63.5325 24.5462 63.5347 24.5454 63.5368 24.544C63.5729 24.6298 63.6041 24.9281 63.619 25.0798C63.7501 26.2115 63.6162 29.2048 63.3731 30.6022C62.8989 33.2398 61.587 36.7129 60.2545 38.8594C59.6173 39.8883 58.2069 41.8215 57.4613 42.6896C55.7092 44.7468 51.7734 47.7026 49.5146 48.6571C47.0495 49.7017 44.3541 50.3083 41.7196 50.411L40.6777 50.4542L40.6926 50.4457C42.0655 49.6854 42.994 48.4892 43.0053 47.4687C43.0152 46.6892 42.6375 46.2697 41.3879 45.6716C37.2664 43.703 34.8907 42.2694 32.31 40.1938C31.6977 39.6935 29.3588 37.603 27.9873 36.3139C27.5117 35.8689 26.5074 34.9668 25.7476 34.3014C24.9375 33.6026 24.4506 33.1016 24.4144 33.0322C24.4144 32.9266 24.6894 32.2669 25.7185 30.4683C26.024 29.9418 26.3061 29.2927 26.36 28.9922C26.552 27.9987 26.1381 26.9789 25.2798 26.3327C24.822 25.9819 23.4711 25.315 22.2038 24.814C19.8337 23.8659 18.9527 23.3089 18.9527 22.7618C18.9626 22.2707 19.368 21.6166 20.0945 20.9193C21.0074 20.0271 21.9763 19.4687 23.9339 18.7062C25.7852 17.9891 26.2629 17.7198 26.9405 17.0111C27.6435 16.2663 27.9178 15.6994 27.9178 14.9908C27.9178 14.3048 27.7449 13.9824 26.8285 12.9619C26.0382 12.0797 25.8568 11.7487 25.8568 11.1889C25.8568 10.724 25.9234 10.6021 27.0432 9.01406C28.0249 7.62086 28.2176 6.41829 27.6492 5.22848L27.4805 4.88266C27.4238 4.76715 27.3771 4.67219 27.3466 4.60912C27.6676 4.3533 29.784 3.30947 30.3397 3.12664C30.3007 3.25632 30.222 3.48308 30.1044 3.75946ZM63.2788 23.6511C63.1448 23.7135 62.8408 23.7652 62.6019 23.7652C61.8556 23.7652 61.093 23.1423 59.6868 21.3835C58.7406 20.2036 57.8695 19.3766 57.4662 19.276C57.2011 19.2072 56.9254 19.2703 56.6887 19.4538C56.3549 19.7118 56.1472 20.1731 56.1472 20.6564C56.1472 21.1517 56.3053 21.5295 56.7957 22.2126C57.1218 22.6633 57.2862 23.2004 57.2174 23.3776C57.2096 23.396 57.1806 23.4144 57.1402 23.4272C56.968 23.4804 56.6136 23.43 56.3662 23.2678C56.2103 23.1608 55.6121 22.5938 55.043 21.9943C54.1053 21.0051 53.9614 20.8789 53.5538 20.8789C53.237 20.8789 52.9727 21.0249 52.8103 21.2899C52.5708 21.6818 52.5942 22.2629 52.8727 22.8071C52.9953 23.0424 53.3866 23.5838 53.7729 24.0125C55.5143 26.0081 55.9587 27.3411 55.471 29.1077C55.2201 30.0367 54.0131 32.7983 53.4837 33.6551C52.5268 35.2276 51.0299 36.8582 49.0348 38.5015C48.2388 39.1528 47.4067 39.7714 47.1806 39.8791C46.7986 40.0641 46.7582 40.0584 46.4407 39.9372C46.1657 39.8331 46.0331 39.6991 45.8482 39.3391C45.6114 38.8764 45.5923 38.7821 45.5299 36.2934C45.3733 30.8481 44.9813 30.204 40.2801 27.6713C38.5677 26.7493 38.1729 26.2809 37.7987 24.7219C37.4727 23.3301 37.5485 22.411 38.0794 21.3303C38.9661 19.4971 40.0441 18.6729 41.9244 18.3909C42.1505 18.359 42.3894 18.3434 42.6389 18.3434C43.4291 18.3434 44.3349 18.5028 45.3414 18.8203C46.6328 19.2264 47.5634 19.3709 48.5734 19.3199C49.4458 19.2767 49.9632 19.0974 50.2007 18.7551C50.3871 18.4872 50.402 18.1173 50.246 17.6262C50.0419 16.9722 49.762 16.6788 48.4848 15.7781C45.5554 13.7145 44.6064 13.6217 42.8387 15.219C41.9691 15.9992 41.4255 16.3365 41.0243 16.3457C40.7351 16.3457 40.0802 15.9985 39.9626 15.7823C39.8499 15.5782 39.8563 15.4464 40.3673 14.764C41.03 13.874 40.9726 13.3992 40.0923 12.4545C39.6089 11.933 39.4969 11.5333 39.6642 10.926C39.8889 10.0621 40.648 9.51366 42.2802 9.0332C44.0904 8.50242 44.9261 7.97944 45.3655 7.10284C45.688 6.44806 45.7085 6.02145 45.4775 4.81959C45.3839 4.35401 45.3378 3.83741 45.374 3.6645C45.4534 3.22514 45.9651 2.46689 46.1111 2.44279C46.1905 2.45059 46.8121 2.65113 47.6435 2.96152C51.957 4.57085 55.1564 6.88033 58.0162 10.4498C60.0192 12.9322 61.441 15.6973 62.4907 19.1512C62.9492 20.6521 63.2944 22.1318 63.4142 23.1126C63.4794 23.5626 63.4794 23.5626 63.2788 23.6511ZM26.1289 8.81635C25.1225 10.1862 24.985 10.4831 24.9949 11.2605C25.0062 12.0818 25.1742 12.4078 26.1962 13.5862C27.1722 14.6889 27.2034 14.9383 26.9121 15.5301C26.4216 16.5512 25.6909 17.0777 23.7872 17.7843C21.5574 18.612 20.3291 19.3312 19.2539 20.4374C18.4176 21.2949 18.1206 21.8965 18.1206 22.737C18.1206 23.3556 18.1546 23.4421 18.5728 23.8914C19.0158 24.3676 20.249 25.0408 21.6424 25.5673C22.6071 25.9273 24.2762 26.7394 24.6802 27.0179C25.058 27.2794 25.5406 28.0972 25.5406 28.4763C25.5406 28.854 25.1926 29.6293 24.5044 30.7808C24.1493 31.374 23.7822 32.0472 23.7042 32.2484L23.6192 32.4568L23.1408 32.1379C21.7721 31.2159 19.9024 30.2011 18.7904 29.7774C18.032 29.4932 15.7498 28.8668 15.0885 28.7619C14.7369 28.7109 14.7369 28.7109 14.6739 28.3062C14.5753 27.6181 14.5973 24.6114 14.7355 23.6263C15.433 18.4199 17.7527 12.9945 20.6452 9.80491C21.9756 8.33093 24.0749 6.47569 25.2309 5.75288C25.7136 5.43895 26.3897 5.08533 26.5485 5.02651C26.5946 5.08108 26.6903 5.22423 26.81 5.44603C26.9461 5.70965 27.09 6.08452 27.129 6.28082C27.2374 6.86758 26.8731 7.79165 26.1289 8.81635ZM30.2957 39.641C31.2129 40.4843 33.3874 42.1773 34.4512 42.876C36.17 44.0212 38.6322 45.3662 40.5792 46.2236C41.5708 46.6538 41.9996 46.9542 42.1066 47.2958C42.186 47.5516 42.0917 47.8691 41.7891 48.3566C41.3744 49.0171 40.4027 49.7201 39.5295 49.9908C37.7505 50.5294 35.0246 50.1687 31.1952 48.8895C28.5408 47.9945 25.6285 46.483 23.4037 44.8453C22.6269 44.2699 22.2803 44.1005 22.0826 44.2011C21.9848 44.25 21.9352 44.3571 21.9352 44.5186C21.9352 45.0983 24.9963 47.0428 27.7442 48.4261C31.0761 50.0964 35.4839 51.2182 39.2474 51.3528C44.2059 51.5215 47.8433 50.625 52.6764 48.0534C56.0083 46.281 59.45 44.8928 60.5104 44.8928C61.02 44.8928 61.6905 45.2039 61.818 45.4328C61.9477 45.6829 61.9435 46.0684 61.8074 46.3136C61.5615 46.7856 59.9915 48.492 58.6959 49.6953C54.841 53.2917 51.0477 55.6302 46.014 57.5145C42.0683 58.9835 39.4976 59.4881 35.4343 59.5894C30.1958 59.7169 25.6725 58.817 21.6233 56.8491C17.6967 54.9371 14.7738 52.9395 11.8502 50.1701C8.89602 47.3709 7.02276 45.1096 5.16934 42.1036C2.76025 38.1819 1.43344 35.589 1.43344 34.8024C1.43344 34.4318 1.43344 34.3928 2.206 33.6416C4.31528 31.5532 7.66206 30.0623 11.3902 29.5499C11.7056 29.5053 12.1067 29.4833 12.544 29.4833C13.4654 29.4833 14.5463 29.5775 15.3302 29.7441C16.6322 30.0162 18.8095 30.7185 19.6437 31.1359C20.4028 31.5157 21.9387 32.4334 22.8048 33.0244C23.5441 33.5353 25.715 35.4522 30.2957 39.641ZM59.8611 44.0623C59.5684 44.0623 57.2819 44.8921 56.1089 45.4002L55.7772 45.5433L55.8084 45.5164C56.7979 44.6696 57.8681 43.6038 58.4698 42.8654C58.81 42.4494 58.9475 42.2821 59.1311 42.2821C59.2537 42.2821 59.3976 42.3565 59.6379 42.4799L59.64 42.4806C59.932 42.6223 60.2701 43.1417 60.2701 43.3742C60.2694 43.6704 59.9887 44.0623 59.8611 44.0623Z" fill="#C08237" stroke="#C08237"/>
</svg>
