<svg width="120" height="120" viewBox="0 0 120 120" fill="none" xmlns="http://www.w3.org/2000/svg">
<path opacity="0.4" d="M59.85 110C87.4642 110 109.85 87.6142 109.85 60C109.85 32.3858 87.4642 10 59.85 10C32.2357 10 9.84998 32.3858 9.84998 60C9.84998 87.6142 32.2357 110 59.85 110Z" fill="#A49C93"/>
<path d="M74.85 51.15L60.35 42.8C56.75 40.7 52.4 40.7 48.8 42.8C45.2 44.9 43.05 48.6 43.05 52.8V69.55C43.05 73.7 45.2 77.45 48.8 79.55C50.6 80.6 52.6 81.1 54.55 81.1C56.55 81.1 58.5 80.6 60.3 79.55L74.8 71.2C78.4 69.1 80.55 65.4 80.55 61.2C80.65 57 78.5 53.25 74.85 51.15Z" fill="#A49C93"/>
</svg>
